NotoSansMedefaidrin-Regular.ufo
<glyph name="M-medf" format="2">
	<unicode hex="16E40"/>
	<advance width="1195"/>
	<outline>
		<contour>
			<point x="776" y="-121" type="line"/>
			<point x="796" y="-9"/>
			<point x="819" y="95"/>
			<point x="848" y="203" type="curve"/>
			<point x="827" y="204" type="line"/>
			<point x="837" y="145"/>
			<point x="888" y="111"/>
			<point x="959" y="111" type="curve" smooth="yes"/>
			<point x="1095" y="111"/>
			<point x="1170" y="231"/>
			<point x="1170" y="383" type="curve" smooth="yes"/>
			<point x="1170" y="576"/>
			<point x="1023" y="724"/>
			<point x="819" y="724" type="curve" smooth="yes"/>
			<point x="675" y="724"/>
			<point x="567" y="649"/>
			<point x="538" y="537" type="curve"/>
			<point x="552" y="555" type="line"/>
			<point x="529" y="591"/>
			<point x="483" y="608"/>
			<point x="434" y="622" type="curve" smooth="yes"/>
			<point x="366" y="641"/>
			<point x="295" y="662"/>
			<point x="279" y="716" type="curve"/>
			<point x="206" y="709" type="line"/>
			<point x="225" y="487"/>
			<point x="239" y="221"/>
			<point x="231" y="-1" type="curve"/>
			<point x="308" y="-6" type="line"/>
			<point x="311" y="42"/>
			<point x="325" y="69"/>
			<point x="360" y="69" type="curve" smooth="yes"/>
			<point x="420" y="69"/>
			<point x="430" y="-11"/>
			<point x="514" y="-11" type="curve" smooth="yes"/>
			<point x="542" y="-11"/>
			<point x="571" y="-1"/>
			<point x="594" y="18" type="curve"/>
			<point x="555" y="80" type="line"/>
			<point x="543" y="72"/>
			<point x="531" y="67"/>
			<point x="518" y="67" type="curve" smooth="yes"/>
			<point x="468" y="67"/>
			<point x="450" y="147"/>
			<point x="372" y="147" type="curve" smooth="yes"/>
			<point x="325" y="147"/>
			<point x="303" y="116"/>
			<point x="297" y="73" type="curve"/>
			<point x="311" y="79" type="line"/>
			<point x="314" y="229"/>
			<point x="302" y="476"/>
			<point x="288" y="642" type="curve"/>
			<point x="265" y="636" type="line"/>
			<point x="277" y="587"/>
			<point x="344" y="564"/>
			<point x="411" y="543" type="curve" smooth="yes"/>
			<point x="468" y="525"/>
			<point x="520" y="503"/>
			<point x="524" y="452" type="curve" smooth="yes"/>
			<point x="532" y="360"/>
			<point x="595" y="306"/>
			<point x="684" y="306" type="curve" smooth="yes"/>
			<point x="778" y="306"/>
			<point x="831" y="369"/>
			<point x="831" y="442" type="curve" smooth="yes"/>
			<point x="831" y="467"/>
			<point x="826" y="491"/>
			<point x="815" y="510" type="curve"/>
			<point x="741" y="485" type="line"/>
			<point x="745" y="474"/>
			<point x="747" y="461"/>
			<point x="747" y="451" type="curve" smooth="yes"/>
			<point x="747" y="413"/>
			<point x="721" y="382"/>
			<point x="679" y="382" type="curve" smooth="yes"/>
			<point x="634" y="382"/>
			<point x="608" y="415"/>
			<point x="608" y="469" type="curve" smooth="yes"/>
			<point x="608" y="571"/>
			<point x="690" y="645"/>
			<point x="819" y="645" type="curve" smooth="yes"/>
			<point x="970" y="645"/>
			<point x="1079" y="536"/>
			<point x="1079" y="383" type="curve" smooth="yes"/>
			<point x="1079" y="275"/>
			<point x="1037" y="191"/>
			<point x="951" y="191" type="curve" smooth="yes"/>
			<point x="904" y="191"/>
			<point x="870" y="210"/>
			<point x="858" y="254" type="curve"/>
			<point x="787" y="254" type="line"/>
			<point x="762" y="146"/>
			<point x="740" y="38"/>
			<point x="723" y="-68" type="curve"/>
			<point x="744" y="-68" type="line"/>
			<point x="730" y="159"/>
			<point x="604" y="305"/>
			<point x="368" y="305" type="curve" smooth="yes"/>
			<point x="335" y="305"/>
			<point x="274" y="299"/>
			<point x="244" y="299" type="curve" smooth="yes"/>
			<point x="147" y="299"/>
			<point x="92" y="333"/>
			<point x="92" y="401" type="curve" smooth="yes"/>
			<point x="92" y="451"/>
			<point x="118" y="484"/>
			<point x="166" y="505" type="curve"/>
			<point x="138" y="578" type="line"/>
			<point x="53" y="550"/>
			<point x="10" y="479"/>
			<point x="10" y="401" type="curve" smooth="yes"/>
			<point x="10" y="297"/>
			<point x="91" y="227"/>
			<point x="239" y="227" type="curve" smooth="yes"/>
			<point x="278" y="227"/>
			<point x="338" y="233"/>
			<point x="377" y="233" type="curve" smooth="yes"/>
			<point x="571" y="233"/>
			<point x="662" y="111"/>
			<point x="693" y="-121" type="curve"/>
		</contour>
	</outline>
</glyph>
<glyph name="S-medf" format="2">
  <advance width="834"/>
  <unicode hex="16E41"/>
  <outline>
    <contour>
      <point x="649" y="-11" type="curve" smooth="yes"/>
      <point x="729" y="-11"/>
      <point x="809" y="33"/>
      <point x="809" y="146" type="curve" smooth="yes"/>
      <point x="809" y="282"/>
      <point x="692" y="342"/>
      <point x="544" y="421" type="curve" smooth="yes"/>
      <point x="382" y="507"/>
      <point x="252" y="588"/>
      <point x="148" y="720" type="curve"/>
      <point x="70" y="712" type="line"/>
      <point x="90" y="469"/>
      <point x="105" y="233"/>
      <point x="95" y="-1" type="curve"/>
      <point x="172" y="-6" type="line"/>
      <point x="176" y="37"/>
      <point x="186" y="69"/>
      <point x="222" y="69" type="curve" smooth="yes"/>
      <point x="280" y="69"/>
      <point x="289" y="-11"/>
      <point x="373" y="-11" type="curve" smooth="yes"/>
      <point x="404" y="-11"/>
      <point x="432" y="0"/>
      <point x="464" y="27" type="curve"/>
      <point x="421" y="89" type="line"/>
      <point x="404" y="75"/>
      <point x="390" y="67"/>
      <point x="377" y="67" type="curve" smooth="yes"/>
      <point x="327" y="67"/>
      <point x="310" y="147"/>
      <point x="236" y="147" type="curve" smooth="yes"/>
      <point x="187" y="147"/>
      <point x="167" y="114"/>
      <point x="166" y="72" type="curve"/>
      <point x="175" y="79" type="line"/>
      <point x="182" y="233"/>
      <point x="167" y="472"/>
      <point x="153" y="645" type="curve"/>
      <point x="130" y="639" type="line"/>
      <point x="231" y="504"/>
      <point x="361" y="435"/>
      <point x="497" y="365" type="curve" smooth="yes"/>
      <point x="624" y="301"/>
      <point x="724" y="251"/>
      <point x="724" y="147" type="curve" smooth="yes"/>
      <point x="724" y="89"/>
      <point x="692" y="63"/>
      <point x="649" y="63" type="curve" smooth="yes"/>
      <point x="605" y="63"/>
      <point x="583" y="92"/>
      <point x="583" y="130" type="curve" smooth="yes"/>
      <point x="583" y="139"/>
      <point x="585" y="148"/>
      <point x="588" y="157" type="curve"/>
      <point x="511" y="185" type="line"/>
      <point x="503" y="165"/>
      <point x="498" y="143"/>
      <point x="498" y="121" type="curve" smooth="yes"/>
      <point x="498" y="50"/>
      <point x="554" y="-11"/>
    </contour>
  </outline>
</glyph>
<glyph name="V-medf" format="2">
  <advance width="817"/>
  <unicode hex="16E42"/>
  <outline>
    <contour>
      <point x="253" y="-11" type="curve" smooth="yes"/>
      <point x="514" y="-11"/>
      <point x="792" y="268"/>
      <point x="792" y="528" type="curve" smooth="yes"/>
      <point x="792" y="652"/>
      <point x="728" y="724"/>
      <point x="618" y="724" type="curve" smooth="yes"/>
      <point x="524" y="724"/>
      <point x="461" y="665"/>
      <point x="461" y="578" type="curve" smooth="yes"/>
      <point x="461" y="560"/>
      <point x="466" y="542"/>
      <point x="475" y="522" type="curve"/>
      <point x="551" y="551" type="line"/>
      <point x="548" y="561"/>
      <point x="546" y="571"/>
      <point x="546" y="580" type="curve" smooth="yes"/>
      <point x="546" y="622"/>
      <point x="575" y="649"/>
      <point x="618" y="649" type="curve" smooth="yes"/>
      <point x="672" y="649"/>
      <point x="704" y="604"/>
      <point x="704" y="528" type="curve" smooth="yes"/>
      <point x="704" y="300"/>
      <point x="473" y="62"/>
      <point x="251" y="62" type="curve"/>
      <point x="284" y="34" type="line"/>
      <point x="314" y="232"/>
      <point x="332" y="461"/>
      <point x="337" y="713" type="curve"/>
      <point x="263" y="713" type="line"/>
      <point x="215" y="625"/>
      <point x="109" y="485"/>
      <point x="5" y="372" type="curve"/>
      <point x="21" y="309" type="line"/>
      <point x="113" y="332"/>
      <point x="229" y="344"/>
      <point x="352" y="344" type="curve" smooth="yes"/>
      <point x="414" y="344"/>
      <point x="470" y="342"/>
      <point x="519" y="337" type="curve"/>
      <point x="482" y="386" type="line"/>
      <point x="451" y="328"/>
      <point x="425" y="295"/>
      <point x="377" y="250" type="curve"/>
      <point x="422" y="199" type="line"/>
      <point x="475" y="246"/>
      <point x="504" y="282"/>
      <point x="535" y="340" type="curve"/>
      <point x="519" y="401" type="line"/>
      <point x="472" y="406"/>
      <point x="417" y="409"/>
      <point x="354" y="409" type="curve" smooth="yes"/>
      <point x="242" y="409"/>
      <point x="127" y="397"/>
      <point x="21" y="374" type="curve"/>
      <point x="53" y="339" type="line"/>
      <point x="155" y="445"/>
      <point x="262" y="588"/>
      <point x="311" y="680" type="curve"/>
      <point x="263" y="690" type="line"/>
      <point x="258" y="472"/>
      <point x="239" y="243"/>
      <point x="204" y="-5" type="curve"/>
      <point x="219" y="-9"/>
      <point x="236" y="-11"/>
    </contour>
  </outline>
</glyph>
<glyph name="W-medf" format="2">
	<unicode hex="16E43"/>
	<advance width="923"/>
	<outline>
		<contour>
			<point x="236" y="-11" type="curve" smooth="yes"/>
			<point x="393" y="-11"/>
			<point x="475" y="102"/>
			<point x="544" y="302" type="curve" smooth="yes"/>
			<point x="583" y="415" type="line" smooth="yes"/>
			<point x="644" y="591"/>
			<point x="671" y="642"/>
			<point x="715" y="642" type="curve"/>
			<point x="715" y="713" type="line"/>
			<point x="381" y="713" type="line" smooth="yes"/>
			<point x="166" y="713"/>
			<point x="25" y="618"/>
			<point x="25" y="463" type="curve" smooth="yes"/>
			<point x="25" y="339"/>
			<point x="114" y="266"/>
			<point x="235" y="266" type="curve" smooth="yes"/>
			<point x="334" y="266"/>
			<point x="398" y="318"/>
			<point x="398" y="389" type="curve" smooth="yes"/>
			<point x="398" y="425"/>
			<point x="382" y="455"/>
			<point x="329" y="474" type="curve"/>
			<point x="329" y="454" type="line"/>
			<point x="462" y="446"/>
			<point x="627" y="332"/>
			<point x="762" y="332" type="curve" smooth="yes"/>
			<point x="865" y="332"/>
			<point x="918" y="388"/>
			<point x="918" y="465" type="curve" smooth="yes"/>
			<point x="918" y="547"/>
			<point x="863" y="597"/>
			<point x="783" y="597" type="curve" smooth="yes"/>
			<point x="759" y="597"/>
			<point x="736" y="592"/>
			<point x="716" y="582" type="curve"/>
			<point x="739" y="516" type="line"/>
			<point x="746" y="519"/>
			<point x="758" y="523"/>
			<point x="773" y="523" type="curve" smooth="yes"/>
			<point x="803" y="523"/>
			<point x="833" y="508"/>
			<point x="833" y="465" type="curve" smooth="yes"/>
			<point x="833" y="428"/>
			<point x="810" y="402"/>
			<point x="762" y="402" type="curve" smooth="yes"/>
			<point x="642" y="402"/>
			<point x="489" y="521"/>
			<point x="253" y="521" type="curve"/>
			<point x="253" y="457" type="line"/>
			<point x="297" y="457"/>
			<point x="322" y="437"/>
			<point x="322" y="404" type="curve" smooth="yes"/>
			<point x="322" y="362"/>
			<point x="286" y="332"/>
			<point x="231" y="332" type="curve" smooth="yes"/>
			<point x="164" y="332"/>
			<point x="107" y="373"/>
			<point x="107" y="464" type="curve" smooth="yes"/>
			<point x="107" y="577"/>
			<point x="209" y="642"/>
			<point x="381" y="642" type="curve" smooth="yes"/>
			<point x="656" y="642" type="line"/>
			<point x="648" y="660" type="line"/>
			<point x="593" y="647"/>
			<point x="573" y="617"/>
			<point x="514" y="445" type="curve" smooth="yes"/>
			<point x="475" y="332" type="line" smooth="yes"/>
			<point x="409" y="140"/>
			<point x="331" y="55"/>
			<point x="236" y="55" type="curve" smooth="yes"/>
			<point x="200" y="55"/>
			<point x="180" y="72"/>
			<point x="180" y="97" type="curve" smooth="yes"/>
			<point x="180" y="121"/>
			<point x="197" y="141"/>
			<point x="235" y="141" type="curve" smooth="yes"/>
			<point x="347" y="141"/>
			<point x="427" y="-11"/>
			<point x="629" y="-11" type="curve" smooth="yes"/>
			<point x="734" y="-11"/>
			<point x="805" y="39"/>
			<point x="805" y="130" type="curve" smooth="yes"/>
			<point x="805" y="166"/>
			<point x="794" y="201"/>
			<point x="781" y="221" type="curve"/>
			<point x="704" y="195" type="line"/>
			<point x="713" y="179"/>
			<point x="722" y="156"/>
			<point x="722" y="133" type="curve" smooth="yes"/>
			<point x="722" y="86"/>
			<point x="677" y="61"/>
			<point x="623" y="61" type="curve" smooth="yes"/>
			<point x="467" y="61"/>
			<point x="375" y="207"/>
			<point x="234" y="207" type="curve" smooth="yes"/>
			<point x="161" y="207"/>
			<point x="101" y="168"/>
			<point x="101" y="97" type="curve" smooth="yes"/>
			<point x="101" y="35"/>
			<point x="151" y="-11"/>
		</contour>
	</outline>
</glyph>
<glyph name="Atiu-medf" format="2">
	<unicode hex="16E44"/>
	<advance width="832"/>
	<outline>
		<contour>
			<point x="572" y="-11" type="curve" smooth="yes"/>
			<point x="706" y="-11"/>
			<point x="807" y="60"/>
			<point x="807" y="207" type="curve" smooth="yes"/>
			<point x="807" y="335"/>
			<point x="727" y="405"/>
			<point x="635" y="405" type="curve" smooth="yes"/>
			<point x="563" y="405"/>
			<point x="504" y="359"/>
			<point x="497" y="290" type="curve"/>
			<point x="531" y="304" type="line"/>
			<point x="508" y="386"/>
			<point x="440" y="409"/>
			<point x="246" y="409" type="curve" smooth="yes"/>
			<point x="141" y="409"/>
			<point x="63" y="396"/>
			<point x="5" y="377" type="curve"/>
			<point x="22" y="312" type="line"/>
			<point x="73" y="329"/>
			<point x="142" y="342"/>
			<point x="246" y="342" type="curve" smooth="yes"/>
			<point x="432" y="342"/>
			<point x="466" y="323"/>
			<point x="479" y="249" type="curve"/>
			<point x="544" y="252" type="line"/>
			<point x="547" y="299"/>
			<point x="577" y="331"/>
			<point x="624" y="331" type="curve" smooth="yes"/>
			<point x="685" y="331"/>
			<point x="720" y="287"/>
			<point x="720" y="208" type="curve" smooth="yes"/>
			<point x="720" y="119"/>
			<point x="668" y="63"/>
			<point x="571" y="63" type="curve" smooth="yes"/>
			<point x="461" y="63"/>
			<point x="384" y="110"/>
			<point x="273" y="110" type="curve" smooth="yes"/>
			<point x="224" y="110"/>
			<point x="175" y="98"/>
			<point x="147" y="83" type="curve"/>
			<point x="162" y="69" type="line"/>
			<point x="165" y="160"/>
			<point x="172" y="265"/>
			<point x="189" y="362" type="curve"/>
			<point x="186" y="379" type="line"/>
			<point x="204" y="475"/>
			<point x="231" y="561"/>
			<point x="272" y="612" type="curve"/>
			<point x="255" y="636" type="line"/>
			<point x="249" y="605"/>
			<point x="246" y="574"/>
			<point x="246" y="544" type="curve" smooth="yes"/>
			<point x="246" y="486"/>
			<point x="255" y="428"/>
			<point x="268" y="377" type="curve"/>
			<point x="268" y="360" type="line"/>
			<point x="283" y="307"/>
			<point x="298" y="261"/>
			<point x="316" y="214" type="curve"/>
			<point x="380" y="236" type="line"/>
			<point x="339" y="335"/>
			<point x="306" y="441"/>
			<point x="306" y="552" type="curve" smooth="yes"/>
			<point x="306" y="618"/>
			<point x="325" y="658"/>
			<point x="375" y="658" type="curve" smooth="yes"/>
			<point x="414" y="658"/>
			<point x="435" y="632"/>
			<point x="444" y="592" type="curve"/>
			<point x="518" y="602" type="line"/>
			<point x="502" y="681"/>
			<point x="453" y="724"/>
			<point x="371" y="724" type="curve" smooth="yes"/>
			<point x="162" y="724"/>
			<point x="108" y="392"/>
			<point x="83" y="54" type="curve"/>
			<point x="121" y="-6" type="line"/>
			<point x="167" y="20"/>
			<point x="208" y="36"/>
			<point x="273" y="36" type="curve" smooth="yes"/>
			<point x="378" y="36"/>
			<point x="450" y="-11"/>
		</contour>
	</outline>
</glyph>
<glyph name="Z-medf" format="2">
	<unicode hex="16E45"/>
	<advance width="716"/>
	<outline>
		<contour>
			<point x="229" y="-11" type="curve" smooth="yes"/>
			<point x="418" y="-11"/>
			<point x="509" y="95"/>
			<point x="560" y="307" type="curve" smooth="yes"/>
			<point x="588" y="423" type="line" smooth="yes"/>
			<point x="630" y="596"/>
			<point x="664" y="642"/>
			<point x="711" y="642" type="curve"/>
			<point x="711" y="713" type="line"/>
			<point x="322" y="713" type="line" smooth="yes"/>
			<point x="203" y="713"/>
			<point x="97" y="664"/>
			<point x="97" y="548" type="curve" smooth="yes"/>
			<point x="97" y="459"/>
			<point x="158" y="408"/>
			<point x="236" y="408" type="curve" smooth="yes"/>
			<point x="260" y="408"/>
			<point x="286" y="413"/>
			<point x="304" y="422" type="curve"/>
			<point x="281" y="492" type="line"/>
			<point x="268" y="487"/>
			<point x="256" y="484"/>
			<point x="243" y="484" type="curve" smooth="yes"/>
			<point x="207" y="484"/>
			<point x="182" y="507"/>
			<point x="182" y="550" type="curve" smooth="yes"/>
			<point x="182" y="612"/>
			<point x="234" y="642"/>
			<point x="322" y="642" type="curve" smooth="yes"/>
			<point x="652" y="642" type="line"/>
			<point x="644" y="660" type="line"/>
			<point x="589" y="647"/>
			<point x="554" y="614"/>
			<point x="511" y="436" type="curve" smooth="yes"/>
			<point x="483" y="320" type="line" smooth="yes"/>
			<point x="440" y="140"/>
			<point x="364" y="63"/>
			<point x="230" y="63" type="curve" smooth="yes"/>
			<point x="148" y="63"/>
			<point x="105" y="92"/>
			<point x="105" y="144" type="curve" smooth="yes"/>
			<point x="105" y="180"/>
			<point x="126" y="211"/>
			<point x="171" y="211" type="curve" smooth="yes"/>
			<point x="200" y="211"/>
			<point x="225" y="198"/>
			<point x="232" y="169" type="curve"/>
			<point x="317" y="182" type="line"/>
			<point x="307" y="245"/>
			<point x="250" y="287"/>
			<point x="172" y="287" type="curve" smooth="yes"/>
			<point x="85" y="287"/>
			<point x="20" y="232"/>
			<point x="20" y="143" type="curve" smooth="yes"/>
			<point x="20" y="57"/>
			<point x="88" y="-11"/>
		</contour>
		<contour>
			<point x="433" y="529" type="line"/>
			<point x="438" y="626"/>
			<point x="452" y="745"/>
			<point x="465" y="846" type="curve"/>
			<point x="388" y="846" type="line"/>
			<point x="375" y="743"/>
			<point x="361" y="627"/>
			<point x="356" y="529" type="curve"/>
		</contour>
	</outline>
</glyph>
<glyph name="KP-medf" format="2">
	<unicode hex="16E46"/>
	<advance width="743"/>
	<outline>
		<contour>
			<point x="380" y="407" type="line"/>
			<point x="381" y="552"/>
			<point x="393" y="693"/>
			<point x="407" y="846" type="curve"/>
			<point x="330" y="846" type="line"/>
			<point x="313" y="694"/>
			<point x="308" y="549"/>
			<point x="308" y="407" type="curve"/>
		</contour>
		<contour>
			<point x="361" y="-5" type="line"/>
			<point x="435" y="173"/>
			<point x="599" y="449"/>
			<point x="738" y="631" type="curve"/>
			<point x="731" y="710" type="line"/>
			<point x="622" y="716"/>
			<point x="459" y="721"/>
			<point x="302" y="721" type="curve" smooth="yes"/>
			<point x="196" y="721"/>
			<point x="93" y="719"/>
			<point x="11" y="713" type="curve"/>
			<point x="5" y="638" type="line"/>
			<point x="95" y="512"/>
			<point x="225" y="196"/>
			<point x="267" y="0" type="curve"/>
		</contour>
		<contour>
			<point x="331" y="42" type="line"/>
			<point x="301" y="230"/>
			<point x="166" y="548"/>
			<point x="83" y="670" type="curve"/>
			<point x="82" y="641" type="line"/>
			<point x="144" y="644"/>
			<point x="210" y="645"/>
			<point x="278" y="645" type="curve" smooth="yes"/>
			<point x="414" y="645"/>
			<point x="555" y="640"/>
			<point x="668" y="635" type="curve"/>
			<point x="659" y="663" type="line"/>
			<point x="534" y="500"/>
			<point x="362" y="201"/>
			<point x="304" y="55" type="curve"/>
		</contour>
	</outline>
</glyph>
<glyph name="P-medf" format="2">
  <advance width="920"/>
  <unicode hex="16E47"/>
  <outline>
    <contour>
      <point x="533" y="-11" type="curve" smooth="yes"/>
      <point x="695" y="-11"/>
      <point x="782" y="77"/>
      <point x="782" y="240" type="curve" smooth="yes"/>
      <point x="782" y="310"/>
      <point x="766" y="351"/>
      <point x="766" y="439" type="curve" smooth="yes"/>
      <point x="766" y="575"/>
      <point x="807" y="633"/>
      <point x="915" y="653" type="curve"/>
      <point x="915" y="724" type="line"/>
      <point x="900" y="724" type="line" smooth="yes"/>
      <point x="732" y="724"/>
      <point x="629" y="680"/>
      <point x="545" y="574" type="curve" smooth="yes"/>
      <point x="522" y="545" type="line" smooth="yes"/>
      <point x="418" y="414"/>
      <point x="370" y="381"/>
      <point x="283" y="381" type="curve" smooth="yes"/>
      <point x="231" y="381"/>
      <point x="189" y="406"/>
      <point x="169" y="448" type="curve"/>
      <point x="97" y="442" type="line"/>
      <point x="85" y="334"/>
      <point x="76" y="186"/>
      <point x="70" y="-2" type="curve"/>
      <point x="156" y="-4" type="line"/>
      <point x="162" y="199"/>
      <point x="168" y="319"/>
      <point x="175" y="375" type="curve"/>
      <point x="131" y="410" type="line"/>
      <point x="154" y="345"/>
      <point x="213" y="307"/>
      <point x="292" y="307" type="curve" smooth="yes"/>
      <point x="396" y="307"/>
      <point x="455" y="346"/>
      <point x="580" y="498" type="curve" smooth="yes"/>
      <point x="604" y="527" type="line" smooth="yes"/>
      <point x="689" y="630"/>
      <point x="748" y="655"/>
      <point x="900" y="655" type="curve"/>
      <point x="866" y="679" type="line"/>
      <point x="743" y="654"/>
      <point x="683" y="573"/>
      <point x="683" y="430" type="curve" smooth="yes"/>
      <point x="683" y="362"/>
      <point x="696" y="300"/>
      <point x="696" y="244" type="curve" smooth="yes"/>
      <point x="696" y="126"/>
      <point x="639" y="65"/>
      <point x="530" y="65" type="curve" smooth="yes"/>
      <point x="448" y="65"/>
      <point x="398" y="101"/>
      <point x="398" y="159" type="curve" smooth="yes"/>
      <point x="398" y="170"/>
      <point x="399" y="180"/>
      <point x="402" y="188" type="curve"/>
      <point x="319" y="203" type="line"/>
      <point x="314" y="188"/>
      <point x="312" y="172"/>
      <point x="312" y="154" type="curve" smooth="yes"/>
      <point x="312" y="52"/>
      <point x="397" y="-11"/>
    </contour>
  </outline>
</glyph>
<glyph name="T-medf" format="2">
	<unicode hex="16E48"/>
	<advance width="686"/>
	<outline>
		<contour>
			<point x="219" y="-265" type="line"/>
			<point x="310" y="-26"/>
			<point x="528" y="406"/>
			<point x="681" y="638" type="curve"/>
			<point x="670" y="710" type="line"/>
			<point x="548" y="716"/>
			<point x="411" y="720"/>
			<point x="281" y="720" type="curve" smooth="yes"/>
			<point x="182" y="720"/>
			<point x="87" y="718"/>
			<point x="7" y="713" type="curve"/>
			<point x="7" y="633" type="line"/>
			<point x="90" y="639"/>
			<point x="194" y="641"/>
			<point x="298" y="641" type="curve" smooth="yes"/>
			<point x="420" y="641"/>
			<point x="542" y="638"/>
			<point x="635" y="635" type="curve"/>
			<point x="599" y="659" type="line"/>
			<point x="463" y="445"/>
			<point x="246" y="9"/>
			<point x="176" y="-199" type="curve"/>
			<point x="197" y="-200" type="line"/>
			<point x="192" y="-28"/>
			<point x="180" y="190"/>
			<point x="168" y="353" type="curve"/>
			<point x="126" y="324" type="line"/>
			<point x="175" y="327"/>
			<point x="261" y="328"/>
			<point x="346" y="328" type="curve" smooth="yes"/>
			<point x="389" y="328"/>
			<point x="431" y="328"/>
			<point x="469" y="327" type="curve"/>
			<point x="476" y="402" type="line"/>
			<point x="442" y="403"/>
			<point x="395" y="404"/>
			<point x="345" y="404" type="curve" smooth="yes"/>
			<point x="253" y="404"/>
			<point x="148" y="402"/>
			<point x="82" y="398" type="curve"/>
			<point x="104" y="186"/>
			<point x="124" y="-48"/>
			<point x="137" y="-253" type="curve"/>
		</contour>
	</outline>
	<guideline y="-408"/>
</glyph>
<glyph name="G-medf" format="2">
	<unicode hex="16E49"/>
	<advance width="902"/>
	<outline>
		<contour>
			<point x="818" y="-265" type="curve"/>
			<point x="840" y="-171"/>
			<point x="857" y="-29"/>
			<point x="857" y="82" type="curve" smooth="yes"/>
			<point x="857" y="453"/>
			<point x="686" y="591"/>
			<point x="519" y="591" type="curve" smooth="yes"/>
			<point x="397" y="591"/>
			<point x="352" y="520"/>
			<point x="352" y="457" type="curve" smooth="yes"/>
			<point x="352" y="421"/>
			<point x="370" y="389"/>
			<point x="401" y="358" type="curve"/>
			<point x="461" y="406" type="line"/>
			<point x="444" y="425"/>
			<point x="436" y="439"/>
			<point x="436" y="456" type="curve" smooth="yes"/>
			<point x="436" y="487"/>
			<point x="465" y="517"/>
			<point x="518" y="517" type="curve" smooth="yes"/>
			<point x="671" y="517"/>
			<point x="771" y="354"/>
			<point x="771" y="82" type="curve" smooth="yes"/>
			<point x="771" y="-25"/>
			<point x="759" y="-148"/>
			<point x="746" y="-205" type="curve"/>
			<point x="810" y="-187" type="line"/>
			<point x="720" y="-173"/>
			<point x="657" y="-170"/>
			<point x="594" y="-170" type="curve" smooth="yes"/>
			<point x="563" y="-170"/>
			<point x="533" y="-170"/>
			<point x="499" y="-171" type="curve"/>
			<point x="555" y="-211" type="line"/>
			<point x="555" y="-162" type="line" smooth="yes"/>
			<point x="555" y="125"/>
			<point x="468" y="245"/>
			<point x="285" y="336" type="curve" smooth="yes"/>
			<point x="259" y="349" type="line" smooth="yes"/>
			<point x="146" y="405"/>
			<point x="91" y="440"/>
			<point x="91" y="523" type="curve" smooth="yes"/>
			<point x="91" y="613"/>
			<point x="165" y="648"/>
			<point x="236" y="648" type="curve" smooth="yes"/>
			<point x="280" y="648"/>
			<point x="316" y="636"/>
			<point x="346" y="621" type="curve"/>
			<point x="383" y="690" type="line"/>
			<point x="344" y="711"/>
			<point x="286" y="724"/>
			<point x="236" y="724" type="curve" smooth="yes"/>
			<point x="102" y="724"/>
			<point x="5" y="646"/>
			<point x="5" y="523" type="curve" smooth="yes"/>
			<point x="5" y="417"/>
			<point x="58" y="358"/>
			<point x="219" y="279" type="curve" smooth="yes"/>
			<point x="245" y="266" type="line" smooth="yes"/>
			<point x="412" y="183"/>
			<point x="471" y="77"/>
			<point x="471" y="-164" type="curve" smooth="yes"/>
			<point x="471" y="-252" type="line"/>
			<point x="505" y="-249"/>
			<point x="541" y="-248"/>
			<point x="577" y="-248" type="curve" smooth="yes"/>
			<point x="664" y="-248"/>
			<point x="753" y="-255"/>
		</contour>
	</outline>
</glyph>
<glyph name="F-medf" format="2">
  <advance width="672"/>
  <unicode hex="16E4A"/>
  <outline>
    <contour>
      <point x="344" y="-11" type="curve" smooth="yes"/>
      <point x="531" y="-11"/>
      <point x="642" y="73"/>
      <point x="642" y="206" type="curve" smooth="yes"/>
      <point x="642" y="311"/>
      <point x="563" y="368"/>
      <point x="429" y="385" type="curve" smooth="yes"/>
      <point x="304" y="401" type="line" smooth="yes"/>
      <point x="210" y="413"/>
      <point x="168" y="454"/>
      <point x="168" y="512" type="curve" smooth="yes"/>
      <point x="168" y="593"/>
      <point x="239" y="651"/>
      <point x="373" y="651" type="curve" smooth="yes"/>
      <point x="502" y="651"/>
      <point x="547" y="593"/>
      <point x="539" y="549" type="curve"/>
      <point x="626" y="543" type="line"/>
      <point x="643" y="625"/>
      <point x="574" y="724"/>
      <point x="373" y="724" type="curve" smooth="yes"/>
      <point x="193" y="724"/>
      <point x="82" y="634"/>
      <point x="82" y="511" type="curve" smooth="yes"/>
      <point x="82" y="399"/>
      <point x="188" y="344"/>
      <point x="304" y="329" type="curve" smooth="yes"/>
      <point x="429" y="313" type="line" smooth="yes"/>
      <point x="524" y="301"/>
      <point x="556" y="262"/>
      <point x="556" y="206" type="curve" smooth="yes"/>
      <point x="556" y="119"/>
      <point x="486" y="62"/>
      <point x="344" y="62" type="curve" smooth="yes"/>
      <point x="223" y="62"/>
      <point x="156" y="98"/>
      <point x="130" y="170" type="curve"/>
      <point x="51" y="141" type="line"/>
      <point x="76" y="46"/>
      <point x="183" y="-11"/>
    </contour>
    <contour>
      <point x="327" y="217" type="line"/>
      <point x="329" y="250"/>
      <point x="330" y="319"/>
      <point x="330" y="352" type="curve" smooth="yes"/>
      <point x="330" y="408"/>
      <point x="330" y="429"/>
      <point x="327" y="486" type="curve"/>
      <point x="273" y="486" type="line"/>
      <point x="276" y="429"/>
      <point x="276" y="409"/>
      <point x="276" y="353" type="curve" smooth="yes"/>
      <point x="276" y="319"/>
      <point x="275" y="250"/>
      <point x="273" y="217" type="curve"/>
    </contour>
    <contour>
      <point x="447" y="233" type="line"/>
      <point x="449" y="266"/>
      <point x="450" y="325"/>
      <point x="450" y="358" type="curve" smooth="yes"/>
      <point x="450" y="414"/>
      <point x="450" y="425"/>
      <point x="447" y="482" type="curve"/>
      <point x="393" y="482" type="line"/>
      <point x="396" y="425"/>
      <point x="396" y="415"/>
      <point x="396" y="359" type="curve" smooth="yes"/>
      <point x="396" y="325"/>
      <point x="395" y="266"/>
      <point x="393" y="233" type="curve"/>
    </contour>
  </outline>
</glyph>
<glyph name="I-medf" format="2">
	<unicode hex="16E4B"/>
	<advance width="582"/>
	<outline>
		<contour>
			<point x="330" y="527" type="line"/>
			<point x="332" y="581"/>
			<point x="333" y="645"/>
			<point x="333" y="704" type="curve" smooth="yes"/>
			<point x="333" y="756"/>
			<point x="332" y="801"/>
			<point x="330" y="846" type="curve"/>
			<point x="259" y="846" type="line"/>
			<point x="261" y="801"/>
			<point x="262" y="756"/>
			<point x="262" y="704" type="curve" smooth="yes"/>
			<point x="262" y="643"/>
			<point x="261" y="578"/>
			<point x="259" y="527" type="curve"/>
		</contour>
		<contour>
			<point x="280" y="-11" type="curve" smooth="yes"/>
			<point x="393" y="-11"/>
			<point x="469" y="52"/>
			<point x="469" y="146" type="curve" smooth="yes"/>
			<point x="469" y="229"/>
			<point x="418" y="288"/>
			<point x="277" y="367" type="curve" smooth="yes"/>
			<point x="252" y="381" type="line" smooth="yes"/>
			<point x="149" y="439"/>
			<point x="117" y="473"/>
			<point x="117" y="526" type="curve" smooth="yes"/>
			<point x="117" y="604"/>
			<point x="192" y="654"/>
			<point x="311" y="654" type="curve" smooth="yes"/>
			<point x="413" y="654"/>
			<point x="474" y="618"/>
			<point x="474" y="559" type="curve" smooth="yes"/>
			<point x="474" y="532"/>
			<point x="460" y="504"/>
			<point x="435" y="481" type="curve"/>
			<point x="493" y="434" type="line"/>
			<point x="531" y="465"/>
			<point x="557" y="517"/>
			<point x="557" y="564" type="curve" smooth="yes"/>
			<point x="557" y="660"/>
			<point x="462" y="724"/>
			<point x="317" y="724" type="curve" smooth="yes"/>
			<point x="151" y="724"/>
			<point x="35" y="643"/>
			<point x="35" y="527" type="curve" smooth="yes"/>
			<point x="35" y="447"/>
			<point x="91" y="381"/>
			<point x="215" y="314" type="curve" smooth="yes"/>
			<point x="239" y="301" type="line" smooth="yes"/>
			<point x="342" y="245"/>
			<point x="386" y="199"/>
			<point x="386" y="148" type="curve" smooth="yes"/>
			<point x="386" y="96"/>
			<point x="343" y="61"/>
			<point x="280" y="61" type="curve" smooth="yes"/>
			<point x="223" y="61"/>
			<point x="186" y="90"/>
			<point x="186" y="134" type="curve" smooth="yes"/>
			<point x="186" y="143"/>
			<point x="188" y="153"/>
			<point x="191" y="161" type="curve"/>
			<point x="116" y="189" type="line"/>
			<point x="107" y="170"/>
			<point x="102" y="148"/>
			<point x="102" y="127" type="curve" smooth="yes"/>
			<point x="102" y="46"/>
			<point x="176" y="-11"/>
		</contour>
	</outline>
</glyph>
<glyph name="K-medf" format="2">
	<unicode hex="16E4C"/>
	<advance width="826"/>
	<outline>
		<contour>
			<point x="484" y="652" type="curve" smooth="yes"/>
			<point x="584" y="652"/>
			<point x="694" y="636"/>
			<point x="760" y="619" type="curve"/>
			<point x="754" y="638" type="line"/>
			<point x="680" y="638"/>
			<point x="652" y="579"/>
			<point x="616" y="461" type="curve" smooth="yes"/>
			<point x="606" y="428" type="line" smooth="yes"/>
			<point x="551" y="248"/>
			<point x="468" y="52"/>
			<point x="254" y="52" type="curve"/>
			<point x="282" y="35"/>
			<point x="334" y="35"/>
			<point x="385" y="54" type="curve"/>
			<point x="447" y="110"/>
			<point x="480" y="160"/>
			<point x="480" y="241" type="curve" smooth="yes"/>
			<point x="480" y="359"/>
			<point x="386" y="437"/>
			<point x="255" y="437" type="curve" smooth="yes"/>
			<point x="162" y="437"/>
			<point x="94" y="396"/>
			<point x="79" y="329" type="curve"/>
			<point x="108" y="356" type="line"/>
			<point x="108" y="545"/>
			<point x="233" y="652"/>
		</contour>
		<contour>
			<point x="240" y="63" type="curve" smooth="yes"/>
			<point x="157" y="63"/>
			<point x="119" y="100"/>
			<point x="111" y="145" type="curve"/>
			<point x="25" y="138" type="line"/>
			<point x="25" y="57"/>
			<point x="108" y="-11"/>
			<point x="241" y="-11" type="curve" smooth="yes"/>
			<point x="501" y="-11"/>
			<point x="622" y="186"/>
			<point x="690" y="410" type="curve" smooth="yes"/>
			<point x="700" y="443" type="line" smooth="yes"/>
			<point x="732" y="550"/>
			<point x="760" y="609"/>
			<point x="810" y="609" type="curve"/>
			<point x="821" y="678" type="line"/>
			<point x="757" y="700"/>
			<point x="611" y="724"/>
			<point x="484" y="724" type="curve" smooth="yes"/>
			<point x="184" y="724"/>
			<point x="22" y="597"/>
			<point x="30" y="295" type="curve"/>
			<point x="103" y="290" type="line"/>
			<point x="117" y="334"/>
			<point x="168" y="367"/>
			<point x="243" y="367" type="curve" smooth="yes"/>
			<point x="342" y="367"/>
			<point x="402" y="311"/>
			<point x="402" y="217" type="curve" smooth="yes"/>
			<point x="402" y="126"/>
			<point x="355" y="63"/>
		</contour>
	</outline>
</glyph>
<glyph name="A-medf" format="2">
  <advance width="883"/>
  <unicode hex="16E4D"/>
  <outline>
    <contour>
      <point x="173" y="-11" type="curve" smooth="yes"/>
      <point x="289" y="-11"/>
      <point x="358" y="73"/>
      <point x="358" y="222" type="curve" smooth="yes"/>
      <point x="358" y="434"/>
      <point x="226" y="639"/>
      <point x="44" y="725" type="curve"/>
      <point x="5" y="660" type="line"/>
      <point x="174" y="568"/>
      <point x="279" y="416"/>
      <point x="279" y="222" type="curve" smooth="yes"/>
      <point x="279" y="122"/>
      <point x="236" y="64"/>
      <point x="170" y="64" type="curve" smooth="yes"/>
      <point x="144" y="64"/>
      <point x="125" y="72"/>
      <point x="110" y="86" type="curve"/>
      <point x="62" y="31" type="line"/>
      <point x="83" y="3"/>
      <point x="123" y="-11"/>
    </contour>
    <contour>
      <point x="500" y="-11" type="curve" smooth="yes"/>
      <point x="618" y="-11"/>
      <point x="675" y="82"/>
      <point x="730" y="297" type="curve" smooth="yes"/>
      <point x="751" y="379" type="line" smooth="yes"/>
      <point x="797" y="560"/>
      <point x="820" y="625"/>
      <point x="868" y="668" type="curve"/>
      <point x="820" y="725" type="line"/>
      <point x="744" y="678"/>
      <point x="656" y="643"/>
      <point x="572" y="643" type="curve" smooth="yes"/>
      <point x="522" y="643"/>
      <point x="494" y="667"/>
      <point x="494" y="715" type="curve"/>
      <point x="428" y="725" type="line"/>
      <point x="327" y="568"/>
      <point x="205" y="485"/>
      <point x="9" y="465" type="curve"/>
      <point x="9" y="392" type="line"/>
      <point x="234" y="409"/>
      <point x="411" y="539"/>
      <point x="477" y="677" type="curve"/>
      <point x="449" y="655" type="line"/>
      <point x="449" y="608"/>
      <point x="491" y="574"/>
      <point x="572" y="574" type="curve" smooth="yes"/>
      <point x="658" y="574"/>
      <point x="764" y="610"/>
      <point x="813" y="661" type="curve"/>
      <point x="802" y="661" type="line"/>
      <point x="739" y="633"/>
      <point x="719" y="572"/>
      <point x="673" y="394" type="curve" smooth="yes"/>
      <point x="652" y="312" type="line" smooth="yes"/>
      <point x="615" y="168"/>
      <point x="581" y="65"/>
      <point x="501" y="65" type="curve" smooth="yes"/>
      <point x="472" y="65"/>
      <point x="453" y="75"/>
      <point x="440" y="86" type="curve"/>
      <point x="392" y="28" type="line"/>
      <point x="416" y="3"/>
      <point x="456" y="-11"/>
    </contour>
  </outline>
</glyph>
<glyph name="J-medf" format="2">
  <advance width="714"/>
  <unicode hex="16E4E"/>
  <outline>
    <contour>
      <point x="173" y="-11" type="curve" smooth="yes"/>
      <point x="272" y="-11"/>
      <point x="324" y="34"/>
      <point x="401" y="34" type="curve" smooth="yes"/>
      <point x="441" y="34"/>
      <point x="498" y="15"/>
      <point x="532" y="-11" type="curve"/>
      <point x="588" y="29" type="line"/>
      <point x="538" y="205"/>
      <point x="504" y="372"/>
      <point x="504" y="525" type="curve" smooth="yes"/>
      <point x="504" y="590"/>
      <point x="509" y="654"/>
      <point x="521" y="713" type="curve"/>
      <point x="454" y="724" type="line"/>
      <point x="425" y="549"/>
      <point x="325" y="437"/>
      <point x="205" y="372" type="curve"/>
      <point x="217" y="316" type="line"/>
      <point x="295" y="299"/>
      <point x="415" y="245"/>
      <point x="484" y="203" type="curve"/>
      <point x="495" y="270" type="line"/>
      <point x="437" y="306"/>
      <point x="329" y="349"/>
      <point x="263" y="370" type="curve"/>
      <point x="271" y="343" type="line"/>
      <point x="310" y="359"/>
      <point x="441" y="464"/>
      <point x="465" y="573" type="curve"/>
      <point x="431" y="548" type="line"/>
      <point x="435" y="375"/>
      <point x="461" y="182"/>
      <point x="512" y="39" type="curve"/>
      <point x="533" y="42" type="line"/>
      <point x="507" y="81"/>
      <point x="457" y="106"/>
      <point x="396" y="106" type="curve" smooth="yes"/>
      <point x="320" y="106"/>
      <point x="260" y="61"/>
      <point x="181" y="61" type="curve" smooth="yes"/>
      <point x="121" y="61"/>
      <point x="92" y="89"/>
      <point x="92" y="128" type="curve" smooth="yes"/>
      <point x="92" y="165"/>
      <point x="121" y="182"/>
      <point x="155" y="182" type="curve" smooth="yes"/>
      <point x="170" y="182"/>
      <point x="183" y="178"/>
      <point x="190" y="175" type="curve"/>
      <point x="212" y="239" type="line"/>
      <point x="192" y="249"/>
      <point x="169" y="254"/>
      <point x="145" y="254" type="curve" smooth="yes"/>
      <point x="67" y="254"/>
      <point x="10" y="203"/>
      <point x="10" y="125" type="curve" smooth="yes"/>
      <point x="10" y="48"/>
      <point x="75" y="-11"/>
    </contour>
    <contour>
      <point x="709" y="442" type="line"/>
      <point x="563" y="538"/>
      <point x="382" y="624"/>
      <point x="255" y="670" type="curve"/>
      <point x="228" y="610" type="line"/>
      <point x="358" y="567"/>
      <point x="543" y="473"/>
      <point x="673" y="386" type="curve"/>
    </contour>
  </outline>
</glyph>
<glyph name="E-medf" format="2">
	<unicode hex="16E4F"/>
	<advance width="715"/>
	<outline>
		<contour>
			<point x="415" y="-11" type="curve" smooth="yes"/>
			<point x="598" y="-11"/>
			<point x="679" y="63"/>
			<point x="679" y="168" type="curve" smooth="yes"/>
			<point x="679" y="242"/>
			<point x="633" y="289"/>
			<point x="579" y="311" type="curve"/>
			<point x="540" y="242" type="line"/>
			<point x="572" y="225"/>
			<point x="596" y="206"/>
			<point x="596" y="168" type="curve" smooth="yes"/>
			<point x="596" y="107"/>
			<point x="547" y="61"/>
			<point x="415" y="61" type="curve" smooth="yes"/>
			<point x="282" y="61"/>
			<point x="200" y="115"/>
			<point x="200" y="226" type="curve" smooth="yes"/>
			<point x="200" y="315"/>
			<point x="237" y="397"/>
			<point x="237" y="476" type="curve" smooth="yes"/>
			<point x="237" y="569"/>
			<point x="211" y="608"/>
			<point x="138" y="664" type="curve"/>
			<point x="111" y="660" type="line"/>
			<point x="134" y="632"/>
			<point x="183" y="607"/>
			<point x="231" y="607" type="curve" smooth="yes"/>
			<point x="317" y="607"/>
			<point x="402" y="652"/>
			<point x="503" y="652" type="curve" smooth="yes"/>
			<point x="564" y="652"/>
			<point x="597" y="617"/>
			<point x="597" y="557" type="curve"/>
			<point x="685" y="557" type="line"/>
			<point x="685" y="641"/>
			<point x="648" y="724"/>
			<point x="503" y="724" type="curve" smooth="yes"/>
			<point x="387" y="724"/>
			<point x="300" y="677"/>
			<point x="220" y="677" type="curve" smooth="yes"/>
			<point x="168" y="677"/>
			<point x="144" y="689"/>
			<point x="109" y="722" type="curve"/>
			<point x="62" y="668" type="line"/>
			<point x="134" y="606"/>
			<point x="159" y="550"/>
			<point x="159" y="476" type="curve" smooth="yes"/>
			<point x="159" y="391"/>
			<point x="120" y="325"/>
			<point x="120" y="226" type="curve" smooth="yes"/>
			<point x="120" y="83"/>
			<point x="215" y="-11"/>
		</contour>
		<contour>
			<point x="441" y="277" type="line"/>
			<point x="441" y="335"/>
			<point x="452" y="377"/>
			<point x="498" y="413" type="curve"/>
			<point x="449" y="464" type="line"/>
			<point x="395" y="432"/>
			<point x="373" y="363"/>
			<point x="390" y="302" type="curve"/>
			<point x="412" y="323" type="line"/>
			<point x="393" y="395"/>
			<point x="306" y="413"/>
			<point x="182" y="413" type="curve" smooth="yes"/>
			<point x="102" y="413"/>
			<point x="50" y="406"/>
			<point x="10" y="395" type="curve"/>
			<point x="24" y="329" type="line"/>
			<point x="68" y="339"/>
			<point x="108" y="345"/>
			<point x="182" y="345" type="curve" smooth="yes"/>
			<point x="303" y="345"/>
			<point x="368" y="327"/>
			<point x="389" y="272" type="curve"/>
		</contour>
	</outline>
</glyph>
<glyph name="B-medf" format="2">
  <advance width="836"/>
  <unicode hex="16E50"/>
  <outline>
    <contour>
      <point x="568" y="-11" type="curve" smooth="yes"/>
      <point x="671" y="-11"/>
      <point x="764" y="35"/>
      <point x="764" y="199" type="curve" smooth="yes"/>
      <point x="764" y="265"/>
      <point x="739" y="356"/>
      <point x="739" y="414" type="curve" smooth="yes"/>
      <point x="739" y="477"/>
      <point x="754" y="530"/>
      <point x="791" y="573" type="curve"/>
      <point x="744" y="629" type="line"/>
      <point x="716" y="609"/>
      <point x="667" y="595"/>
      <point x="624" y="595" type="curve" smooth="yes"/>
      <point x="577" y="595"/>
      <point x="549" y="608"/>
      <point x="525" y="628" type="curve"/>
      <point x="462" y="625" type="line"/>
      <point x="415" y="529"/>
      <point x="326" y="474"/>
      <point x="193" y="474" type="curve" smooth="yes"/>
      <point x="152" y="474"/>
      <point x="118" y="478"/>
      <point x="83" y="485" type="curve"/>
      <point x="32" y="441" type="line"/>
      <point x="91" y="322"/>
      <point x="131" y="174"/>
      <point x="156" y="5" type="curve"/>
      <point x="227" y="-5" type="line"/>
      <point x="290" y="132"/>
      <point x="357" y="319"/>
      <point x="357" y="479" type="curve" smooth="yes"/>
      <point x="357" y="668"/>
      <point x="263" y="724"/>
      <point x="175" y="724" type="curve" smooth="yes"/>
      <point x="103" y="724"/>
      <point x="40" y="686"/>
      <point x="5" y="619" type="curve"/>
      <point x="67" y="588" type="line"/>
      <point x="92" y="628"/>
      <point x="126" y="652"/>
      <point x="175" y="652" type="curve" smooth="yes"/>
      <point x="236" y="652"/>
      <point x="283" y="616"/>
      <point x="283" y="479" type="curve" smooth="yes"/>
      <point x="283" y="327"/>
      <point x="224" y="154"/>
      <point x="195" y="75" type="curve"/>
      <point x="204" y="75" type="line"/>
      <point x="195" y="185"/>
      <point x="151" y="348"/>
      <point x="106" y="444" type="curve"/>
      <point x="84" y="421" type="line"/>
      <point x="114" y="414"/>
      <point x="160" y="410"/>
      <point x="193" y="410" type="curve" smooth="yes"/>
      <point x="331" y="410"/>
      <point x="444" y="458"/>
      <point x="527" y="588" type="curve"/>
      <point x="479" y="578" type="line"/>
      <point x="501" y="550"/>
      <point x="547" y="522"/>
      <point x="620" y="522" type="curve" smooth="yes"/>
      <point x="669" y="522"/>
      <point x="716" y="538"/>
      <point x="744" y="579" type="curve"/>
      <point x="734" y="590" type="line"/>
      <point x="686" y="540"/>
      <point x="660" y="492"/>
      <point x="660" y="412" type="curve" smooth="yes"/>
      <point x="660" y="353"/>
      <point x="686" y="262"/>
      <point x="686" y="199" type="curve" smooth="yes"/>
      <point x="686" y="89"/>
      <point x="626" y="62"/>
      <point x="568" y="62" type="curve" smooth="yes"/>
      <point x="521" y="62"/>
      <point x="483" y="79"/>
      <point x="460" y="121" type="curve"/>
      <point x="390" y="88" type="line"/>
      <point x="419" y="20"/>
      <point x="487" y="-11"/>
    </contour>
  </outline>
</glyph>
<glyph name="C-medf" format="2">
	<unicode hex="16E51"/>
	<advance width="590"/>
	<outline>
		<contour>
			<point x="263" y="-11" type="curve" smooth="yes"/>
			<point x="424" y="-11"/>
			<point x="507" y="69"/>
			<point x="507" y="169" type="curve" smooth="yes"/>
			<point x="507" y="274"/>
			<point x="425" y="318"/>
			<point x="343" y="318" type="curve" smooth="yes"/>
			<point x="288" y="318"/>
			<point x="253" y="296"/>
			<point x="240" y="282" type="curve"/>
			<point x="283" y="265" type="line"/>
			<point x="353" y="431"/>
			<point x="394" y="531"/>
			<point x="463" y="690" type="curve"/>
			<point x="381" y="725" type="line"/>
			<point x="287" y="644"/>
			<point x="101" y="469"/>
			<point x="15" y="384" type="curve"/>
			<point x="37" y="314" type="line"/>
			<point x="118" y="334"/>
			<point x="249" y="349"/>
			<point x="392" y="349" type="curve" smooth="yes"/>
			<point x="444" y="349"/>
			<point x="502" y="347"/>
			<point x="555" y="342" type="curve"/>
			<point x="555" y="405" type="line"/>
			<point x="502" y="411"/>
			<point x="444" y="413"/>
			<point x="395" y="413" type="curve" smooth="yes"/>
			<point x="244" y="413"/>
			<point x="116" y="395"/>
			<point x="42" y="379" type="curve"/>
			<point x="84" y="362" type="line"/>
			<point x="151" y="432"/>
			<point x="325" y="599"/>
			<point x="406" y="675" type="curve"/>
			<point x="387" y="679" type="line"/>
			<point x="336" y="574"/>
			<point x="279" y="448"/>
			<point x="195" y="256" type="curve"/>
			<point x="236" y="228" type="line"/>
			<point x="255" y="243"/>
			<point x="290" y="254"/>
			<point x="324" y="254" type="curve" smooth="yes"/>
			<point x="382" y="254"/>
			<point x="421" y="224"/>
			<point x="421" y="169" type="curve" smooth="yes"/>
			<point x="421" y="110"/>
			<point x="370" y="63"/>
			<point x="263" y="63" type="curve" smooth="yes"/>
			<point x="177" y="63"/>
			<point x="125" y="93"/>
			<point x="98" y="147" type="curve"/>
			<point x="17" y="119" type="line"/>
			<point x="43" y="53"/>
			<point x="121" y="-11"/>
		</contour>
	</outline>
</glyph>
<glyph name="U-medf" format="2">
  <advance width="858"/>
  <unicode hex="16E52"/>
  <outline>
    <contour>
      <point x="224" y="-11" type="curve" smooth="yes"/>
      <point x="439" y="-11"/>
      <point x="475" y="187"/>
      <point x="491" y="365" type="curve" smooth="yes"/>
      <point x="504" y="507"/>
      <point x="538" y="650"/>
      <point x="661" y="650" type="curve" smooth="yes"/>
      <point x="728" y="650"/>
      <point x="772" y="608"/>
      <point x="772" y="542" type="curve" smooth="yes"/>
      <point x="772" y="518"/>
      <point x="766" y="495"/>
      <point x="753" y="473" type="curve"/>
      <point x="826" y="438" type="line"/>
      <point x="845" y="466"/>
      <point x="858" y="497"/>
      <point x="858" y="539" type="curve" smooth="yes"/>
      <point x="858" y="647"/>
      <point x="782" y="724"/>
      <point x="663" y="724" type="curve" smooth="yes"/>
      <point x="540" y="724"/>
      <point x="447" y="617"/>
      <point x="447" y="474" type="curve"/>
      <point x="461" y="474" type="line"/>
      <point x="456" y="614"/>
      <point x="359" y="724"/>
      <point x="226" y="724" type="curve" smooth="yes"/>
      <point x="113" y="724"/>
      <point x="38" y="645"/>
      <point x="38" y="539" type="curve" smooth="yes"/>
      <point x="38" y="514"/>
      <point x="42" y="498"/>
      <point x="47" y="485" type="curve"/>
      <point x="129" y="503" type="line"/>
      <point x="126" y="514"/>
      <point x="125" y="524"/>
      <point x="125" y="535" type="curve" smooth="yes"/>
      <point x="125" y="610"/>
      <point x="174" y="650"/>
      <point x="232" y="650" type="curve" smooth="yes"/>
      <point x="325" y="650"/>
      <point x="407" y="569"/>
      <point x="407" y="370" type="curve" smooth="yes"/>
      <point x="407" y="198"/>
      <point x="355" y="65"/>
      <point x="224" y="65" type="curve" smooth="yes"/>
      <point x="165" y="65"/>
      <point x="113" y="97"/>
      <point x="113" y="177" type="curve" smooth="yes"/>
      <point x="113" y="188"/>
      <point x="114" y="199"/>
      <point x="117" y="210" type="curve"/>
      <point x="34" y="228" type="line"/>
      <point x="29" y="215"/>
      <point x="25" y="196"/>
      <point x="25" y="172" type="curve" smooth="yes"/>
      <point x="25" y="60"/>
      <point x="104" y="-11"/>
    </contour>
    <contour>
      <point x="325" y="231" type="curve" smooth="yes"/>
      <point x="365" y="231"/>
      <point x="398" y="245"/>
      <point x="419" y="263" type="curve"/>
      <point x="419" y="316" type="line"/>
      <point x="401" y="300"/>
      <point x="369" y="288"/>
      <point x="333" y="288" type="curve" smooth="yes"/>
      <point x="287" y="288"/>
      <point x="258" y="316"/>
      <point x="258" y="352" type="curve" smooth="yes"/>
      <point x="258" y="388"/>
      <point x="287" y="416"/>
      <point x="333" y="416" type="curve" smooth="yes"/>
      <point x="369" y="416"/>
      <point x="401" y="404"/>
      <point x="419" y="388" type="curve"/>
      <point x="421" y="441" type="line"/>
      <point x="400" y="460"/>
      <point x="367" y="473"/>
      <point x="320" y="473" type="curve" smooth="yes"/>
      <point x="238" y="473"/>
      <point x="189" y="419"/>
      <point x="189" y="352" type="curve" smooth="yes"/>
      <point x="189" y="285"/>
      <point x="238" y="231"/>
    </contour>
  </outline>
</glyph>
<glyph name="L-medf" format="2">
  <advance width="806"/>
  <unicode hex="16E54"/>
  <outline>
    <contour>
      <point x="607" y="-11" type="curve" smooth="yes"/>
      <point x="725" y="-11"/>
      <point x="791" y="39"/>
      <point x="791" y="129" type="curve" smooth="yes"/>
      <point x="791" y="164"/>
      <point x="781" y="198"/>
      <point x="763" y="225" type="curve"/>
      <point x="690" y="192" type="line"/>
      <point x="701" y="172"/>
      <point x="708" y="150"/>
      <point x="708" y="132" type="curve" smooth="yes"/>
      <point x="708" y="88"/>
      <point x="669" y="61"/>
      <point x="606" y="61" type="curve" smooth="yes"/>
      <point x="475" y="61"/>
      <point x="378" y="117"/>
      <point x="262" y="117" type="curve" smooth="yes"/>
      <point x="197" y="117"/>
      <point x="138" y="88"/>
      <point x="121" y="48" type="curve"/>
      <point x="145" y="36" type="line"/>
      <point x="198" y="220"/>
      <point x="243" y="465"/>
      <point x="265" y="682" type="curve"/>
      <point x="251" y="680" type="line"/>
      <point x="294" y="548"/>
      <point x="327" y="403"/>
      <point x="341" y="274" type="curve"/>
      <point x="357" y="306" type="line"/>
      <point x="311" y="294"/>
      <point x="243" y="271"/>
      <point x="163" y="243" type="curve"/>
      <point x="159" y="172" type="line"/>
      <point x="225" y="195"/>
      <point x="357" y="236"/>
      <point x="418" y="252" type="curve"/>
      <point x="397" y="414"/>
      <point x="356" y="584"/>
      <point x="306" y="718" type="curve"/>
      <point x="218" y="713" type="line"/>
      <point x="186" y="518"/>
      <point x="130" y="262"/>
      <point x="66" y="23" type="curve"/>
      <point x="130" y="-11" type="line"/>
      <point x="159" y="27"/>
      <point x="196" y="43"/>
      <point x="257" y="43" type="curve" smooth="yes"/>
      <point x="362" y="43"/>
      <point x="456" y="-11"/>
    </contour>
    <contour>
      <point x="554" y="402" type="line"/>
      <point x="443" y="434"/>
      <point x="397" y="447"/>
      <point x="353" y="458" type="curve"/>
      <point x="333" y="460" type="line"/>
      <point x="217" y="490" type="line"/>
      <point x="197" y="498" type="line"/>
      <point x="101" y="521"/>
      <point x="56" y="531"/>
      <point x="19" y="539" type="curve"/>
      <point x="5" y="479" type="line"/>
      <point x="146" y="447"/>
      <point x="144" y="447"/>
      <point x="184" y="437" type="curve"/>
      <point x="210" y="435" type="line"/>
      <point x="347" y="400" type="line"/>
      <point x="364" y="392" type="line"/>
      <point x="411" y="380"/>
      <point x="479" y="360"/>
      <point x="533" y="343" type="curve"/>
    </contour>
  </outline>
</glyph>
<glyph name="Q-medf" format="2">
	<unicode hex="16E55"/>
	<advance width="703"/>
	<outline>
		<contour>
			<point x="285" y="-11" type="curve" smooth="yes"/>
			<point x="472" y="-11"/>
			<point x="567" y="83"/>
			<point x="587" y="290" type="curve" smooth="yes"/>
			<point x="603" y="448" type="line" smooth="yes"/>
			<point x="615" y="563"/>
			<point x="634" y="598"/>
			<point x="693" y="656" type="curve"/>
			<point x="651" y="724" type="line"/>
			<point x="582" y="704"/>
			<point x="502" y="702"/>
			<point x="366" y="702" type="curve" smooth="yes"/>
			<point x="273" y="702"/>
			<point x="205" y="708"/>
			<point x="134" y="722" type="curve"/>
			<point x="84" y="685" type="line"/>
			<point x="84" y="550"/>
			<point x="76" y="379"/>
			<point x="65" y="300" type="curve"/>
			<point x="112" y="264" type="line"/>
			<point x="144" y="268"/>
			<point x="184" y="270"/>
			<point x="231" y="270" type="curve" smooth="yes"/>
			<point x="265" y="270"/>
			<point x="302" y="269"/>
			<point x="343" y="267" type="curve"/>
			<point x="343" y="338" type="line"/>
			<point x="317" y="341"/>
			<point x="281" y="342"/>
			<point x="235" y="342" type="curve" smooth="yes"/>
			<point x="186" y="342"/>
			<point x="141" y="340"/>
			<point x="115" y="336" type="curve"/>
			<point x="143" y="311" type="line"/>
			<point x="154" y="383"/>
			<point x="161" y="530"/>
			<point x="161" y="679" type="curve"/>
			<point x="124" y="655" type="line"/>
			<point x="173" y="639"/>
			<point x="275" y="628"/>
			<point x="366" y="628" type="curve" smooth="yes"/>
			<point x="545" y="628"/>
			<point x="598" y="634"/>
			<point x="655" y="658" type="curve"/>
			<point x="647" y="677" type="line"/>
			<point x="567" y="644"/>
			<point x="534" y="577"/>
			<point x="522" y="456" type="curve" smooth="yes"/>
			<point x="506" y="295" type="line" smooth="yes"/>
			<point x="491" y="138"/>
			<point x="422" y="66"/>
			<point x="285" y="66" type="curve" smooth="yes"/>
			<point x="196" y="66"/>
			<point x="138" y="101"/>
			<point x="113" y="171" type="curve"/>
			<point x="35" y="143" type="line"/>
			<point x="60" y="48"/>
			<point x="156" y="-11"/>
		</contour>
		<contour>
			<point x="104" y="440" type="line"/>
			<point x="152" y="447"/>
			<point x="217" y="450"/>
			<point x="289" y="450" type="curve" smooth="yes"/>
			<point x="371" y="450"/>
			<point x="473" y="445"/>
			<point x="556" y="438" type="curve"/>
			<point x="560" y="504" type="line"/>
			<point x="482" y="511"/>
			<point x="379" y="515"/>
			<point x="291" y="515" type="curve" smooth="yes"/>
			<point x="221" y="515"/>
			<point x="161" y="513"/>
			<point x="115" y="508" type="curve"/>
		</contour>
	</outline>
</glyph>
<glyph name="H-medf" format="2">
	<unicode hex="16E56"/>
	<advance width="534"/>
	<outline>
		<contour>
			<point x="187" y="-265" type="curve" smooth="yes"/>
			<point x="395" y="-265"/>
			<point x="436" y="-99"/>
			<point x="467" y="145" type="curve" smooth="yes"/>
			<point x="477" y="220"/>
			<point x="486" y="266"/>
			<point x="499" y="309" type="curve"/>
			<point x="419" y="326" type="line"/>
			<point x="388" y="250"/>
			<point x="320" y="236"/>
			<point x="233" y="236" type="curve" smooth="yes"/>
			<point x="139" y="236"/>
			<point x="120" y="230"/>
			<point x="90" y="209" type="curve"/>
			<point x="126" y="214" type="line"/>
			<point x="164" y="283"/>
			<point x="166" y="347"/>
			<point x="179" y="479" type="curve" smooth="yes"/>
			<point x="191" y="603"/>
			<point x="224" y="647"/>
			<point x="287" y="647" type="curve" smooth="yes"/>
			<point x="318" y="647"/>
			<point x="349" y="634"/>
			<point x="369" y="620" type="curve"/>
			<point x="417" y="681" type="line"/>
			<point x="390" y="705"/>
			<point x="342" y="724"/>
			<point x="287" y="724" type="curve" smooth="yes"/>
			<point x="145" y="724"/>
			<point x="103" y="620"/>
			<point x="93" y="485" type="curve" smooth="yes"/>
			<point x="83" y="347"/>
			<point x="72" y="272"/>
			<point x="35" y="193" type="curve"/>
			<point x="80" y="136" type="line"/>
			<point x="117" y="156"/>
			<point x="167" y="159"/>
			<point x="233" y="159" type="curve" smooth="yes"/>
			<point x="330" y="159"/>
			<point x="406" y="160"/>
			<point x="436" y="273" type="curve"/>
			<point x="412" y="280" type="line"/>
			<point x="402" y="247"/>
			<point x="393" y="213"/>
			<point x="385" y="149" type="curve" smooth="yes"/>
			<point x="356" y="-73"/>
			<point x="327" y="-188"/>
			<point x="185" y="-188" type="curve" smooth="yes"/>
			<point x="147" y="-188"/>
			<point x="108" y="-174"/>
			<point x="86" y="-158" type="curve"/>
			<point x="40" y="-222" type="line"/>
			<point x="73" y="-248"/>
			<point x="127" y="-265"/>
		</contour>
	</outline>
</glyph>
<glyph name="NG-medf" format="2">
  <advance width="673"/>
  <unicode hex="16E57"/>
  <outline>
    <contour>
      <point x="273" y="-11" type="curve" smooth="yes"/>
      <point x="484" y="-11"/>
      <point x="623" y="147"/>
      <point x="623" y="357" type="curve" smooth="yes"/>
      <point x="623" y="600"/>
      <point x="454" y="724"/>
      <point x="218" y="724" type="curve" smooth="yes"/>
      <point x="196" y="724"/>
      <point x="172" y="723"/>
      <point x="150" y="720" type="curve"/>
      <point x="111" y="675" type="line"/>
      <point x="111" y="600"/>
      <point x="98" y="502"/>
      <point x="81" y="439" type="curve"/>
      <point x="110" y="384" type="line"/>
      <point x="179" y="355"/>
      <point x="263" y="313"/>
      <point x="325" y="278" type="curve"/>
      <point x="360" y="345" type="line"/>
      <point x="292" y="384"/>
      <point x="204" y="426"/>
      <point x="142" y="448" type="curve"/>
      <point x="151" y="407" type="line"/>
      <point x="173" y="474"/>
      <point x="188" y="600"/>
      <point x="188" y="662" type="curve"/>
      <point x="136" y="646" type="line"/>
      <point x="163" y="649"/>
      <point x="190" y="651"/>
      <point x="216" y="651" type="curve" smooth="yes"/>
      <point x="411" y="651"/>
      <point x="532" y="555"/>
      <point x="532" y="357" type="curve" smooth="yes"/>
      <point x="532" y="191"/>
      <point x="433" y="64"/>
      <point x="273" y="64" type="curve" smooth="yes"/>
      <point x="163" y="64"/>
      <point x="110" y="112"/>
      <point x="90" y="179" type="curve"/>
      <point x="15" y="153" type="line"/>
      <point x="38" y="58"/>
      <point x="122" y="-11"/>
    </contour>
    <contour>
      <point x="395" y="496" type="line"/>
      <point x="327" y="538"/>
      <point x="235" y="577"/>
      <point x="174" y="595" type="curve"/>
      <point x="135" y="539" type="line"/>
      <point x="208" y="513"/>
      <point x="299" y="472"/>
      <point x="360" y="434" type="curve"/>
    </contour>
  </outline>
</glyph>
<glyph name="X-medf" format="2">
  <advance width="1032"/>
  <unicode hex="16E58"/>
  <outline>
    <contour>
      <point x="757" y="-11" type="curve" smooth="yes"/>
      <point x="906" y="-11"/>
      <point x="997" y="95"/>
      <point x="997" y="269" type="curve" smooth="yes"/>
      <point x="997" y="548"/>
      <point x="779" y="724"/>
      <point x="434" y="724" type="curve" smooth="yes"/>
      <point x="302" y="724"/>
      <point x="191" y="713"/>
      <point x="75" y="687" type="curve"/>
      <point x="100" y="462"/>
      <point x="101" y="237"/>
      <point x="76" y="-2" type="curve"/>
      <point x="115" y="-1"/>
      <point x="156" y="0"/>
      <point x="194" y="0" type="curve" smooth="yes"/>
      <point x="268" y="0"/>
      <point x="353" y="-2"/>
      <point x="430" y="-6" type="curve"/>
      <point x="436" y="61"/>
      <point x="436" y="158"/>
      <point x="431" y="212" type="curve"/>
      <point x="353" y="209" type="line"/>
      <point x="356" y="178"/>
      <point x="358" y="75"/>
      <point x="355" y="42" type="curve"/>
      <point x="406" y="70" type="line"/>
      <point x="353" y="75"/>
      <point x="264" y="79"/>
      <point x="181" y="79" type="curve" smooth="yes"/>
      <point x="145" y="79"/>
      <point x="128" y="79"/>
      <point x="114" y="78" type="curve"/>
      <point x="157" y="40" type="line"/>
      <point x="180" y="234"/>
      <point x="178" y="491"/>
      <point x="153" y="670" type="curve"/>
      <point x="132" y="619" type="line"/>
      <point x="189" y="637"/>
      <point x="314" y="650"/>
      <point x="434" y="650" type="curve" smooth="yes"/>
      <point x="727" y="650"/>
      <point x="909" y="504"/>
      <point x="909" y="270" type="curve" smooth="yes"/>
      <point x="909" y="142"/>
      <point x="851" y="63"/>
      <point x="757" y="63" type="curve" smooth="yes"/>
      <point x="688" y="63"/>
      <point x="651" y="99"/>
      <point x="651" y="165" type="curve" smooth="yes"/>
      <point x="651" y="177"/>
      <point x="652" y="186"/>
      <point x="655" y="196" type="curve"/>
      <point x="575" y="212" type="line"/>
      <point x="570" y="198"/>
      <point x="567" y="181"/>
      <point x="567" y="161" type="curve" smooth="yes"/>
      <point x="567" y="55"/>
      <point x="640" y="-11"/>
    </contour>
    <contour>
      <point x="538" y="404" type="line"/>
      <point x="542" y="541"/>
      <point x="542" y="768"/>
      <point x="538" y="846" type="curve"/>
      <point x="457" y="846" type="line"/>
      <point x="461" y="768"/>
      <point x="461" y="540"/>
      <point x="457" y="404" type="curve"/>
    </contour>
  </outline>
</glyph>
<glyph name="D-medf" format="2">
	<unicode hex="16E59"/>
	<advance width="833"/>
	<outline>
		<contour>
			<point x="299" y="-4" type="line"/>
			<point x="314" y="226"/>
			<point x="336" y="343"/>
			<point x="380" y="515" type="curve"/>
			<point x="310" y="530" type="line"/>
			<point x="266" y="323"/>
			<point x="262" y="230"/>
			<point x="262" y="127" type="curve"/>
			<point x="278" y="171" type="line"/>
			<point x="262" y="339"/>
			<point x="210" y="486"/>
			<point x="85" y="626" type="curve"/>
			<point x="68" y="606" type="line"/>
			<point x="90" y="578"/>
			<point x="128" y="562"/>
			<point x="176" y="562" type="curve" smooth="yes"/>
			<point x="291" y="562"/>
			<point x="362" y="650"/>
			<point x="501" y="650" type="curve" smooth="yes"/>
			<point x="639" y="650"/>
			<point x="726" y="560"/>
			<point x="726" y="439" type="curve" smooth="yes"/>
			<point x="726" y="320"/>
			<point x="658" y="254"/>
			<point x="557" y="254" type="curve" smooth="yes"/>
			<point x="497" y="254"/>
			<point x="462" y="279"/>
			<point x="462" y="314" type="curve" smooth="yes"/>
			<point x="462" y="322"/>
			<point x="464" y="331"/>
			<point x="468" y="341" type="curve"/>
			<point x="400" y="371" type="line"/>
			<point x="389" y="352"/>
			<point x="383" y="329"/>
			<point x="383" y="307" type="curve" smooth="yes"/>
			<point x="383" y="235"/>
			<point x="451" y="180"/>
			<point x="559" y="180" type="curve" smooth="yes"/>
			<point x="703" y="180"/>
			<point x="808" y="283"/>
			<point x="808" y="439" type="curve" smooth="yes"/>
			<point x="808" y="611"/>
			<point x="682" y="724"/>
			<point x="503" y="724" type="curve" smooth="yes"/>
			<point x="347" y="724"/>
			<point x="261" y="632"/>
			<point x="157" y="632" type="curve" smooth="yes"/>
			<point x="115" y="632"/>
			<point x="82" y="652"/>
			<point x="59" y="678" type="curve"/>
			<point x="0" y="624" type="line"/>
			<point x="178" y="435"/>
			<point x="244" y="254"/>
			<point x="225" y="2" type="curve"/>
		</contour>
	</outline>
</glyph>
<glyph name="OE-medf" format="2">
  <advance width="809"/>
  <unicode hex="16E5A"/>
  <guideline y="77"/>
  <outline>
    <contour>
      <point x="323" y="351" type="line"/>
      <point x="375" y="358"/>
      <point x="445" y="364"/>
      <point x="511" y="368" type="curve"/>
      <point x="507" y="429" type="line"/>
      <point x="445" y="425"/>
      <point x="366" y="416"/>
      <point x="319" y="407" type="curve"/>
    </contour>
    <contour>
      <point x="346" y="-4" type="line"/>
      <point x="391" y="84"/>
      <point x="422" y="183"/>
      <point x="424" y="241" type="curve"/>
      <point x="403" y="239" type="line"/>
      <point x="436" y="189"/>
      <point x="460" y="115"/>
      <point x="480" y="0" type="curve"/>
      <point x="543" y="-4" type="line"/>
      <point x="701" y="176"/>
      <point x="774" y="308"/>
      <point x="774" y="453" type="curve" smooth="yes"/>
      <point x="774" y="616"/>
      <point x="675" y="724"/>
      <point x="529" y="724" type="curve" smooth="yes"/>
      <point x="454" y="724"/>
      <point x="402" y="702"/>
      <point x="372" y="652" type="curve"/>
      <point x="360" y="648" type="line"/>
      <point x="345" y="625"/>
      <point x="336" y="599"/>
      <point x="336" y="571" type="curve" smooth="yes"/>
      <point x="336" y="526"/>
      <point x="361" y="491"/>
      <point x="403" y="470" type="curve"/>
      <point x="446" y="530" type="line"/>
      <point x="430" y="541"/>
      <point x="421" y="553"/>
      <point x="421" y="574" type="curve" smooth="yes"/>
      <point x="421" y="618"/>
      <point x="456" y="647"/>
      <point x="523" y="647" type="curve" smooth="yes"/>
      <point x="621" y="647"/>
      <point x="689" y="579"/>
      <point x="689" y="453" type="curve" smooth="yes"/>
      <point x="689" y="329"/>
      <point x="626" y="199"/>
      <point x="511" y="63" type="curve"/>
      <point x="533" y="61" type="line"/>
      <point x="522" y="143"/>
      <point x="488" y="234"/>
      <point x="451" y="294" type="curve"/>
      <point x="365" y="275" type="line"/>
      <point x="359" y="200"/>
      <point x="336" y="116"/>
      <point x="302" y="40" type="curve"/>
      <point x="333" y="51" type="line"/>
      <point x="307" y="145"/>
      <point x="261" y="211"/>
      <point x="213" y="270" type="curve" smooth="yes"/>
      <point x="156" y="341"/>
      <point x="110" y="402"/>
      <point x="110" y="489" type="curve" smooth="yes"/>
      <point x="110" y="582"/>
      <point x="163" y="648"/>
      <point x="248" y="648" type="curve" smooth="yes"/>
      <point x="309" y="648"/>
      <point x="357" y="619"/>
      <point x="382" y="569" type="curve"/>
      <point x="427" y="635" type="line"/>
      <point x="395" y="684"/>
      <point x="334" y="724"/>
      <point x="249" y="724" type="curve" smooth="yes"/>
      <point x="119" y="724"/>
      <point x="25" y="630"/>
      <point x="25" y="490" type="curve" smooth="yes"/>
      <point x="25" y="374"/>
      <point x="86" y="303"/>
      <point x="153" y="227" type="curve" smooth="yes"/>
      <point x="207" y="166"/>
      <point x="259" y="98"/>
      <point x="280" y="-1" type="curve"/>
    </contour>
  </outline>
</glyph>
<glyph name="N-medf" format="2">
	<unicode hex="16E5B"/>
	<advance width="647"/>
	<outline>
		<contour>
			<point x="252" y="-10" type="curve" smooth="yes"/>
			<point x="477" y="-10"/>
			<point x="597" y="168"/>
			<point x="597" y="378" type="curve" smooth="yes"/>
			<point x="597" y="591"/>
			<point x="466" y="724"/>
			<point x="276" y="724" type="curve" smooth="yes"/>
			<point x="135" y="724"/>
			<point x="42" y="651"/>
			<point x="42" y="536" type="curve" smooth="yes"/>
			<point x="42" y="505"/>
			<point x="49" y="474"/>
			<point x="71" y="439" type="curve"/>
			<point x="147" y="471" type="line"/>
			<point x="138" y="487"/>
			<point x="130" y="510"/>
			<point x="130" y="535" type="curve" smooth="yes"/>
			<point x="130" y="599"/>
			<point x="177" y="649"/>
			<point x="275" y="649" type="curve" smooth="yes"/>
			<point x="409" y="649"/>
			<point x="506" y="555"/>
			<point x="506" y="378" type="curve" smooth="yes"/>
			<point x="506" y="205"/>
			<point x="420" y="65"/>
			<point x="252" y="65" type="curve" smooth="yes"/>
			<point x="177" y="65"/>
			<point x="113" y="98"/>
			<point x="113" y="177" type="curve" smooth="yes"/>
			<point x="113" y="186"/>
			<point x="114" y="196"/>
			<point x="117" y="207" type="curve"/>
			<point x="33" y="223" type="line"/>
			<point x="28" y="210"/>
			<point x="25" y="193"/>
			<point x="25" y="174" type="curve" smooth="yes"/>
			<point x="25" y="57"/>
			<point x="125" y="-10"/>
		</contour>
	</outline>
</glyph>
<glyph name="R-medf" format="2">
	<unicode hex="16E5C"/>
	<advance width="696"/>
	<outline>
		<contour>
			<point x="311" y="-3" type="line"/>
			<point x="326" y="89"/>
			<point x="342" y="195"/>
			<point x="342" y="298" type="curve"/>
			<point x="317" y="283" type="line"/>
			<point x="354" y="279"/>
			<point x="394" y="278"/>
			<point x="432" y="278" type="curve" smooth="yes"/>
			<point x="488" y="278"/>
			<point x="542" y="282"/>
			<point x="583" y="293" type="curve"/>
			<point x="558" y="317" type="line"/>
			<point x="512" y="268"/>
			<point x="485" y="199"/>
			<point x="485" y="141" type="curve" smooth="yes"/>
			<point x="485" y="62"/>
			<point x="539" y="-11"/>
			<point x="665" y="-11" type="curve"/>
			<point x="671" y="59" type="line"/>
			<point x="595" y="65"/>
			<point x="565" y="90"/>
			<point x="565" y="146" type="curve" smooth="yes"/>
			<point x="565" y="202"/>
			<point x="594" y="266"/>
			<point x="632" y="310" type="curve"/>
			<point x="591" y="367" type="line"/>
			<point x="551" y="352"/>
			<point x="499" y="347"/>
			<point x="438" y="347" type="curve" smooth="yes"/>
			<point x="388" y="347"/>
			<point x="333" y="349"/>
			<point x="273" y="354" type="curve"/>
			<point x="273" y="313"/>
			<point x="271" y="257"/>
			<point x="263" y="117" type="curve"/>
			<point x="285" y="86" type="line"/>
			<point x="285" y="223"/>
			<point x="216" y="292"/>
			<point x="167" y="344" type="curve" smooth="yes"/>
			<point x="120" y="394"/>
			<point x="102" y="442"/>
			<point x="102" y="500" type="curve" smooth="yes"/>
			<point x="102" y="600"/>
			<point x="183" y="645"/>
			<point x="286" y="645" type="curve" smooth="yes"/>
			<point x="364" y="645"/>
			<point x="442" y="616"/>
			<point x="442" y="537" type="curve" smooth="yes"/>
			<point x="442" y="528"/>
			<point x="441" y="518"/>
			<point x="438" y="507" type="curve"/>
			<point x="526" y="491" type="line"/>
			<point x="531" y="504"/>
			<point x="534" y="521"/>
			<point x="534" y="540" type="curve" smooth="yes"/>
			<point x="534" y="657"/>
			<point x="418" y="724"/>
			<point x="286" y="724" type="curve" smooth="yes"/>
			<point x="117" y="724"/>
			<point x="15" y="631"/>
			<point x="15" y="501" type="curve" smooth="yes"/>
			<point x="15" y="411"/>
			<point x="52" y="357"/>
			<point x="119" y="290" type="curve" smooth="yes"/>
			<point x="171" y="238"/>
			<point x="255" y="157"/>
			<point x="236" y="-1" type="curve"/>
		</contour>
	</outline>
</glyph>
<glyph name="O-medf" format="2">
  <advance width="867"/>
  <unicode hex="16E5D"/>
  <outline>
    <contour>
      <point x="192" y="-11" type="curve" smooth="yes"/>
      <point x="331" y="-11"/>
      <point x="425" y="75"/>
      <point x="439" y="216" type="curve"/>
      <point x="414" y="216" type="line"/>
      <point x="424" y="81"/>
      <point x="518" y="-11"/>
      <point x="646" y="-11" type="curve" smooth="yes"/>
      <point x="740" y="-11"/>
      <point x="811" y="40"/>
      <point x="832" y="115" type="curve"/>
      <point x="752" y="138" type="line"/>
      <point x="733" y="96"/>
      <point x="691" y="67"/>
      <point x="639" y="67" type="curve" smooth="yes"/>
      <point x="534" y="67"/>
      <point x="465" y="147"/>
      <point x="465" y="271" type="curve" smooth="yes"/>
      <point x="465" y="405"/>
      <point x="606" y="511"/>
      <point x="798" y="523" type="curve"/>
      <point x="766" y="578" type="line"/>
      <point x="606" y="573"/>
      <point x="442" y="469"/>
      <point x="412" y="339" type="curve"/>
      <point x="440" y="340" type="line"/>
      <point x="410" y="472"/>
      <point x="256" y="576"/>
      <point x="85" y="576" type="curve"/>
      <point x="98" y="555" type="line"/>
      <point x="169" y="615"/>
      <point x="294" y="652"/>
      <point x="425" y="652" type="curve" smooth="yes"/>
      <point x="586" y="652"/>
      <point x="693" y="613"/>
      <point x="733" y="557" type="curve"/>
      <point x="742" y="544" type="line"/>
      <point x="747" y="535"/>
      <point x="750" y="526"/>
      <point x="750" y="515" type="curve" smooth="yes"/>
      <point x="750" y="468"/>
      <point x="719" y="441"/>
      <point x="681" y="441" type="curve" smooth="yes"/>
      <point x="646" y="441"/>
      <point x="616" y="453"/>
      <point x="591" y="479" type="curve"/>
      <point x="543" y="438" type="line"/>
      <point x="573" y="402"/>
      <point x="621" y="379"/>
      <point x="682" y="379" type="curve" smooth="yes"/>
      <point x="771" y="379"/>
      <point x="828" y="437"/>
      <point x="828" y="515" type="curve" smooth="yes"/>
      <point x="828" y="644"/>
      <point x="642" y="724"/>
      <point x="425" y="724" type="curve" smooth="yes"/>
      <point x="262" y="724"/>
      <point x="96" y="667"/>
      <point x="24" y="586" type="curve"/>
      <point x="48" y="519" type="line"/>
      <point x="249" y="512"/>
      <point x="387" y="407"/>
      <point x="387" y="271" type="curve" smooth="yes"/>
      <point x="387" y="145"/>
      <point x="310" y="64"/>
      <point x="201" y="64" type="curve" smooth="yes"/>
      <point x="144" y="64"/>
      <point x="108" y="86"/>
      <point x="89" y="118" type="curve"/>
      <point x="15" y="74" type="line"/>
      <point x="45" y="19"/>
      <point x="107" y="-11"/>
    </contour>
  </outline>
</glyph>
<glyph name="AI-medf" format="2">
	<unicode hex="16E5E"/>
	<advance width="828"/>
	<outline>
		<contour>
			<point x="206" y="-11" type="curve" smooth="yes"/>
			<point x="400" y="-11"/>
			<point x="434" y="170"/>
			<point x="448" y="360" type="curve" smooth="yes"/>
			<point x="452" y="417"/>
			<point x="459" y="482"/>
			<point x="469" y="543" type="curve" smooth="yes"/>
			<point x="481" y="618"/>
			<point x="500" y="651"/>
			<point x="540" y="651" type="curve" smooth="yes"/>
			<point x="555" y="651"/>
			<point x="571" y="646"/>
			<point x="581" y="641" type="curve"/>
			<point x="607" y="710" type="line"/>
			<point x="590" y="718"/>
			<point x="569" y="724"/>
			<point x="541" y="724" type="curve" smooth="yes"/>
			<point x="465" y="724"/>
			<point x="411" y="689"/>
			<point x="390" y="558" type="curve" smooth="yes"/>
			<point x="380" y="495"/>
			<point x="377" y="448"/>
			<point x="370" y="365" type="curve" smooth="yes"/>
			<point x="357" y="206"/>
			<point x="333" y="57"/>
			<point x="206" y="57" type="curve" smooth="yes"/>
			<point x="170" y="57"/>
			<point x="150" y="74"/>
			<point x="150" y="99" type="curve" smooth="yes"/>
			<point x="150" y="123"/>
			<point x="167" y="143"/>
			<point x="205" y="143" type="curve" smooth="yes"/>
			<point x="317" y="143"/>
			<point x="365" y="-11"/>
			<point x="559" y="-11" type="curve" smooth="yes"/>
			<point x="727" y="-11"/>
			<point x="803" y="93"/>
			<point x="803" y="202" type="curve" smooth="yes"/>
			<point x="803" y="335"/>
			<point x="690" y="408"/>
			<point x="529" y="408" type="curve" smooth="yes"/>
			<point x="440" y="408"/>
			<point x="318" y="388"/>
			<point x="259" y="356" type="curve"/>
			<point x="284" y="327" type="line"/>
			<point x="293" y="350"/>
			<point x="306" y="414"/>
			<point x="306" y="449" type="curve" smooth="yes"/>
			<point x="306" y="555"/>
			<point x="248" y="616"/>
			<point x="151" y="616" type="curve" smooth="yes"/>
			<point x="71" y="616"/>
			<point x="10" y="564"/>
			<point x="10" y="495" type="curve" smooth="yes"/>
			<point x="10" y="465"/>
			<point x="18" y="435"/>
			<point x="53" y="409" type="curve"/>
			<point x="106" y="462" type="line"/>
			<point x="94" y="471"/>
			<point x="90" y="483"/>
			<point x="90" y="495" type="curve" smooth="yes"/>
			<point x="90" y="523"/>
			<point x="119" y="544"/>
			<point x="151" y="544" type="curve" smooth="yes"/>
			<point x="195" y="544"/>
			<point x="226" y="519"/>
			<point x="226" y="440" type="curve" smooth="yes"/>
			<point x="226" y="396"/>
			<point x="215" y="353"/>
			<point x="207" y="331" type="curve"/>
			<point x="243" y="284" type="line"/>
			<point x="330" y="319"/>
			<point x="446" y="334"/>
			<point x="529" y="334" type="curve" smooth="yes"/>
			<point x="643" y="334"/>
			<point x="715" y="296"/>
			<point x="715" y="203" type="curve" smooth="yes"/>
			<point x="715" y="128"/>
			<point x="663" y="63"/>
			<point x="560" y="63" type="curve" smooth="yes"/>
			<point x="402" y="63"/>
			<point x="345" y="211"/>
			<point x="204" y="211" type="curve" smooth="yes"/>
			<point x="131" y="211"/>
			<point x="69" y="170"/>
			<point x="69" y="99" type="curve" smooth="yes"/>
			<point x="69" y="37"/>
			<point x="121" y="-11"/>
		</contour>
	</outline>
</glyph>
<glyph name="Y-medf" format="2">
  <advance width="910"/>
  <unicode hex="16E5F"/>
  <outline>
    <contour>
      <point x="142" y="-11" type="curve" smooth="yes"/>
      <point x="333" y="-11"/>
      <point x="348" y="171"/>
      <point x="348" y="364" type="curve" smooth="yes"/>
      <point x="348" y="390" type="line" smooth="yes"/>
      <point x="348" y="535"/>
      <point x="361" y="648"/>
      <point x="451" y="648" type="curve" smooth="yes"/>
      <point x="493" y="648"/>
      <point x="516" y="626"/>
      <point x="516" y="595" type="curve" smooth="yes"/>
      <point x="516" y="571"/>
      <point x="502" y="543"/>
      <point x="479" y="526" type="curve"/>
      <point x="533" y="471" type="line"/>
      <point x="575" y="499"/>
      <point x="601" y="537"/>
      <point x="601" y="593" type="curve" smooth="yes"/>
      <point x="601" y="669"/>
      <point x="544" y="724"/>
      <point x="451" y="724" type="curve" smooth="yes"/>
      <point x="288" y="724"/>
      <point x="268" y="560"/>
      <point x="268" y="390" type="curve" smooth="yes"/>
      <point x="268" y="364" type="line" smooth="yes"/>
      <point x="268" y="199"/>
      <point x="262" y="58"/>
      <point x="146" y="58" type="curve" smooth="yes"/>
      <point x="106" y="58"/>
      <point x="87" y="75"/>
      <point x="87" y="101" type="curve" smooth="yes"/>
      <point x="87" y="126"/>
      <point x="106" y="145"/>
      <point x="148" y="145" type="curve" smooth="yes"/>
      <point x="254" y="145"/>
      <point x="408" y="-11"/>
      <point x="611" y="-11" type="curve" smooth="yes"/>
      <point x="778" y="-11"/>
      <point x="856" y="66"/>
      <point x="895" y="197" type="curve"/>
      <point x="816" y="223" type="line"/>
      <point x="783" y="127"/>
      <point x="736" y="63"/>
      <point x="612" y="63" type="curve" smooth="yes"/>
      <point x="446" y="63"/>
      <point x="289" y="214"/>
      <point x="148" y="214" type="curve" smooth="yes"/>
      <point x="56" y="214"/>
      <point x="5" y="164"/>
      <point x="5" y="99" type="curve" smooth="yes"/>
      <point x="5" y="38"/>
      <point x="46" y="-11"/>
    </contour>
    <contour>
      <point x="661" y="-211" type="line"/>
      <point x="662" y="-96"/>
      <point x="679" y="176"/>
      <point x="690" y="276" type="curve"/>
      <point x="616" y="280" type="line"/>
      <point x="607" y="177"/>
      <point x="589" y="-91"/>
      <point x="588" y="-209" type="curve"/>
    </contour>
  </outline>
</glyph>
<glyph name="m-medf" format="2">
	<unicode hex="16E60"/>
	<advance width="701"/>
	<outline>
		<contour>
			<point x="314" y="-10" type="curve" smooth="yes"/>
			<point x="494" y="-10"/>
			<point x="556" y="137"/>
			<point x="615" y="339" type="curve" smooth="yes"/>
			<point x="633" y="401" type="line" smooth="yes"/>
			<point x="648" y="453"/>
			<point x="662" y="465"/>
			<point x="686" y="467" type="curve"/>
			<point x="686" y="536" type="line"/>
			<point x="468" y="536" type="line" smooth="yes"/>
			<point x="364" y="536"/>
			<point x="311" y="478"/>
			<point x="311" y="403" type="curve"/>
			<point x="331" y="408" type="line"/>
			<point x="280" y="501"/>
			<point x="222" y="547"/>
			<point x="148" y="547" type="curve" smooth="yes"/>
			<point x="66" y="547"/>
			<point x="13" y="492"/>
			<point x="13" y="417" type="curve" smooth="yes"/>
			<point x="13" y="386"/>
			<point x="22" y="355"/>
			<point x="40" y="330" type="curve"/>
			<point x="107" y="362" type="line"/>
			<point x="97" y="376"/>
			<point x="91" y="395"/>
			<point x="91" y="413" type="curve" smooth="yes"/>
			<point x="91" y="446"/>
			<point x="110" y="475"/>
			<point x="155" y="475" type="curve" smooth="yes"/>
			<point x="218" y="475"/>
			<point x="266" y="415"/>
			<point x="333" y="276" type="curve"/>
			<point x="392" y="304" type="line"/>
			<point x="376" y="335"/>
			<point x="367" y="359"/>
			<point x="367" y="383" type="curve" smooth="yes"/>
			<point x="367" y="426"/>
			<point x="395" y="466"/>
			<point x="465" y="466" type="curve" smooth="yes"/>
			<point x="637" y="466" type="line"/>
			<point x="631" y="484" type="line"/>
			<point x="582" y="484"/>
			<point x="572" y="464"/>
			<point x="558" y="416" type="curve" smooth="yes"/>
			<point x="540" y="354" type="line" smooth="yes"/>
			<point x="484" y="160"/>
			<point x="439" y="61"/>
			<point x="313" y="61" type="curve" smooth="yes"/>
			<point x="228" y="61"/>
			<point x="174" y="106"/>
			<point x="166" y="178" type="curve"/>
			<point x="90" y="166" type="line"/>
			<point x="99" y="68"/>
			<point x="183" y="-10"/>
		</contour>
	</outline>
</glyph>
<glyph name="s-medf" format="2">
  <advance width="848"/>
  <unicode hex="16E61"/>
  <outline>
    <contour>
      <point x="226" y="-11" type="curve" smooth="yes"/>
      <point x="311" y="-11"/>
      <point x="372" y="35"/>
      <point x="391" y="119" type="curve"/>
      <point x="312" y="140" type="line"/>
      <point x="298" y="83"/>
      <point x="261" y="64"/>
      <point x="227" y="64" type="curve" smooth="yes"/>
      <point x="165" y="64"/>
      <point x="124" y="124"/>
      <point x="124" y="208" type="curve" smooth="yes"/>
      <point x="124" y="375"/>
      <point x="271" y="475"/>
      <point x="427" y="475" type="curve" smooth="yes"/>
      <point x="599" y="475"/>
      <point x="724" y="368"/>
      <point x="724" y="210" type="curve" smooth="yes"/>
      <point x="724" y="132"/>
      <point x="688" y="63"/>
      <point x="620" y="63" type="curve" smooth="yes"/>
      <point x="598" y="63"/>
      <point x="573" y="74"/>
      <point x="559" y="83" type="curve"/>
      <point x="524" y="17" type="line"/>
      <point x="549" y="-2"/>
      <point x="585" y="-11"/>
      <point x="623" y="-11" type="curve" smooth="yes"/>
      <point x="738" y="-11"/>
      <point x="813" y="83"/>
      <point x="813" y="210" type="curve" smooth="yes"/>
      <point x="813" y="418"/>
      <point x="638" y="547"/>
      <point x="427" y="547" type="curve" smooth="yes"/>
      <point x="226" y="547"/>
      <point x="35" y="424"/>
      <point x="35" y="208" type="curve" smooth="yes"/>
      <point x="35" y="73"/>
      <point x="108" y="-11"/>
    </contour>
  </outline>
</glyph>
<glyph name="v-medf" format="2">
  <advance width="631"/>
  <unicode hex="16E62"/>
  <outline>
    <contour>
      <point x="151" y="-11" type="curve" smooth="yes"/>
      <point x="375" y="-11"/>
      <point x="598" y="219"/>
      <point x="598" y="397" type="curve" smooth="yes"/>
      <point x="598" y="493"/>
      <point x="530" y="547"/>
      <point x="445" y="547" type="curve" smooth="yes"/>
      <point x="365" y="547"/>
      <point x="301" y="494"/>
      <point x="301" y="417" type="curve" smooth="yes"/>
      <point x="301" y="350"/>
      <point x="343" y="315"/>
      <point x="401" y="295" type="curve"/>
      <point x="432" y="359" type="line"/>
      <point x="399" y="371"/>
      <point x="381" y="389"/>
      <point x="381" y="418" type="curve" smooth="yes"/>
      <point x="381" y="455"/>
      <point x="404" y="480"/>
      <point x="443" y="480" type="curve" smooth="yes"/>
      <point x="484" y="480"/>
      <point x="516" y="449"/>
      <point x="516" y="397" type="curve" smooth="yes"/>
      <point x="516" y="247"/>
      <point x="331" y="67"/>
      <point x="158" y="60" type="curve"/>
      <point x="194" y="23" type="line"/>
      <point x="216" y="172"/>
      <point x="239" y="346"/>
      <point x="243" y="537" type="curve"/>
      <point x="165" y="545" type="line"/>
      <point x="129" y="481"/>
      <point x="56" y="394"/>
      <point x="0" y="330" type="curve"/>
      <point x="54" y="286" type="line"/>
      <point x="111" y="349"/>
      <point x="179" y="437"/>
      <point x="213" y="500" type="curve"/>
      <point x="164" y="520" type="line"/>
      <point x="160" y="347"/>
      <point x="140" y="171"/>
      <point x="114" y="-6" type="curve"/>
      <point x="125" y="-9"/>
      <point x="138" y="-11"/>
    </contour>
  </outline>
</glyph>
<glyph name="w-medf" format="2">
  <advance width="634"/>
  <unicode hex="16E63"/>
  <outline>
    <contour>
      <point x="213" y="-11" type="curve" smooth="yes"/>
      <point x="437" y="-11"/>
      <point x="592" y="150"/>
      <point x="592" y="322" type="curve" smooth="yes"/>
      <point x="592" y="467"/>
      <point x="481" y="547"/>
      <point x="345" y="547" type="curve" smooth="yes"/>
      <point x="194" y="547"/>
      <point x="54" y="443"/>
      <point x="54" y="288" type="curve" smooth="yes"/>
      <point x="54" y="201"/>
      <point x="105" y="147"/>
      <point x="194" y="147" type="curve" smooth="yes"/>
      <point x="310" y="147"/>
      <point x="371" y="238"/>
      <point x="422" y="395" type="curve"/>
      <point x="356" y="418" type="line"/>
      <point x="310" y="274"/>
      <point x="263" y="212"/>
      <point x="198" y="212" type="curve" smooth="yes"/>
      <point x="154" y="212"/>
      <point x="130" y="240"/>
      <point x="130" y="289" type="curve" smooth="yes"/>
      <point x="130" y="401"/>
      <point x="225" y="481"/>
      <point x="341" y="481" type="curve" smooth="yes"/>
      <point x="443" y="481"/>
      <point x="511" y="424"/>
      <point x="511" y="320" type="curve" smooth="yes"/>
      <point x="511" y="193"/>
      <point x="409" y="61"/>
      <point x="217" y="61" type="curve" smooth="yes"/>
      <point x="155" y="61"/>
      <point x="110" y="81"/>
      <point x="86" y="118" type="curve"/>
      <point x="25" y="74" type="line"/>
      <point x="51" y="26"/>
      <point x="110" y="-11"/>
    </contour>
    <contour>
      <point x="609" y="65" type="line"/>
      <point x="577" y="101"/>
      <point x="553" y="133"/>
      <point x="529" y="171" type="curve"/>
      <point x="512" y="188" type="line"/>
      <point x="479" y="232"/>
      <point x="439" y="275"/>
      <point x="362" y="321" type="curve"/>
      <point x="314" y="275" type="line"/>
      <point x="402" y="226"/>
      <point x="440" y="176"/>
      <point x="475" y="125" type="curve"/>
      <point x="486" y="111" type="line"/>
      <point x="504" y="82"/>
      <point x="525" y="53"/>
      <point x="553" y="23" type="curve"/>
    </contour>
  </outline>
</glyph>
<glyph name="atiu-medf" format="2">
  <advance width="878"/>
  <unicode hex="16E64"/>
  <guideline y="737"/>
  <outline>
    <contour>
      <point x="585" y="-11" type="curve" smooth="yes"/>
      <point x="726" y="-11"/>
      <point x="838" y="80"/>
      <point x="838" y="242" type="curve" smooth="yes"/>
      <point x="838" y="384"/>
      <point x="762" y="471"/>
      <point x="655" y="471" type="curve" smooth="yes"/>
      <point x="598" y="471"/>
      <point x="542" y="436"/>
      <point x="536" y="363" type="curve"/>
      <point x="560" y="366" type="line"/>
      <point x="544" y="467"/>
      <point x="453" y="489"/>
      <point x="295" y="489" type="curve" smooth="yes"/>
      <point x="94" y="489"/>
      <point x="15" y="433"/>
      <point x="15" y="334" type="curve" smooth="yes"/>
      <point x="15" y="312"/>
      <point x="24" y="279"/>
      <point x="43" y="255" type="curve"/>
      <point x="109" y="287" type="line"/>
      <point x="99" y="302"/>
      <point x="93" y="317"/>
      <point x="93" y="334" type="curve" smooth="yes"/>
      <point x="93" y="396"/>
      <point x="143" y="421"/>
      <point x="298" y="421" type="curve" smooth="yes"/>
      <point x="437" y="421"/>
      <point x="500" y="412"/>
      <point x="515" y="322" type="curve"/>
      <point x="578" y="325" type="line"/>
      <point x="580" y="374"/>
      <point x="609" y="398"/>
      <point x="646" y="398" type="curve" smooth="yes"/>
      <point x="713" y="398"/>
      <point x="755" y="348"/>
      <point x="755" y="245" type="curve" smooth="yes"/>
      <point x="755" y="137"/>
      <point x="688" y="59"/>
      <point x="580" y="59" type="curve" smooth="yes"/>
      <point x="486" y="59"/>
      <point x="406" y="112"/>
      <point x="299" y="112" type="curve" smooth="yes"/>
      <point x="219" y="112"/>
      <point x="168" y="81"/>
      <point x="129" y="49" type="curve"/>
      <point x="171" y="40" type="line"/>
      <point x="202" y="156"/>
      <point x="235" y="297"/>
      <point x="260" y="434" type="curve"/>
      <point x="262" y="461" type="line"/>
      <point x="284" y="572"/>
      <point x="298" y="660"/>
      <point x="309" y="744" type="curve"/>
      <point x="302" y="744" type="line"/>
      <point x="308" y="673"/>
      <point x="324" y="569"/>
      <point x="348" y="463" type="curve"/>
      <point x="352" y="439" type="line"/>
      <point x="372" y="352"/>
      <point x="400" y="267"/>
      <point x="429" y="203" type="curve"/>
      <point x="495" y="231" type="line"/>
      <point x="422" y="367"/>
      <point x="377" y="633"/>
      <point x="353" y="807" type="curve"/>
      <point x="264" y="807" type="line"/>
      <point x="222" y="575"/>
      <point x="164" y="271"/>
      <point x="98" y="46" type="curve"/>
      <point x="136" y="-5" type="line"/>
      <point x="182" y="21"/>
      <point x="223" y="42"/>
      <point x="288" y="42" type="curve" smooth="yes"/>
      <point x="406" y="42"/>
      <point x="475" y="-11"/>
    </contour>
  </outline>
</glyph>
<glyph name="z-medf" format="2">
  <advance width="502"/>
  <unicode hex="16E65"/>
  <guideline x="49"/>
  <guideline y="-409"/>
  <outline>
    <contour>
      <point x="95" y="-408" type="line"/>
      <point x="291" y="-352"/>
      <point x="409" y="-205"/>
      <point x="409" y="-31" type="curve" smooth="yes"/>
      <point x="409" y="37"/>
      <point x="391" y="93"/>
      <point x="356" y="131" type="curve"/>
      <point x="341" y="143" type="line"/>
      <point x="305" y="195"/>
      <point x="246" y="233"/>
      <point x="173" y="233" type="curve" smooth="yes"/>
      <point x="90" y="233"/>
      <point x="35" y="185"/>
      <point x="35" y="113" type="curve" smooth="yes"/>
      <point x="35" y="40"/>
      <point x="92" y="-2"/>
      <point x="172" y="-2" type="curve" smooth="yes"/>
      <point x="230" y="-2"/>
      <point x="280" y="20"/>
      <point x="330" y="70" type="curve"/>
      <point x="342" y="72" type="line"/>
      <point x="412" y="141"/>
      <point x="447" y="221"/>
      <point x="447" y="308" type="curve" smooth="yes"/>
      <point x="447" y="450"/>
      <point x="354" y="547"/>
      <point x="215" y="547" type="curve" smooth="yes"/>
      <point x="149" y="547"/>
      <point x="91" y="526"/>
      <point x="53" y="486" type="curve"/>
      <point x="100" y="433" type="line"/>
      <point x="129" y="456"/>
      <point x="163" y="474"/>
      <point x="213" y="474" type="curve" smooth="yes"/>
      <point x="301" y="474"/>
      <point x="361" y="415"/>
      <point x="361" y="301" type="curve" smooth="yes"/>
      <point x="361" y="169"/>
      <point x="279" y="62"/>
      <point x="179" y="62" type="curve" smooth="yes"/>
      <point x="136" y="62"/>
      <point x="112" y="82"/>
      <point x="112" y="115" type="curve" smooth="yes"/>
      <point x="112" y="148"/>
      <point x="136" y="169"/>
      <point x="180" y="169" type="curve" smooth="yes"/>
      <point x="266" y="169"/>
      <point x="330" y="86"/>
      <point x="330" y="-31" type="curve" smooth="yes"/>
      <point x="330" y="-177"/>
      <point x="231" y="-293"/>
      <point x="71" y="-342" type="curve"/>
    </contour>
  </outline>
</glyph>
<glyph name="kp-medf" format="2">
	<unicode hex="16E66"/>
	<advance width="550"/>
	<outline>
		<contour>
			<point x="269" y="-5" type="line"/>
			<point x="316" y="115"/>
			<point x="429" y="340"/>
			<point x="535" y="467" type="curve"/>
			<point x="531" y="534" type="line"/>
			<point x="419" y="540"/>
			<point x="316" y="543"/>
			<point x="214" y="543" type="curve" smooth="yes"/>
			<point x="147" y="543"/>
			<point x="80" y="542"/>
			<point x="11" y="539" type="curve"/>
			<point x="0" y="472" type="line"/>
			<point x="54" y="388"/>
			<point x="148" y="133"/>
			<point x="173" y="-1" type="curve"/>
		</contour>
		<contour>
			<point x="242" y="31" type="line"/>
			<point x="220" y="157"/>
			<point x="135" y="397"/>
			<point x="78" y="496" type="curve"/>
			<point x="73" y="470" type="line"/>
			<point x="114" y="471"/>
			<point x="158" y="471"/>
			<point x="205" y="471" type="curve" smooth="yes"/>
			<point x="279" y="471"/>
			<point x="361" y="470"/>
			<point x="457" y="465" type="curve"/>
			<point x="460" y="491" type="line"/>
			<point x="373" y="395"/>
			<point x="243" y="144"/>
			<point x="204" y="28" type="curve"/>
		</contour>
		<contour>
			<point x="302" y="484" type="line"/>
			<point x="302" y="556"/>
			<point x="309" y="637"/>
			<point x="317" y="678" type="curve"/>
			<point x="227" y="678" type="line"/>
			<point x="221" y="632"/>
			<point x="215" y="556"/>
			<point x="218" y="484" type="curve"/>
		</contour>
	</outline>
</glyph>
<glyph name="p-medf" format="2">
	<unicode hex="16E67"/>
	<advance width="628"/>
	<outline>
		<contour>
			<point x="367" y="-11" type="curve" smooth="yes"/>
			<point x="500" y="-11"/>
			<point x="553" y="74"/>
			<point x="553" y="183" type="curve" smooth="yes"/>
			<point x="553" y="291"/>
			<point x="504" y="395"/>
			<point x="504" y="472" type="curve" smooth="yes"/>
			<point x="504" y="587"/>
			<point x="552" y="673"/>
			<point x="663" y="734" type="curve"/>
			<point x="653" y="807" type="line"/>
			<point x="328" y="807"/>
			<point x="35" y="524"/>
			<point x="35" y="0" type="curve"/>
			<point x="115" y="0" type="line"/>
			<point x="115" y="489"/>
			<point x="389" y="729"/>
			<point x="598" y="729" type="curve"/>
			<point x="606" y="755" type="line"/>
			<point x="485" y="700"/>
			<point x="424" y="599"/>
			<point x="424" y="472" type="curve" smooth="yes"/>
			<point x="424" y="374"/>
			<point x="471" y="285"/>
			<point x="471" y="183" type="curve" smooth="yes"/>
			<point x="471" y="111"/>
			<point x="437" y="60"/>
			<point x="368" y="60" type="curve" smooth="yes"/>
			<point x="317" y="60"/>
			<point x="286" y="82"/>
			<point x="277" y="117" type="curve"/>
			<point x="202" y="95" type="line"/>
			<point x="211" y="32"/>
			<point x="269" y="-11"/>
		</contour>
	</outline>
</glyph>
<glyph name="t-medf" format="2">
	<unicode hex="16E68"/>
	<advance width="508"/>
	<outline>
		<contour>
			<point x="147" y="-408" type="line"/>
			<point x="351" y="-110"/>
			<point x="453" y="121"/>
			<point x="453" y="284" type="curve" smooth="yes"/>
			<point x="453" y="445"/>
			<point x="359" y="547"/>
			<point x="208" y="547" type="curve" smooth="yes"/>
			<point x="101" y="547"/>
			<point x="25" y="484"/>
			<point x="25" y="395" type="curve" smooth="yes"/>
			<point x="25" y="368"/>
			<point x="32" y="345"/>
			<point x="46" y="325" type="curve"/>
			<point x="118" y="358" type="line"/>
			<point x="111" y="368"/>
			<point x="107" y="382"/>
			<point x="107" y="395" type="curve" smooth="yes"/>
			<point x="107" y="441"/>
			<point x="149" y="475"/>
			<point x="208" y="475" type="curve" smooth="yes"/>
			<point x="308" y="475"/>
			<point x="367" y="402"/>
			<point x="367" y="280" type="curve" smooth="yes"/>
			<point x="367" y="127"/>
			<point x="281" y="-90"/>
			<point x="120" y="-343" type="curve"/>
			<point x="141" y="-343" type="line"/>
			<point x="146" y="-180"/>
			<point x="142" y="-43"/>
			<point x="130" y="104" type="curve"/>
			<point x="101" y="76" type="line"/>
			<point x="175" y="100"/>
			<point x="310" y="128"/>
			<point x="425" y="144" type="curve"/>
			<point x="419" y="215" type="line"/>
			<point x="293" y="198"/>
			<point x="152" y="168"/>
			<point x="51" y="136" type="curve"/>
			<point x="69" y="-53"/>
			<point x="79" y="-228"/>
			<point x="83" y="-398" type="curve"/>
		</contour>
	</outline>
</glyph>
<glyph name="g-medf" format="2">
  <advance width="538"/>
  <unicode hex="16E69"/>
  <outline>
    <contour>
      <point x="67" y="-408" type="line"/>
      <point x="103" y="-379" type="line" smooth="yes"/>
      <point x="321" y="-199"/>
      <point x="488" y="-49"/>
      <point x="488" y="127" type="curve" smooth="yes"/>
      <point x="488" y="251"/>
      <point x="403" y="322"/>
      <point x="303" y="335" type="curve"/>
      <point x="289" y="259" type="line"/>
      <point x="369" y="242"/>
      <point x="404" y="202"/>
      <point x="404" y="128" type="curve" smooth="yes"/>
      <point x="404" y="-18"/>
      <point x="277" y="-147"/>
      <point x="143" y="-255" type="curve" smooth="yes"/>
      <point x="84" y="-301" type="line"/>
      <point x="132" y="-294" type="line"/>
      <point x="188" y="-231"/>
      <point x="214" y="-173"/>
      <point x="214" y="-113" type="curve" smooth="yes"/>
      <point x="214" y="-58"/>
      <point x="193" y="16"/>
      <point x="171" y="90" type="curve" smooth="yes"/>
      <point x="155" y="147"/>
      <point x="145" y="207"/>
      <point x="145" y="273" type="curve" smooth="yes"/>
      <point x="145" y="404"/>
      <point x="211" y="475"/>
      <point x="307" y="475" type="curve" smooth="yes"/>
      <point x="363" y="475"/>
      <point x="408" y="455"/>
      <point x="415" y="408" type="curve"/>
      <point x="498" y="402" type="line"/>
      <point x="498" y="490"/>
      <point x="413" y="547"/>
      <point x="308" y="547" type="curve" smooth="yes"/>
      <point x="193" y="547"/>
      <point x="61" y="478"/>
      <point x="61" y="271" type="curve" smooth="yes"/>
      <point x="61" y="201"/>
      <point x="75" y="131"/>
      <point x="95" y="66" type="curve" smooth="yes"/>
      <point x="117" y="-2"/>
      <point x="134" y="-68"/>
      <point x="134" y="-122" type="curve" smooth="yes"/>
      <point x="134" y="-194"/>
      <point x="117" y="-267"/>
      <point x="38" y="-329" type="curve" smooth="yes"/>
      <point x="15" y="-347" type="line"/>
    </contour>
  </outline>
</glyph>
<glyph name="f-medf" format="2">
  <advance width="514"/>
  <unicode hex="16E6A"/>
  <outline>
    <contour>
      <point x="250" y="-11" type="curve" smooth="yes"/>
      <point x="386" y="-11"/>
      <point x="469" y="59"/>
      <point x="469" y="156" type="curve" smooth="yes"/>
      <point x="469" y="245"/>
      <point x="401" y="290"/>
      <point x="286" y="305" type="curve" smooth="yes"/>
      <point x="256" y="309" type="line" smooth="yes"/>
      <point x="177" y="320"/>
      <point x="152" y="345"/>
      <point x="152" y="389" type="curve" smooth="yes"/>
      <point x="152" y="433"/>
      <point x="192" y="475"/>
      <point x="270" y="475" type="curve" smooth="yes"/>
      <point x="334" y="475"/>
      <point x="378" y="447"/>
      <point x="387" y="395" type="curve"/>
      <point x="467" y="405" type="line"/>
      <point x="457" y="499"/>
      <point x="370" y="547"/>
      <point x="273" y="547" type="curve" smooth="yes"/>
      <point x="152" y="547"/>
      <point x="68" y="482"/>
      <point x="68" y="389" type="curve" smooth="yes"/>
      <point x="68" y="292"/>
      <point x="150" y="251"/>
      <point x="251" y="238" type="curve" smooth="yes"/>
      <point x="281" y="234" type="line" smooth="yes"/>
      <point x="360" y="223"/>
      <point x="385" y="198"/>
      <point x="385" y="156" type="curve" smooth="yes"/>
      <point x="385" y="109"/>
      <point x="347" y="61"/>
      <point x="250" y="61" type="curve" smooth="yes"/>
      <point x="180" y="61"/>
      <point x="130" y="92"/>
      <point x="124" y="154" type="curve"/>
      <point x="45" y="143" type="line"/>
      <point x="55" y="38"/>
      <point x="134" y="-11"/>
    </contour>
    <contour>
      <point x="292" y="154" type="line"/>
      <point x="294" y="179"/>
      <point x="294" y="242"/>
      <point x="294" y="267" type="curve" smooth="yes"/>
      <point x="294" y="310"/>
      <point x="294" y="336"/>
      <point x="292" y="379" type="curve"/>
      <point x="234" y="379" type="line"/>
      <point x="236" y="336"/>
      <point x="236" y="310"/>
      <point x="236" y="268" type="curve" smooth="yes"/>
      <point x="236" y="242"/>
      <point x="236" y="179"/>
      <point x="234" y="154" type="curve"/>
    </contour>
  </outline>
</glyph>
<glyph name="i-medf" format="2">
	<unicode hex="16E6B"/>
	<advance width="342"/>
	<outline>
		<contour>
			<point x="118" y="-11" type="line"/>
			<point x="235" y="-3"/>
			<point x="289" y="60"/>
			<point x="289" y="142" type="curve" smooth="yes"/>
			<point x="289" y="218"/>
			<point x="231" y="264"/>
			<point x="179" y="305" type="curve" smooth="yes"/>
			<point x="135" y="339"/>
			<point x="95" y="369"/>
			<point x="95" y="411" type="curve" smooth="yes"/>
			<point x="95" y="450"/>
			<point x="123" y="477"/>
			<point x="161" y="477" type="curve" smooth="yes"/>
			<point x="201" y="477"/>
			<point x="229" y="451"/>
			<point x="229" y="418" type="curve" smooth="yes"/>
			<point x="229" y="413"/>
			<point x="228" y="405"/>
			<point x="227" y="401" type="curve"/>
			<point x="303" y="391" type="line"/>
			<point x="306" y="400"/>
			<point x="307" y="412"/>
			<point x="307" y="422" type="curve" smooth="yes"/>
			<point x="307" y="494"/>
			<point x="251" y="547"/>
			<point x="161" y="547" type="curve" smooth="yes"/>
			<point x="80" y="547"/>
			<point x="15" y="495"/>
			<point x="15" y="413" type="curve" smooth="yes"/>
			<point x="15" y="337"/>
			<point x="71" y="293"/>
			<point x="123" y="254" type="curve" smooth="yes"/>
			<point x="168" y="220"/>
			<point x="209" y="189"/>
			<point x="209" y="142" type="curve" smooth="yes"/>
			<point x="209" y="91"/>
			<point x="154" y="60"/>
			<point x="107" y="60" type="curve"/>
		</contour>
		<contour>
			<point x="167" y="603" type="curve" smooth="yes"/>
			<point x="203" y="603"/>
			<point x="235" y="624"/>
			<point x="235" y="669" type="curve" smooth="yes"/>
			<point x="235" y="716"/>
			<point x="203" y="737"/>
			<point x="167" y="737" type="curve" smooth="yes"/>
			<point x="131" y="737"/>
			<point x="101" y="716"/>
			<point x="101" y="669" type="curve" smooth="yes"/>
			<point x="101" y="624"/>
			<point x="131" y="603"/>
		</contour>
	</outline>
</glyph>
<glyph name="k-medf" format="2">
	<unicode hex="16E6C"/>
	<advance width="664"/>
	<outline>
		<contour>
			<point x="547" y="2" type="line"/>
			<point x="497" y="295"/>
			<point x="467" y="636"/>
			<point x="477" y="803" type="curve"/>
			<point x="414" y="812" type="line"/>
			<point x="390" y="702"/>
			<point x="340" y="561"/>
			<point x="277" y="434" type="curve"/>
			<point x="280" y="422" type="line"/>
			<point x="266" y="395"/>
			<point x="251" y="369"/>
			<point x="229" y="330" type="curve"/>
			<point x="222" y="331" type="line"/>
			<point x="150" y="209"/>
			<point x="76" y="113"/>
			<point x="5" y="49" type="curve"/>
			<point x="56" y="-5" type="line"/>
			<point x="160" y="84"/>
			<point x="265" y="240"/>
			<point x="344" y="419" type="curve"/>
			<point x="352" y="442" type="line"/>
			<point x="405" y="570"/>
			<point x="436" y="692"/>
			<point x="440" y="775" type="curve"/>
			<point x="418" y="743" type="line"/>
			<point x="415" y="671"/>
			<point x="418" y="580"/>
			<point x="425" y="454" type="curve"/>
			<point x="425" y="420" type="line"/>
			<point x="431" y="334"/>
			<point x="439" y="241"/>
			<point x="451" y="139" type="curve"/>
			<point x="473" y="126" type="line"/>
			<point x="448" y="195"/>
			<point x="384" y="258"/>
			<point x="284" y="313" type="curve"/>
			<point x="275" y="316" type="line"/>
			<point x="216" y="348"/>
			<point x="139" y="376"/>
			<point x="78" y="390" type="curve"/>
			<point x="103" y="381" type="line"/>
			<point x="153" y="393"/>
			<point x="224" y="401"/>
			<point x="299" y="404" type="curve"/>
			<point x="315" y="400" type="line"/>
			<point x="337" y="400"/>
			<point x="359" y="401"/>
			<point x="380" y="401" type="curve" smooth="yes"/>
			<point x="488" y="401"/>
			<point x="567" y="398"/>
			<point x="639" y="391" type="curve"/>
			<point x="639" y="452" type="line"/>
			<point x="565" y="459"/>
			<point x="484" y="463"/>
			<point x="407" y="463" type="curve" smooth="yes"/>
			<point x="258" y="463"/>
			<point x="129" y="450"/>
			<point x="49" y="427" type="curve"/>
			<point x="56" y="344" type="line"/>
			<point x="304" y="267"/>
			<point x="419" y="170"/>
			<point x="464" y="-2" type="curve"/>
		</contour>
	</outline>
</glyph>
<glyph name="a-medf" format="2">
	<unicode hex="16E6D"/>
	<advance width="670"/>
	<outline>
		<contour>
			<point x="364" y="64" type="line"/>
			<point x="236" y="154"/>
			<point x="109" y="254"/>
			<point x="109" y="365" type="curve" smooth="yes"/>
			<point x="109" y="428"/>
			<point x="143" y="474"/>
			<point x="201" y="474" type="curve" smooth="yes"/>
			<point x="262" y="474"/>
			<point x="288" y="423"/>
			<point x="292" y="354" type="curve"/>
			<point x="356" y="344" type="line"/>
			<point x="380" y="408"/>
			<point x="420" y="467"/>
			<point x="482" y="467" type="curve" smooth="yes"/>
			<point x="527" y="467"/>
			<point x="561" y="441"/>
			<point x="561" y="389" type="curve" smooth="yes"/>
			<point x="561" y="271"/>
			<point x="450" y="161"/>
			<point x="312" y="59" type="curve"/>
		</contour>
		<contour>
			<point x="354" y="0" type="line"/>
			<point x="518" y="117"/>
			<point x="645" y="253"/>
			<point x="645" y="389" type="curve" smooth="yes"/>
			<point x="645" y="479"/>
			<point x="587" y="541"/>
			<point x="496" y="541" type="curve" smooth="yes"/>
			<point x="417" y="541"/>
			<point x="357" y="488"/>
			<point x="333" y="409" type="curve"/>
			<point x="344" y="395" type="line"/>
			<point x="347" y="472"/>
			<point x="298" y="547"/>
			<point x="202" y="547" type="curve" smooth="yes"/>
			<point x="97" y="547"/>
			<point x="25" y="470"/>
			<point x="25" y="370" type="curve" smooth="yes"/>
			<point x="25" y="221"/>
			<point x="190" y="96"/>
			<point x="324" y="-1" type="curve"/>
		</contour>
	</outline>
</glyph>
<glyph name="j-medf" format="2">
	<unicode hex="16E6E"/>
	<advance width="547"/>
	<outline>
		<contour>
			<point x="187" y="-11" type="curve" smooth="yes"/>
			<point x="347" y="-11"/>
			<point x="389" y="110"/>
			<point x="400" y="255" type="curve" smooth="yes"/>
			<point x="407" y="350"/>
			<point x="411" y="444"/>
			<point x="411" y="536" type="curve"/>
			<point x="325" y="536" type="line"/>
			<point x="325" y="443"/>
			<point x="322" y="350"/>
			<point x="314" y="255" type="curve" smooth="yes"/>
			<point x="303" y="126"/>
			<point x="270" y="61"/>
			<point x="187" y="61" type="curve" smooth="yes"/>
			<point x="131" y="61"/>
			<point x="99" y="90"/>
			<point x="99" y="135" type="curve" smooth="yes"/>
			<point x="99" y="167"/>
			<point x="118" y="191"/>
			<point x="156" y="204" type="curve"/>
			<point x="127" y="277" type="line"/>
			<point x="50" y="255"/>
			<point x="15" y="194"/>
			<point x="15" y="135" type="curve" smooth="yes"/>
			<point x="15" y="53"/>
			<point x="76" y="-11"/>
		</contour>
		<contour>
			<point x="542" y="329" type="line"/>
			<point x="440" y="366"/>
			<point x="294" y="408"/>
			<point x="181" y="436" type="curve"/>
			<point x="159" y="368" type="line"/>
			<point x="270" y="342"/>
			<point x="414" y="297"/>
			<point x="518" y="259" type="curve"/>
		</contour>
	</outline>
</glyph>
<glyph name="e-medf" format="2">
	<unicode hex="16E6F"/>
	<advance width="626"/>
	<outline>
		<contour>
			<point x="345" y="-11" type="curve" smooth="yes"/>
			<point x="479" y="-11"/>
			<point x="581" y="56"/>
			<point x="581" y="170" type="curve" smooth="yes"/>
			<point x="581" y="278"/>
			<point x="484" y="337"/>
			<point x="356" y="337" type="curve" smooth="yes"/>
			<point x="248" y="337"/>
			<point x="145" y="298"/>
			<point x="88" y="239" type="curve"/>
			<point x="116" y="191" type="line"/>
			<point x="180" y="237"/>
			<point x="261" y="266"/>
			<point x="348" y="266" type="curve" smooth="yes"/>
			<point x="436" y="266"/>
			<point x="490" y="231"/>
			<point x="490" y="170" type="curve" smooth="yes"/>
			<point x="490" y="107"/>
			<point x="435" y="63"/>
			<point x="345" y="63" type="curve" smooth="yes"/>
			<point x="224" y="63"/>
			<point x="141" y="134"/>
			<point x="141" y="250" type="curve" smooth="yes"/>
			<point x="141" y="370"/>
			<point x="231" y="473"/>
			<point x="369" y="473" type="curve" smooth="yes"/>
			<point x="420" y="473"/>
			<point x="466" y="459"/>
			<point x="492" y="448" type="curve"/>
			<point x="533" y="513" type="line"/>
			<point x="494" y="533"/>
			<point x="436" y="547"/>
			<point x="373" y="547" type="curve" smooth="yes"/>
			<point x="179" y="547"/>
			<point x="55" y="415"/>
			<point x="55" y="248" type="curve" smooth="yes"/>
			<point x="55" y="78"/>
			<point x="179" y="-11"/>
		</contour>
	</outline>
</glyph>
<glyph name="b-medf" format="2">
  <advance width="579"/>
  <unicode hex="16E70"/>
  <outline>
    <contour>
      <point x="167" y="98" type="line"/>
      <point x="153" y="149"/>
      <point x="148" y="201"/>
      <point x="148" y="254" type="curve" smooth="yes"/>
      <point x="148" y="370"/>
      <point x="171" y="490"/>
      <point x="171" y="604" type="curve" smooth="yes"/>
      <point x="171" y="628"/>
      <point x="170" y="656"/>
      <point x="167" y="679" type="curve"/>
      <point x="85" y="674" type="line"/>
      <point x="87" y="650"/>
      <point x="88" y="622"/>
      <point x="88" y="598" type="curve" smooth="yes"/>
      <point x="88" y="481"/>
      <point x="65" y="362"/>
      <point x="65" y="244" type="curve" smooth="yes"/>
      <point x="65" y="189"/>
      <point x="70" y="134"/>
      <point x="85" y="79" type="curve"/>
    </contour>
    <contour>
      <point x="329" y="-11" type="curve" smooth="yes"/>
      <point x="427" y="-11"/>
      <point x="511" y="36"/>
      <point x="511" y="150" type="curve" smooth="yes"/>
      <point x="511" y="242"/>
      <point x="458" y="305"/>
      <point x="458" y="380" type="curve" smooth="yes"/>
      <point x="458" y="420"/>
      <point x="471" y="451"/>
      <point x="529" y="479" type="curve"/>
      <point x="504" y="546" type="line"/>
      <point x="427" y="512"/>
      <point x="297" y="489"/>
      <point x="200" y="489" type="curve" smooth="yes"/>
      <point x="164" y="489"/>
      <point x="133" y="492"/>
      <point x="110" y="499" type="curve"/>
      <point x="104" y="429" type="line"/>
      <point x="132" y="421"/>
      <point x="169" y="418"/>
      <point x="209" y="418" type="curve" smooth="yes"/>
      <point x="296" y="418"/>
      <point x="371" y="429"/>
      <point x="434" y="446" type="curve"/>
      <point x="439" y="462" type="line"/>
      <point x="399" y="447"/>
      <point x="375" y="413"/>
      <point x="375" y="363" type="curve" smooth="yes"/>
      <point x="375" y="294"/>
      <point x="423" y="234"/>
      <point x="423" y="150" type="curve" smooth="yes"/>
      <point x="423" y="92"/>
      <point x="389" y="60"/>
      <point x="329" y="60" type="curve" smooth="yes"/>
      <point x="293" y="60"/>
      <point x="269" y="72"/>
      <point x="249" y="89" type="curve"/>
      <point x="206" y="32" type="line"/>
      <point x="235" y="6"/>
      <point x="270" y="-11"/>
    </contour>
  </outline>
</glyph>
<glyph name="c-medf" format="2">
  <advance width="539"/>
  <unicode hex="16E71"/>
  <outline>
    <contour>
      <point x="240" y="-11" type="curve" smooth="yes"/>
      <point x="382" y="-11"/>
      <point x="482" y="70"/>
      <point x="482" y="183" type="curve" smooth="yes"/>
      <point x="482" y="271"/>
      <point x="423" y="329"/>
      <point x="333" y="329" type="curve" smooth="yes"/>
      <point x="309" y="329"/>
      <point x="283" y="322"/>
      <point x="263" y="311" type="curve"/>
      <point x="276" y="293" type="line"/>
      <point x="334" y="353"/>
      <point x="399" y="414"/>
      <point x="480" y="485" type="curve"/>
      <point x="458" y="546" type="line"/>
      <point x="330" y="510"/>
      <point x="190" y="477"/>
      <point x="35" y="445" type="curve"/>
      <point x="52" y="372" type="line"/>
      <point x="203" y="405"/>
      <point x="311" y="433"/>
      <point x="402" y="461" type="curve"/>
      <point x="383" y="478" type="line"/>
      <point x="327" y="428"/>
      <point x="244" y="348"/>
      <point x="176" y="277" type="curve"/>
      <point x="220" y="232" type="line"/>
      <point x="243" y="254"/>
      <point x="273" y="265"/>
      <point x="309" y="265" type="curve" smooth="yes"/>
      <point x="366" y="265"/>
      <point x="398" y="235"/>
      <point x="398" y="183" type="curve" smooth="yes"/>
      <point x="398" y="108"/>
      <point x="335" y="58"/>
      <point x="240" y="58" type="curve" smooth="yes"/>
      <point x="168" y="58"/>
      <point x="125" y="86"/>
      <point x="117" y="136" type="curve"/>
      <point x="35" y="125" type="line"/>
      <point x="43" y="39"/>
      <point x="118" y="-11"/>
    </contour>
  </outline>
</glyph>
<glyph name="u-medf" format="2">
	<unicode hex="16E72"/>
	<advance width="533"/>
	<outline>
		<contour>
			<point x="223" y="-11" type="curve" smooth="yes"/>
			<point x="390" y="-11"/>
			<point x="478" y="122"/>
			<point x="478" y="283" type="curve" smooth="yes"/>
			<point x="478" y="449"/>
			<point x="374" y="547"/>
			<point x="235" y="547" type="curve" smooth="yes"/>
			<point x="139" y="547"/>
			<point x="67" y="494"/>
			<point x="55" y="417" type="curve"/>
			<point x="134" y="401" type="line"/>
			<point x="143" y="449"/>
			<point x="183" y="475"/>
			<point x="235" y="475" type="curve" smooth="yes"/>
			<point x="348" y="475"/>
			<point x="402" y="377"/>
			<point x="402" y="270" type="curve" smooth="yes"/>
			<point x="402" y="163"/>
			<point x="346" y="61"/>
			<point x="223" y="61" type="curve" smooth="yes"/>
			<point x="171" y="61"/>
			<point x="125" y="86"/>
			<point x="113" y="126" type="curve"/>
			<point x="35" y="103" type="line"/>
			<point x="53" y="33"/>
			<point x="126" y="-11"/>
		</contour>
		<contour>
			<point x="331" y="147" type="curve" smooth="yes"/>
			<point x="372" y="147"/>
			<point x="404" y="162"/>
			<point x="421" y="176" type="curve"/>
			<point x="421" y="227" type="line"/>
			<point x="403" y="213"/>
			<point x="376" y="204"/>
			<point x="345" y="204" type="curve" smooth="yes"/>
			<point x="291" y="204"/>
			<point x="264" y="232"/>
			<point x="264" y="268" type="curve" smooth="yes"/>
			<point x="264" y="304"/>
			<point x="291" y="332"/>
			<point x="343" y="332" type="curve" smooth="yes"/>
			<point x="378" y="332"/>
			<point x="408" y="321"/>
			<point x="425" y="304" type="curve"/>
			<point x="411" y="360" type="line"/>
			<point x="394" y="374"/>
			<point x="362" y="389"/>
			<point x="321" y="389" type="curve" smooth="yes"/>
			<point x="244" y="389"/>
			<point x="195" y="335"/>
			<point x="195" y="268" type="curve" smooth="yes"/>
			<point x="195" y="201"/>
			<point x="244" y="147"/>
		</contour>
	</outline>
</glyph>
<glyph name="yu-medf" format="2">
  <advance width="661"/>
  <unicode hex="16E73"/>
  <outline>
    <contour>
      <point x="178" y="-11" type="curve" smooth="yes"/>
      <point x="266" y="-11"/>
      <point x="314" y="49"/>
      <point x="339" y="148" type="curve"/>
      <point x="326" y="148" type="line"/>
      <point x="344" y="50"/>
      <point x="406" y="-11"/>
      <point x="488" y="-11" type="curve" smooth="yes"/>
      <point x="561" y="-11"/>
      <point x="611" y="40"/>
      <point x="626" y="118" type="curve"/>
      <point x="558" y="129" type="line"/>
      <point x="545" y="81"/>
      <point x="523" y="58"/>
      <point x="485" y="58" type="curve" smooth="yes"/>
      <point x="431" y="58"/>
      <point x="366" y="108"/>
      <point x="366" y="255" type="curve" smooth="yes"/>
      <point x="366" y="423"/>
      <point x="416" y="478"/>
      <point x="475" y="478" type="curve" smooth="yes"/>
      <point x="512" y="478"/>
      <point x="539" y="456"/>
      <point x="554" y="413" type="curve"/>
      <point x="626" y="433" type="line"/>
      <point x="612" y="503"/>
      <point x="555" y="547"/>
      <point x="484" y="547" type="curve" smooth="yes"/>
      <point x="398" y="547"/>
      <point x="348" y="490"/>
      <point x="322" y="388" type="curve"/>
      <point x="335" y="388" type="line"/>
      <point x="313" y="495"/>
      <point x="248" y="547"/>
      <point x="175" y="547" type="curve" smooth="yes"/>
      <point x="102" y="547"/>
      <point x="50" y="496"/>
      <point x="35" y="418" type="curve"/>
      <point x="103" y="407" type="line"/>
      <point x="116" y="455"/>
      <point x="140" y="478"/>
      <point x="178" y="478" type="curve" smooth="yes"/>
      <point x="231" y="478"/>
      <point x="294" y="428"/>
      <point x="294" y="281" type="curve" smooth="yes"/>
      <point x="294" y="113"/>
      <point x="247" y="58"/>
      <point x="185" y="58" type="curve" smooth="yes"/>
      <point x="148" y="58"/>
      <point x="122" y="80"/>
      <point x="107" y="123" type="curve"/>
      <point x="35" y="103" type="line"/>
      <point x="49" y="33"/>
      <point x="105" y="-11"/>
    </contour>
    <contour>
      <point x="524" y="308" type="line"/>
      <point x="474" y="310"/>
      <point x="418" y="311"/>
      <point x="359" y="311" type="curve" smooth="yes"/>
      <point x="287" y="311"/>
      <point x="213" y="310"/>
      <point x="149" y="307" type="curve"/>
      <point x="149" y="245" type="line"/>
      <point x="200" y="248"/>
      <point x="258" y="249"/>
      <point x="316" y="249" type="curve" smooth="yes"/>
      <point x="389" y="249"/>
      <point x="463" y="247"/>
      <point x="524" y="244" type="curve"/>
    </contour>
  </outline>
</glyph>
<glyph name="l-medf" format="2">
  <advance width="472"/>
  <unicode hex="16E74"/>
  <outline>
    <contour>
      <point x="230" y="-11" type="curve" smooth="yes"/>
      <point x="344" y="-11"/>
      <point x="418" y="45"/>
      <point x="418" y="128" type="curve" smooth="yes"/>
      <point x="418" y="202"/>
      <point x="357" y="256"/>
      <point x="265" y="256" type="curve" smooth="yes"/>
      <point x="229" y="256"/>
      <point x="195" y="246"/>
      <point x="173" y="229" type="curve"/>
      <point x="205" y="174" type="line"/>
      <point x="220" y="183"/>
      <point x="235" y="188"/>
      <point x="258" y="188" type="curve" smooth="yes"/>
      <point x="300" y="188"/>
      <point x="334" y="168"/>
      <point x="334" y="128" type="curve" smooth="yes"/>
      <point x="334" y="88"/>
      <point x="298" y="57"/>
      <point x="230" y="57" type="curve" smooth="yes"/>
      <point x="164" y="57"/>
      <point x="109" y="85"/>
      <point x="109" y="162" type="curve" smooth="yes"/>
      <point x="109" y="256"/>
      <point x="192" y="319"/>
      <point x="396" y="330" type="curve"/>
      <point x="427" y="381" type="line"/>
      <point x="413" y="524"/>
      <point x="336" y="726"/>
      <point x="298" y="808" type="curve"/>
      <point x="228" y="812" type="line"/>
      <point x="193" y="605"/>
      <point x="131" y="379"/>
      <point x="98" y="295" type="curve"/>
      <point x="175" y="310" type="line"/>
      <point x="220" y="437"/>
      <point x="258" y="597"/>
      <point x="275" y="737" type="curve"/>
      <point x="260" y="732" type="line"/>
      <point x="310" y="608"/>
      <point x="348" y="469"/>
      <point x="360" y="346" type="curve"/>
      <point x="388" y="394" type="line"/>
      <point x="294" y="388"/>
      <point x="218" y="370"/>
      <point x="161" y="343" type="curve"/>
      <point x="146" y="343" type="line"/>
      <point x="65" y="301"/>
      <point x="25" y="233"/>
      <point x="25" y="162" type="curve" smooth="yes"/>
      <point x="25" y="46"/>
      <point x="113" y="-11"/>
    </contour>
  </outline>
</glyph>
<glyph name="q-medf" format="2">
  <advance width="640"/>
  <unicode hex="16E75"/>
  <guideline y="336"/>
  <outline>
    <contour>
      <point x="247" y="-11" type="curve" smooth="yes"/>
      <point x="424" y="-11"/>
      <point x="481" y="99"/>
      <point x="481" y="227" type="curve" smooth="yes"/>
      <point x="481" y="251"/>
      <point x="479" y="270"/>
      <point x="479" y="292" type="curve" smooth="yes"/>
      <point x="479" y="407"/>
      <point x="506" y="459"/>
      <point x="558" y="461" type="curve"/>
      <point x="558" y="536" type="line"/>
      <point x="334" y="536" type="line" smooth="yes"/>
      <point x="166" y="536"/>
      <point x="109" y="438"/>
      <point x="90" y="289" type="curve" smooth="yes"/>
      <point x="79" y="200" type="line"/>
      <point x="154" y="195" type="line"/>
      <point x="166" y="285" type="line" smooth="yes"/>
      <point x="184" y="420"/>
      <point x="225" y="464"/>
      <point x="330" y="464" type="curve" smooth="yes"/>
      <point x="517" y="464" type="line"/>
      <point x="517" y="487" type="line"/>
      <point x="432" y="486"/>
      <point x="395" y="416"/>
      <point x="395" y="293" type="curve" smooth="yes"/>
      <point x="395" y="270"/>
      <point x="397" y="251"/>
      <point x="397" y="227" type="curve" smooth="yes"/>
      <point x="397" y="137"/>
      <point x="367" y="61"/>
      <point x="247" y="61" type="curve" smooth="yes"/>
      <point x="174" y="61"/>
      <point x="127" y="84"/>
      <point x="102" y="110" type="curve"/>
      <point x="54" y="55" type="line"/>
      <point x="89" y="14"/>
      <point x="153" y="-11"/>
    </contour>
    <contour>
      <point x="31" y="269" type="line"/>
      <point x="97" y="273"/>
      <point x="197" y="275"/>
      <point x="307" y="275" type="curve" smooth="yes"/>
      <point x="404" y="275"/>
      <point x="509" y="273"/>
      <point x="605" y="269" type="curve"/>
      <point x="605" y="336" type="line"/>
      <point x="522" y="341"/>
      <point x="437" y="343"/>
      <point x="355" y="343" type="curve" smooth="yes"/>
      <point x="229" y="343"/>
      <point x="111" y="338"/>
      <point x="25" y="332" type="curve"/>
    </contour>
  </outline>
</glyph>
<glyph name="h-medf" format="2">
	<unicode hex="16E76"/>
	<advance width="453"/>
	<outline>
		<contour>
			<point x="110" y="-10" type="line"/>
			<point x="212" y="100"/>
			<point x="357" y="323"/>
			<point x="422" y="469" type="curve"/>
			<point x="359" y="495" type="line"/>
			<point x="325" y="431"/>
			<point x="278" y="416"/>
			<point x="207" y="416" type="curve" smooth="yes"/>
			<point x="157" y="416"/>
			<point x="120" y="413"/>
			<point x="100" y="403" type="curve"/>
			<point x="123" y="379" type="line"/>
			<point x="148" y="424"/>
			<point x="164" y="486"/>
			<point x="189" y="588" type="curve" smooth="yes"/>
			<point x="217" y="702"/>
			<point x="246" y="747"/>
			<point x="295" y="747" type="curve" smooth="yes"/>
			<point x="339" y="747"/>
			<point x="362" y="721"/>
			<point x="362" y="685" type="curve" smooth="yes"/>
			<point x="362" y="678"/>
			<point x="361" y="669"/>
			<point x="359" y="662" type="curve"/>
			<point x="438" y="650" type="line"/>
			<point x="441" y="660"/>
			<point x="443" y="677"/>
			<point x="443" y="687" type="curve" smooth="yes"/>
			<point x="443" y="762"/>
			<point x="390" y="818"/>
			<point x="295" y="818" type="curve" smooth="yes"/>
			<point x="186" y="818"/>
			<point x="145" y="739"/>
			<point x="113" y="605" type="curve" smooth="yes"/>
			<point x="87" y="496"/>
			<point x="71" y="442"/>
			<point x="45" y="380" type="curve"/>
			<point x="84" y="323" type="line"/>
			<point x="106" y="335"/>
			<point x="139" y="342"/>
			<point x="200" y="342" type="curve" smooth="yes"/>
			<point x="255" y="342"/>
			<point x="321" y="344"/>
			<point x="351" y="429" type="curve"/>
			<point x="329" y="439" type="line"/>
			<point x="277" y="342"/>
			<point x="139" y="132"/>
			<point x="47" y="38" type="curve"/>
		</contour>
	</outline>
</glyph>
<glyph name="x-medf" format="2">
  <advance width="792"/>
  <unicode hex="16E78"/>
  <outline>
    <contour>
      <point x="215" y="-9" type="curve" smooth="yes"/>
      <point x="255" y="-9"/>
      <point x="287" y="2"/>
      <point x="306" y="22" type="curve"/>
      <point x="269" y="82" type="line"/>
      <point x="255" y="70"/>
      <point x="237" y="62"/>
      <point x="215" y="62" type="curve" smooth="yes"/>
      <point x="156" y="62"/>
      <point x="120" y="122"/>
      <point x="120" y="213" type="curve" smooth="yes"/>
      <point x="120" y="394"/>
      <point x="257" y="478"/>
      <point x="403" y="478" type="curve" smooth="yes"/>
      <point x="556" y="478"/>
      <point x="672" y="389"/>
      <point x="672" y="218" type="curve" smooth="yes"/>
      <point x="672" y="120"/>
      <point x="631" y="62"/>
      <point x="572" y="62" type="curve" smooth="yes"/>
      <point x="555" y="62"/>
      <point x="537" y="68"/>
      <point x="524" y="77" type="curve"/>
      <point x="485" y="17" type="line"/>
      <point x="503" y="2"/>
      <point x="538" y="-9"/>
      <point x="572" y="-9" type="curve" smooth="yes"/>
      <point x="685" y="-9"/>
      <point x="757" y="79"/>
      <point x="757" y="218" type="curve" smooth="yes"/>
      <point x="757" y="435"/>
      <point x="590" y="547"/>
      <point x="403" y="547" type="curve" smooth="yes"/>
      <point x="217" y="547"/>
      <point x="35" y="437"/>
      <point x="35" y="212" type="curve" smooth="yes"/>
      <point x="35" y="74"/>
      <point x="105" y="-9"/>
    </contour>
    <contour>
      <point x="430" y="289" type="line"/>
      <point x="432" y="322"/>
      <point x="433" y="421"/>
      <point x="433" y="454" type="curve" smooth="yes"/>
      <point x="433" y="510"/>
      <point x="433" y="621"/>
      <point x="430" y="678" type="curve"/>
      <point x="359" y="678" type="line"/>
      <point x="362" y="621"/>
      <point x="362" y="511"/>
      <point x="362" y="455" type="curve" smooth="yes"/>
      <point x="362" y="421"/>
      <point x="361" y="322"/>
      <point x="359" y="289" type="curve"/>
    </contour>
  </outline>
</glyph>
<glyph name="d-medf" format="2">
  <advance width="549"/>
  <unicode hex="16E79"/>
  <outline>
    <contour>
      <point x="150" y="0" type="line"/>
      <point x="158" y="195"/>
      <point x="160" y="356"/>
      <point x="155" y="491" type="curve"/>
      <point x="107" y="462" type="line"/>
      <point x="147" y="467"/>
      <point x="199" y="471"/>
      <point x="232" y="471" type="curve" smooth="yes"/>
      <point x="370" y="471"/>
      <point x="426" y="443"/>
      <point x="426" y="374" type="curve" smooth="yes"/>
      <point x="426" y="304"/>
      <point x="371" y="266"/>
      <point x="254" y="255" type="curve"/>
      <point x="262" y="182" type="line"/>
      <point x="420" y="187"/>
      <point x="514" y="259"/>
      <point x="514" y="374" type="curve" smooth="yes"/>
      <point x="514" y="493"/>
      <point x="430" y="542"/>
      <point x="229" y="542" type="curve" smooth="yes"/>
      <point x="173" y="542"/>
      <point x="113" y="538"/>
      <point x="72" y="531" type="curve"/>
      <point x="78" y="381"/>
      <point x="78" y="219"/>
      <point x="70" y="0" type="curve"/>
    </contour>
  </outline>
</glyph>
<glyph name="oe-medf" format="2">
	<unicode hex="16E7A"/>
	<advance width="613"/>
	<outline>
		<contour>
			<point x="579" y="45" type="line"/>
			<point x="454" y="192"/>
			<point x="304" y="346"/>
			<point x="90" y="546" type="curve"/>
			<point x="35" y="490" type="line"/>
			<point x="224" y="318"/>
			<point x="390" y="147"/>
			<point x="522" y="-11" type="curve"/>
		</contour>
		<contour>
			<point x="351" y="246" type="line"/>
			<point x="504" y="391"/>
			<point x="558" y="446"/>
			<point x="598" y="496" type="curve"/>
			<point x="539" y="546" type="line"/>
			<point x="500" y="499"/>
			<point x="477" y="475"/>
			<point x="301" y="299" type="curve"/>
		</contour>
		<contour>
			<point x="70" y="-10" type="line"/>
			<point x="119" y="29"/>
			<point x="235" y="134"/>
			<point x="330" y="227" type="curve"/>
			<point x="280" y="281" type="line"/>
			<point x="204" y="207"/>
			<point x="93" y="107"/>
			<point x="15" y="43" type="curve"/>
		</contour>
		<contour>
			<point x="320" y="603" type="curve" smooth="yes"/>
			<point x="361" y="603"/>
			<point x="388" y="629"/>
			<point x="388" y="669" type="curve" smooth="yes"/>
			<point x="388" y="711"/>
			<point x="362" y="737"/>
			<point x="320" y="737" type="curve" smooth="yes"/>
			<point x="279" y="737"/>
			<point x="254" y="711"/>
			<point x="254" y="669" type="curve" smooth="yes"/>
			<point x="254" y="629"/>
			<point x="280" y="603"/>
		</contour>
	</outline>
</glyph>
<glyph name="n-medf" format="2">
  <advance width="518"/>
  <unicode hex="16E7B"/>
  <outline>
    <contour>
      <point x="208" y="-11" type="curve" smooth="yes"/>
      <point x="375" y="-11"/>
      <point x="483" y="122"/>
      <point x="483" y="283" type="curve" smooth="yes"/>
      <point x="483" y="449"/>
      <point x="369" y="547"/>
      <point x="230" y="547" type="curve" smooth="yes"/>
      <point x="124" y="547"/>
      <point x="48" y="482"/>
      <point x="48" y="393" type="curve" smooth="yes"/>
      <point x="48" y="367"/>
      <point x="55" y="344"/>
      <point x="69" y="324" type="curve"/>
      <point x="141" y="357" type="line"/>
      <point x="136" y="364"/>
      <point x="130" y="377"/>
      <point x="130" y="394" type="curve" smooth="yes"/>
      <point x="130" y="440"/>
      <point x="170" y="475"/>
      <point x="230" y="475" type="curve" smooth="yes"/>
      <point x="327" y="475"/>
      <point x="394" y="404"/>
      <point x="394" y="282" type="curve" smooth="yes"/>
      <point x="394" y="162"/>
      <point x="320" y="61"/>
      <point x="208" y="61" type="curve" smooth="yes"/>
      <point x="151" y="61"/>
      <point x="110" y="90"/>
      <point x="104" y="143" type="curve"/>
      <point x="25" y="130" type="line"/>
      <point x="34" y="37"/>
      <point x="112" y="-11"/>
    </contour>
  </outline>
</glyph>
<glyph name="r-medf" format="2">
  <advance width="634"/>
  <unicode hex="16E7C"/>
  <outline>
    <contour>
      <point x="294" y="-10" type="line"/>
      <point x="435" y="57"/>
      <point x="540" y="226"/>
      <point x="540" y="351" type="curve" smooth="yes"/>
      <point x="540" y="431"/>
      <point x="485" y="478"/>
      <point x="418" y="478" type="curve" smooth="yes"/>
      <point x="349" y="478"/>
      <point x="301" y="428"/>
      <point x="301" y="372" type="curve" smooth="yes"/>
      <point x="301" y="311"/>
      <point x="353" y="255"/>
      <point x="442" y="255" type="curve" smooth="yes"/>
      <point x="516" y="255"/>
      <point x="585" y="280"/>
      <point x="629" y="324" type="curve"/>
      <point x="584" y="371" type="line"/>
      <point x="549" y="339"/>
      <point x="517" y="313"/>
      <point x="452" y="313" type="curve" smooth="yes"/>
      <point x="393" y="313"/>
      <point x="371" y="340"/>
      <point x="371" y="370" type="curve" smooth="yes"/>
      <point x="371" y="399"/>
      <point x="391" y="419"/>
      <point x="418" y="419" type="curve" smooth="yes"/>
      <point x="442" y="419"/>
      <point x="470" y="401"/>
      <point x="470" y="347" type="curve" smooth="yes"/>
      <point x="470" y="260"/>
      <point x="399" y="131"/>
      <point x="270" y="50" type="curve"/>
      <point x="308" y="25" type="line"/>
      <point x="333" y="219"/>
      <point x="220" y="363"/>
      <point x="78" y="411" type="curve"/>
      <point x="80" y="383" type="line"/>
      <point x="142" y="418"/>
      <point x="226" y="458"/>
      <point x="292" y="477" type="curve"/>
      <point x="272" y="546" type="line"/>
      <point x="185" y="521"/>
      <point x="67" y="461"/>
      <point x="5" y="421" type="curve"/>
      <point x="21" y="355" type="line"/>
      <point x="171" y="302"/>
      <point x="245" y="194"/>
      <point x="235" y="12" type="curve"/>
    </contour>
  </outline>
</glyph>
<glyph name="o-medf" format="2">
  <advance width="644"/>
  <unicode hex="16E7D"/>
  <outline>
    <contour>
      <point x="580" y="48" type="line"/>
      <point x="501" y="103"/>
      <point x="425" y="169"/>
      <point x="302" y="287" type="curve" smooth="yes"/>
      <point x="236" y="351"/>
      <point x="169" y="409"/>
      <point x="104" y="457" type="curve"/>
      <point x="88" y="411" type="line"/>
      <point x="149" y="449"/>
      <point x="235" y="473"/>
      <point x="316" y="473" type="curve" smooth="yes"/>
      <point x="410" y="473"/>
      <point x="509" y="444"/>
      <point x="564" y="402" type="curve"/>
      <point x="551" y="455" type="line"/>
      <point x="486" y="389"/>
      <point x="385" y="298"/>
      <point x="307" y="237" type="curve"/>
      <point x="356" y="186" type="line"/>
      <point x="425" y="239"/>
      <point x="536" y="338"/>
      <point x="609" y="411" type="curve"/>
      <point x="602" y="467" type="line"/>
      <point x="531" y="517"/>
      <point x="425" y="547"/>
      <point x="319" y="547" type="curve" smooth="yes"/>
      <point x="208" y="547"/>
      <point x="103" y="517"/>
      <point x="35" y="467" type="curve"/>
      <point x="46" y="405" type="line"/>
      <point x="98" y="368"/>
      <point x="158" y="316"/>
      <point x="251" y="227" type="curve" smooth="yes"/>
      <point x="401" y="81"/>
      <point x="461" y="29"/>
      <point x="520" y="-11" type="curve"/>
    </contour>
    <contour>
      <point x="89" y="-11" type="line"/>
      <point x="153" y="30"/>
      <point x="261" y="113"/>
      <point x="334" y="175" type="curve"/>
      <point x="287" y="230" type="line"/>
      <point x="213" y="167"/>
      <point x="121" y="97"/>
      <point x="42" y="45" type="curve"/>
    </contour>
  </outline>
</glyph>
<glyph name="ai-medf" format="2">
  <advance width="496"/>
  <unicode hex="16E7E"/>
  <guideline x="45"/>
  <outline>
    <contour>
      <point x="60" y="-10" type="line"/>
      <point x="312" y="-10"/>
      <point x="461" y="88"/>
      <point x="461" y="245" type="curve" smooth="yes"/>
      <point x="461" y="392"/>
      <point x="294" y="449"/>
      <point x="157" y="449" type="curve"/>
      <point x="110" y="426" type="line"/>
      <point x="260" y="427"/>
      <point x="435" y="514"/>
      <point x="435" y="648" type="curve" smooth="yes"/>
      <point x="435" y="751"/>
      <point x="352" y="818"/>
      <point x="234" y="818" type="curve" smooth="yes"/>
      <point x="158" y="818"/>
      <point x="90" y="793"/>
      <point x="45" y="754" type="curve"/>
      <point x="95" y="699" type="line"/>
      <point x="128" y="725"/>
      <point x="177" y="745"/>
      <point x="231" y="745" type="curve" smooth="yes"/>
      <point x="299" y="745"/>
      <point x="348" y="705"/>
      <point x="348" y="648" type="curve" smooth="yes"/>
      <point x="348" y="546"/>
      <point x="240" y="496"/>
      <point x="62" y="460" type="curve"/>
      <point x="70" y="400" type="line"/>
      <point x="272" y="397"/>
      <point x="374" y="347"/>
      <point x="374" y="245" type="curve" smooth="yes"/>
      <point x="374" y="142"/>
      <point x="266" y="64"/>
      <point x="60" y="64" type="curve"/>
    </contour>
  </outline>
</glyph>
<glyph name="y-medf" format="2">
	<unicode hex="16E7F"/>
	<advance width="629"/>
	<outline>
		<contour>
			<point x="420" y="-110" type="line"/>
			<point x="415" y="55"/>
			<point x="416" y="224"/>
			<point x="421" y="398" type="curve"/>
			<point x="339" y="398" type="line"/>
			<point x="334" y="236"/>
			<point x="334" y="55"/>
			<point x="339" y="-110" type="curve"/>
		</contour>
		<contour>
			<point x="47" y="18" type="line"/>
			<point x="122" y="30"/>
			<point x="247" y="40"/>
			<point x="331" y="40" type="curve" smooth="yes"/>
			<point x="431" y="40"/>
			<point x="515" y="35"/>
			<point x="618" y="23" type="curve"/>
			<point x="624" y="93" type="line"/>
			<point x="540" y="104"/>
			<point x="430" y="110"/>
			<point x="331" y="110" type="curve" smooth="yes"/>
			<point x="231" y="110"/>
			<point x="117" y="100"/>
			<point x="68" y="87" type="curve"/>
			<point x="102" y="54" type="line"/>
			<point x="131" y="163"/>
			<point x="196" y="347"/>
			<point x="269" y="521" type="curve"/>
			<point x="197" y="547" type="line"/>
			<point x="140" y="411"/>
			<point x="64" y="199"/>
			<point x="30" y="78" type="curve"/>
		</contour>
	</outline>
</glyph>
<glyph name="zero-medf" format="2">
	<unicode hex="16E80"/>
	<advance width="564"/>
	<outline>
		<contour>
			<point x="79" y="319" type="line"/>
			<point x="137" y="323"/>
			<point x="207" y="326"/>
			<point x="281" y="326" type="curve" smooth="yes"/>
			<point x="348" y="326"/>
			<point x="418" y="324"/>
			<point x="486" y="319" type="curve"/>
			<point x="486" y="394" type="line"/>
			<point x="429" y="397"/>
			<point x="372" y="398"/>
			<point x="318" y="398" type="curve" smooth="yes"/>
			<point x="230" y="398"/>
			<point x="148" y="395"/>
			<point x="76" y="390" type="curve"/>
		</contour>
		<contour>
			<point x="282" y="62" type="curve" smooth="yes"/>
			<point x="182" y="62"/>
			<point x="127" y="180"/>
			<point x="127" y="357" type="curve" smooth="yes"/>
			<point x="127" y="533"/>
			<point x="182" y="651"/>
			<point x="282" y="651" type="curve" smooth="yes"/>
			<point x="382" y="651"/>
			<point x="437" y="533"/>
			<point x="437" y="356" type="curve" smooth="yes"/>
			<point x="437" y="180"/>
			<point x="382" y="62"/>
		</contour>
		<contour>
			<point x="282" y="-11" type="curve" smooth="yes"/>
			<point x="446" y="-11"/>
			<point x="519" y="156"/>
			<point x="519" y="356" type="curve" smooth="yes"/>
			<point x="519" y="557"/>
			<point x="436" y="724"/>
			<point x="282" y="724" type="curve" smooth="yes"/>
			<point x="118" y="724"/>
			<point x="45" y="557"/>
			<point x="45" y="357" type="curve" smooth="yes"/>
			<point x="45" y="156"/>
			<point x="128" y="-11"/>
		</contour>
	</outline>
	<guideline y="1000"/>
</glyph>
<glyph name="one-medf" format="2">
	<unicode hex="16E81"/>
	<advance width="536"/>
	<outline>
		<contour>
			<point x="256" y="0" type="line"/>
			<point x="335" y="139"/>
			<point x="419" y="270"/>
			<point x="511" y="388" type="curve"/>
			<point x="511" y="458" type="line"/>
			<point x="420" y="454"/>
			<point x="329" y="451"/>
			<point x="240" y="451" type="curve" smooth="yes"/>
			<point x="164" y="451"/>
			<point x="88" y="453"/>
			<point x="15" y="458" type="curve"/>
			<point x="15" y="388" type="line"/>
			<point x="87" y="384"/>
			<point x="165" y="382"/>
			<point x="239" y="382" type="curve" smooth="yes"/>
			<point x="318" y="382"/>
			<point x="394" y="384"/>
			<point x="455" y="388" type="curve"/>
			<point x="459" y="430" type="line"/>
			<point x="361" y="307"/>
			<point x="279" y="176"/>
			<point x="202" y="42" type="curve"/>
			<point x="252" y="42" type="line"/>
			<point x="262" y="266"/>
			<point x="264" y="489"/>
			<point x="252" y="713" type="curve"/>
			<point x="171" y="713" type="line"/>
			<point x="184" y="479"/>
			<point x="182" y="242"/>
			<point x="171" y="0" type="curve"/>
		</contour>
	</outline>
</glyph>
<glyph name="two-medf" format="2">
	<unicode hex="16E82"/>
	<advance width="536"/>
	<outline>
		<contour>
			<point x="365" y="0" type="line"/>
			<point x="352" y="234"/>
			<point x="354" y="471"/>
			<point x="365" y="713" type="curve"/>
			<point x="280" y="713" type="line"/>
			<point x="201" y="574"/>
			<point x="117" y="444"/>
			<point x="25" y="326" type="curve"/>
			<point x="25" y="256" type="line"/>
			<point x="116" y="260"/>
			<point x="207" y="263"/>
			<point x="296" y="263" type="curve" smooth="yes"/>
			<point x="372" y="263"/>
			<point x="448" y="261"/>
			<point x="521" y="256" type="curve"/>
			<point x="521" y="326" type="line"/>
			<point x="449" y="330"/>
			<point x="371" y="332"/>
			<point x="297" y="332" type="curve" smooth="yes"/>
			<point x="218" y="332"/>
			<point x="142" y="330"/>
			<point x="81" y="326" type="curve"/>
			<point x="77" y="284" type="line"/>
			<point x="175" y="407"/>
			<point x="257" y="537"/>
			<point x="334" y="671" type="curve"/>
			<point x="284" y="671" type="line"/>
			<point x="274" y="447"/>
			<point x="272" y="224"/>
			<point x="284" y="0" type="curve"/>
		</contour>
	</outline>
</glyph>
<glyph name="three-medf" format="2">
  <advance width="536"/>
  <unicode hex="16E83"/>
  <outline>
    <contour>
      <point x="251" y="0" type="line"/>
      <point x="263" y="224"/>
      <point x="261" y="447"/>
      <point x="251" y="671" type="curve"/>
      <point x="197" y="671" type="line"/>
      <point x="274" y="537"/>
      <point x="356" y="407"/>
      <point x="454" y="284" type="curve"/>
      <point x="450" y="326" type="line"/>
      <point x="389" y="330"/>
      <point x="315" y="332"/>
      <point x="237" y="332" type="curve" smooth="yes"/>
      <point x="164" y="332"/>
      <point x="87" y="330"/>
      <point x="15" y="326" type="curve"/>
      <point x="15" y="257" type="line"/>
      <point x="88" y="262"/>
      <point x="164" y="264"/>
      <point x="240" y="264" type="curve" smooth="yes"/>
      <point x="329" y="264"/>
      <point x="420" y="261"/>
      <point x="511" y="257" type="curve"/>
      <point x="511" y="326" type="line"/>
      <point x="419" y="444"/>
      <point x="335" y="574"/>
      <point x="256" y="713" type="curve"/>
      <point x="175" y="713" type="line"/>
      <point x="186" y="471"/>
      <point x="188" y="234"/>
      <point x="175" y="0" type="curve"/>
    </contour>
  </outline>
</glyph>
<glyph name="four-medf" format="2">
	<unicode hex="16E84"/>
	<advance width="574"/>
	<outline>
		<contour>
			<point x="282" y="-2" type="line"/>
			<point x="358" y="234"/>
			<point x="484" y="478"/>
			<point x="572" y="639" type="curve"/>
			<point x="566" y="705" type="line"/>
			<point x="497" y="713"/>
			<point x="392" y="719"/>
			<point x="276" y="719" type="curve" smooth="yes"/>
			<point x="164" y="719"/>
			<point x="64" y="716"/>
			<point x="8" y="712" type="curve"/>
			<point x="2" y="648" type="line"/>
			<point x="90" y="447"/>
			<point x="150" y="243"/>
			<point x="202" y="2" type="curve"/>
		</contour>
		<contour>
			<point x="262" y="42" type="line"/>
			<point x="220" y="255"/>
			<point x="162" y="478"/>
			<point x="68" y="687" type="curve"/>
			<point x="49" y="646" type="line"/>
			<point x="87" y="648"/>
			<point x="174" y="651"/>
			<point x="276" y="651" type="curve" smooth="yes"/>
			<point x="376" y="651"/>
			<point x="457" y="647"/>
			<point x="525" y="639" type="curve"/>
			<point x="510" y="677" type="line"/>
			<point x="416" y="498"/>
			<point x="300" y="266"/>
			<point x="226" y="38" type="curve"/>
		</contour>
		<contour>
			<point x="276" y="422" type="curve" smooth="yes"/>
			<point x="302" y="422"/>
			<point x="325" y="437"/>
			<point x="325" y="469" type="curve" smooth="yes"/>
			<point x="325" y="503"/>
			<point x="302" y="518"/>
			<point x="276" y="518" type="curve" smooth="yes"/>
			<point x="250" y="518"/>
			<point x="229" y="503"/>
			<point x="229" y="469" type="curve" smooth="yes"/>
			<point x="229" y="437"/>
			<point x="250" y="422"/>
		</contour>
	</outline>
</glyph>
<glyph name="five-medf" format="2">
  <advance width="598"/>
  <unicode hex="16E85"/>
  <outline>
    <contour>
      <point x="391" y="-11" type="curve" smooth="yes"/>
      <point x="470" y="-11"/>
      <point x="524" y="37"/>
      <point x="524" y="108" type="curve" smooth="yes"/>
      <point x="524" y="135"/>
      <point x="516" y="161"/>
      <point x="502" y="183" type="curve"/>
      <point x="433" y="153" type="line"/>
      <point x="440" y="140"/>
      <point x="445" y="124"/>
      <point x="445" y="111" type="curve" smooth="yes"/>
      <point x="445" y="80"/>
      <point x="424" y="59"/>
      <point x="391" y="59" type="curve" smooth="yes"/>
      <point x="328" y="59"/>
      <point x="277" y="138"/>
      <point x="195" y="138" type="curve" smooth="yes"/>
      <point x="135" y="138"/>
      <point x="95" y="97"/>
      <point x="86" y="23" type="curve"/>
      <point x="111" y="23" type="line"/>
      <point x="111" y="55" type="line" smooth="yes"/>
      <point x="111" y="143"/>
      <point x="143" y="186"/>
      <point x="297" y="302" type="curve" smooth="yes"/>
      <point x="433" y="404"/>
      <point x="480" y="468"/>
      <point x="480" y="549" type="curve" smooth="yes"/>
      <point x="480" y="656"/>
      <point x="400" y="724"/>
      <point x="273" y="724" type="curve" smooth="yes"/>
      <point x="155" y="724"/>
      <point x="74" y="659"/>
      <point x="74" y="564" type="curve" smooth="yes"/>
      <point x="74" y="535"/>
      <point x="81" y="513"/>
      <point x="97" y="491" type="curve"/>
      <point x="165" y="528" type="line"/>
      <point x="159" y="540"/>
      <point x="155" y="553"/>
      <point x="155" y="565" type="curve" smooth="yes"/>
      <point x="155" y="616"/>
      <point x="203" y="651"/>
      <point x="273" y="651" type="curve" smooth="yes"/>
      <point x="348" y="651"/>
      <point x="390" y="614"/>
      <point x="390" y="549" type="curve" smooth="yes"/>
      <point x="390" y="478"/>
      <point x="352" y="421"/>
      <point x="258" y="352" type="curve" smooth="yes"/>
      <point x="76" y="219"/>
      <point x="30" y="156"/>
      <point x="30" y="36" type="curve" smooth="yes"/>
      <point x="30" y="0" type="line"/>
      <point x="109" y="0" type="line"/>
      <point x="118" y="48"/>
      <point x="141" y="70"/>
      <point x="179" y="70" type="curve" smooth="yes"/>
      <point x="257" y="70"/>
      <point x="291" y="-11"/>
    </contour>
    <contour>
      <point x="503" y="319" type="line"/>
      <point x="422" y="322"/>
      <point x="362" y="324"/>
      <point x="307" y="324" type="curve" smooth="yes"/>
      <point x="244" y="324"/>
      <point x="177" y="322"/>
      <point x="61" y="317" type="curve"/>
      <point x="61" y="258" type="line"/>
      <point x="103" y="260"/>
      <point x="166" y="262"/>
      <point x="228" y="262" type="curve" smooth="yes"/>
      <point x="343" y="262"/>
      <point x="417" y="260"/>
      <point x="503" y="256" type="curve"/>
    </contour>
    <contour>
      <point x="533" y="436" type="line"/>
      <point x="452" y="439"/>
      <point x="392" y="441"/>
      <point x="337" y="441" type="curve" smooth="yes"/>
      <point x="274" y="441"/>
      <point x="207" y="439"/>
      <point x="91" y="434" type="curve"/>
      <point x="91" y="375" type="line"/>
      <point x="159" y="378"/>
      <point x="226" y="379"/>
      <point x="299" y="379" type="curve" smooth="yes"/>
      <point x="373" y="379"/>
      <point x="447" y="377"/>
      <point x="533" y="373" type="curve"/>
    </contour>
  </outline>
</glyph>
<glyph name="six-medf" format="2">
  <advance width="581"/>
  <unicode hex="16E86"/>
  <outline>
    <contour>
      <point x="361" y="-11" type="curve" smooth="yes"/>
      <point x="467" y="-11"/>
      <point x="536" y="49"/>
      <point x="536" y="141" type="curve" smooth="yes"/>
      <point x="536" y="169"/>
      <point x="528" y="196"/>
      <point x="514" y="218" type="curve"/>
      <point x="441" y="186" type="line"/>
      <point x="450" y="169"/>
      <point x="454" y="156"/>
      <point x="454" y="143" type="curve" smooth="yes"/>
      <point x="454" y="93"/>
      <point x="418" y="62"/>
      <point x="361" y="62" type="curve" smooth="yes"/>
      <point x="295" y="62"/>
      <point x="258" y="105"/>
      <point x="258" y="181" type="curve" smooth="yes"/>
      <point x="258" y="323"/>
      <point x="311" y="419"/>
      <point x="530" y="676" type="curve"/>
      <point x="469" y="725" type="line"/>
      <point x="247" y="454"/>
      <point x="179" y="326"/>
      <point x="179" y="179" type="curve" smooth="yes"/>
      <point x="179" y="60"/>
      <point x="247" y="-11"/>
    </contour>
    <contour>
      <point x="30" y="350" type="line"/>
      <point x="101" y="355"/>
      <point x="179" y="357"/>
      <point x="265" y="357" type="curve" smooth="yes"/>
      <point x="343" y="357"/>
      <point x="429" y="355"/>
      <point x="525" y="350" type="curve"/>
      <point x="525" y="421" type="line"/>
      <point x="444" y="425"/>
      <point x="360" y="427"/>
      <point x="273" y="427" type="curve" smooth="yes"/>
      <point x="192" y="427"/>
      <point x="110" y="425"/>
      <point x="30" y="421" type="curve"/>
    </contour>
    <contour>
      <point x="307" y="424" type="line"/>
      <point x="247" y="518"/>
      <point x="154" y="645"/>
      <point x="88" y="725" type="curve"/>
      <point x="25" y="676" type="line"/>
      <point x="118" y="568"/>
      <point x="215" y="438"/>
      <point x="260" y="360" type="curve"/>
    </contour>
  </outline>
</glyph>
<glyph name="seven-medf" format="2">
  <advance width="621"/>
  <unicode hex="16E87"/>
  <outline>
    <contour>
      <point x="348" y="0" type="line"/>
      <point x="409" y="88"/>
      <point x="457" y="147"/>
      <point x="586" y="292" type="curve"/>
      <point x="526" y="339" type="line"/>
      <point x="442" y="243"/>
      <point x="381" y="165"/>
      <point x="332" y="90" type="curve"/>
      <point x="350" y="67" type="line"/>
      <point x="344" y="289"/>
      <point x="345" y="479"/>
      <point x="353" y="713" type="curve"/>
      <point x="270" y="713" type="line"/>
      <point x="264" y="531"/>
      <point x="265" y="324"/>
      <point x="272" y="64" type="curve"/>
      <point x="293" y="85" type="line"/>
      <point x="240" y="167"/>
      <point x="157" y="277"/>
      <point x="100" y="343" type="curve"/>
      <point x="35" y="292" type="line"/>
      <point x="139" y="178"/>
      <point x="209" y="92"/>
      <point x="273" y="0" type="curve"/>
    </contour>
  </outline>
</glyph>
<glyph name="eight-medf" format="2">
  <advance width="621"/>
  <unicode hex="16E88"/>
  <outline>
    <contour>
      <point x="354" y="0" type="line"/>
      <point x="346" y="234"/>
      <point x="345" y="427"/>
      <point x="351" y="649" type="curve"/>
      <point x="328" y="627" type="line"/>
      <point x="383" y="540"/>
      <point x="461" y="436"/>
      <point x="521" y="371" type="curve"/>
      <point x="586" y="422" type="line"/>
      <point x="482" y="536"/>
      <point x="412" y="621"/>
      <point x="348" y="713" type="curve"/>
      <point x="273" y="713" type="line"/>
      <point x="212" y="625"/>
      <point x="164" y="567"/>
      <point x="35" y="422" type="curve"/>
      <point x="95" y="375" type="line"/>
      <point x="171" y="457"/>
      <point x="226" y="527"/>
      <point x="289" y="622" type="curve"/>
      <point x="273" y="652" type="line"/>
      <point x="266" y="392"/>
      <point x="265" y="182"/>
      <point x="271" y="0" type="curve"/>
    </contour>
  </outline>
</glyph>
<glyph name="nine-medf" format="2">
	<unicode hex="16E89"/>
	<advance width="666"/>
	<outline>
		<contour>
			<point x="651" y="60" type="line"/>
			<point x="601" y="281"/>
			<point x="561" y="488"/>
			<point x="527" y="704" type="curve"/>
			<point x="448" y="715" type="line"/>
			<point x="409" y="559"/>
			<point x="288" y="166"/>
			<point x="241" y="43" type="curve"/>
			<point x="313" y="27" type="line"/>
			<point x="350" y="101"/>
			<point x="442" y="426"/>
			<point x="490" y="647" type="curve"/>
			<point x="462" y="670" type="line"/>
			<point x="488" y="475"/>
			<point x="527" y="261"/>
			<point x="577" y="37" type="curve"/>
			<point x="610" y="63" type="line"/>
			<point x="531" y="72"/>
			<point x="392" y="78"/>
			<point x="267" y="78" type="curve" smooth="yes"/>
			<point x="177" y="78"/>
			<point x="104" y="75"/>
			<point x="59" y="69" type="curve"/>
			<point x="81" y="24" type="line"/>
			<point x="164" y="211"/>
			<point x="244" y="483"/>
			<point x="280" y="703" type="curve"/>
			<point x="203" y="715" type="line"/>
			<point x="167" y="504"/>
			<point x="92" y="248"/>
			<point x="15" y="65" type="curve"/>
			<point x="22" y="-5" type="line"/>
			<point x="73" y="1"/>
			<point x="148" y="4"/>
			<point x="254" y="4" type="curve" smooth="yes"/>
			<point x="382" y="4"/>
			<point x="547" y="-2"/>
			<point x="644" y="-10" type="curve"/>
		</contour>
	</outline>
</glyph>
<glyph name="ten-medf" format="2">
	<unicode hex="16E8A"/>
	<advance width="526"/>
	<outline>
		<contour>
			<point x="451" y="393" type="line"/>
			<point x="403" y="396"/>
			<point x="351" y="397"/>
			<point x="293" y="397" type="curve" smooth="yes"/>
			<point x="225" y="397"/>
			<point x="159" y="395"/>
			<point x="95" y="391" type="curve"/>
			<point x="95" y="326" type="line"/>
			<point x="138" y="329"/>
			<point x="184" y="330"/>
			<point x="240" y="330" type="curve" smooth="yes"/>
			<point x="303" y="330"/>
			<point x="371" y="328"/>
			<point x="451" y="324" type="curve"/>
		</contour>
		<contour>
			<point x="198" y="-8" type="line"/>
			<point x="273" y="225"/>
			<point x="385" y="476"/>
			<point x="481" y="633" type="curve"/>
			<point x="476" y="706" type="line"/>
			<point x="384" y="711"/>
			<point x="305" y="713"/>
			<point x="235" y="713" type="curve" smooth="yes"/>
			<point x="164" y="713"/>
			<point x="101" y="711"/>
			<point x="25" y="706" type="curve"/>
			<point x="29" y="631" type="line"/>
			<point x="94" y="637"/>
			<point x="187" y="640"/>
			<point x="268" y="640" type="curve" smooth="yes"/>
			<point x="323" y="640"/>
			<point x="382" y="638"/>
			<point x="432" y="635" type="curve"/>
			<point x="422" y="675" type="line"/>
			<point x="314" y="502"/>
			<point x="203" y="257"/>
			<point x="120" y="5" type="curve"/>
		</contour>
	</outline>
</glyph>
<glyph name="eleven-medf" format="2">
  <advance width="596"/>
  <unicode hex="16E8B"/>
  <outline>
    <contour>
      <point x="184" y="0" type="line"/>
      <point x="198" y="234"/>
      <point x="195" y="472"/>
      <point x="184" y="713" type="curve"/>
      <point x="100" y="713" type="line"/>
      <point x="113" y="472"/>
      <point x="117" y="234"/>
      <point x="100" y="0" type="curve"/>
    </contour>
    <contour>
      <point x="486" y="0" type="line"/>
      <point x="500" y="234"/>
      <point x="497" y="472"/>
      <point x="486" y="713" type="curve"/>
      <point x="402" y="713" type="line"/>
      <point x="415" y="472"/>
      <point x="419" y="234"/>
      <point x="402" y="0" type="curve"/>
    </contour>
    <contour>
      <point x="556" y="415" type="line"/>
      <point x="486" y="418"/>
      <point x="408" y="420"/>
      <point x="328" y="420" type="curve" smooth="yes"/>
      <point x="231" y="420"/>
      <point x="131" y="417"/>
      <point x="40" y="413" type="curve"/>
      <point x="40" y="339" type="line"/>
      <point x="108" y="343"/>
      <point x="182" y="345"/>
      <point x="257" y="345" type="curve" smooth="yes"/>
      <point x="361" y="345"/>
      <point x="466" y="342"/>
      <point x="556" y="337" type="curve"/>
    </contour>
  </outline>
</glyph>
<glyph name="twelve-medf" format="2">
  <advance width="596"/>
  <unicode hex="16E8C"/>
  <outline>
    <contour>
      <point x="181" y="0" type="line"/>
      <point x="195" y="234"/>
      <point x="192" y="472"/>
      <point x="181" y="713" type="curve"/>
      <point x="100" y="713" type="line"/>
      <point x="113" y="472"/>
      <point x="117" y="234"/>
      <point x="100" y="0" type="curve"/>
    </contour>
    <contour>
      <point x="486" y="0" type="line"/>
      <point x="500" y="234"/>
      <point x="497" y="472"/>
      <point x="486" y="713" type="curve"/>
      <point x="405" y="713" type="line"/>
      <point x="418" y="472"/>
      <point x="422" y="234"/>
      <point x="405" y="0" type="curve"/>
    </contour>
    <contour>
      <point x="556" y="333" type="line"/>
      <point x="486" y="336"/>
      <point x="408" y="338"/>
      <point x="328" y="338" type="curve" smooth="yes"/>
      <point x="231" y="338"/>
      <point x="131" y="335"/>
      <point x="40" y="331" type="curve"/>
      <point x="40" y="260" type="line"/>
      <point x="108" y="264"/>
      <point x="182" y="266"/>
      <point x="257" y="266" type="curve" smooth="yes"/>
      <point x="361" y="266"/>
      <point x="466" y="263"/>
      <point x="556" y="258" type="curve"/>
    </contour>
    <contour>
      <point x="556" y="493" type="line"/>
      <point x="486" y="496"/>
      <point x="408" y="498"/>
      <point x="328" y="498" type="curve" smooth="yes"/>
      <point x="231" y="498"/>
      <point x="131" y="495"/>
      <point x="40" y="491" type="curve"/>
      <point x="40" y="420" type="line"/>
      <point x="108" y="424"/>
      <point x="182" y="426"/>
      <point x="257" y="426" type="curve" smooth="yes"/>
      <point x="361" y="426"/>
      <point x="466" y="423"/>
      <point x="556" y="418" type="curve"/>
    </contour>
  </outline>
</glyph>
<glyph name="thirteen-medf" format="2">
  <advance width="747"/>
  <unicode hex="16E8D"/>
  <outline>
    <contour>
      <point x="178" y="0" type="line"/>
      <point x="192" y="234"/>
      <point x="189" y="472"/>
      <point x="178" y="713" type="curve"/>
      <point x="100" y="713" type="line"/>
      <point x="113" y="472"/>
      <point x="117" y="234"/>
      <point x="100" y="0" type="curve"/>
    </contour>
    <contour>
      <point x="413" y="0" type="line"/>
      <point x="427" y="234"/>
      <point x="424" y="472"/>
      <point x="413" y="713" type="curve"/>
      <point x="335" y="713" type="line"/>
      <point x="348" y="472"/>
      <point x="352" y="234"/>
      <point x="335" y="0" type="curve"/>
    </contour>
    <contour>
      <point x="637" y="0" type="line"/>
      <point x="651" y="234"/>
      <point x="648" y="472"/>
      <point x="637" y="713" type="curve"/>
      <point x="559" y="713" type="line"/>
      <point x="572" y="472"/>
      <point x="576" y="234"/>
      <point x="559" y="0" type="curve"/>
    </contour>
    <contour>
      <point x="707" y="415" type="line"/>
      <point x="637" y="418"/>
      <point x="528" y="420"/>
      <point x="415" y="420" type="curve" smooth="yes"/>
      <point x="277" y="420"/>
      <point x="131" y="417"/>
      <point x="40" y="413" type="curve"/>
      <point x="40" y="339" type="line"/>
      <point x="108" y="343"/>
      <point x="209" y="345"/>
      <point x="315" y="345" type="curve" smooth="yes"/>
      <point x="461" y="345"/>
      <point x="617" y="342"/>
      <point x="707" y="337" type="curve"/>
    </contour>
  </outline>
</glyph>
<glyph name="fourteen-medf" format="2">
	<unicode hex="16E8E"/>
	<advance width="612"/>
	<outline>
		<contour>
			<point x="544" y="62" type="line"/>
			<point x="544" y="133"/>
			<point x="489" y="237"/>
			<point x="397" y="345" type="curve" smooth="yes"/>
			<point x="380" y="365" type="line"/>
			<point x="308" y="346" type="line"/>
			<point x="322" y="330" type="line" smooth="yes"/>
			<point x="412" y="226"/>
			<point x="467" y="126"/>
			<point x="467" y="63" type="curve"/>
			<point x="529" y="64" type="line"/>
			<point x="400" y="103"/>
			<point x="145" y="164"/>
			<point x="17" y="186" type="curve"/>
			<point x="5" y="117" type="line"/>
			<point x="95" y="102"/>
			<point x="233" y="70"/>
			<point x="527" y="-5" type="curve"/>
		</contour>
		<contour>
			<point x="577" y="339" type="line"/>
			<point x="496" y="361"/>
			<point x="417" y="381"/>
			<point x="345" y="398" type="curve"/>
			<point x="315" y="399" type="line"/>
			<point x="200" y="426"/>
			<point x="108" y="446"/>
			<point x="37" y="459" type="curve"/>
			<point x="22" y="397" type="line"/>
			<point x="110" y="381"/>
			<point x="229" y="355"/>
			<point x="352" y="325" type="curve"/>
			<point x="371" y="326" type="line"/>
			<point x="473" y="301"/>
			<point x="518" y="289"/>
			<point x="560" y="277" type="curve"/>
		</contour>
		<contour>
			<point x="377" y="375" type="line"/>
			<point x="363" y="391" type="line" smooth="yes"/>
			<point x="293" y="471"/>
			<point x="269" y="516"/>
			<point x="269" y="571" type="curve" smooth="yes"/>
			<point x="269" y="622"/>
			<point x="302" y="651"/>
			<point x="359" y="651" type="curve" smooth="yes"/>
			<point x="410" y="651"/>
			<point x="441" y="627"/>
			<point x="441" y="587" type="curve" smooth="yes"/>
			<point x="441" y="578"/>
			<point x="440" y="570"/>
			<point x="437" y="562" type="curve"/>
			<point x="515" y="550" type="line"/>
			<point x="519" y="565"/>
			<point x="521" y="579"/>
			<point x="521" y="593" type="curve" smooth="yes"/>
			<point x="521" y="672"/>
			<point x="457" y="724"/>
			<point x="359" y="724" type="curve" smooth="yes"/>
			<point x="256" y="724"/>
			<point x="187" y="663"/>
			<point x="187" y="571" type="curve" smooth="yes"/>
			<point x="187" y="515"/>
			<point x="215" y="461"/>
			<point x="287" y="376" type="curve" smooth="yes"/>
			<point x="304" y="356" type="line"/>
		</contour>
	</outline>
</glyph>
<glyph name="fifteen-medf" format="2">
  <advance width="713"/>
  <unicode hex="16E8F"/>
  <outline>
    <contour>
      <point x="79" y="-5" type="line"/>
      <point x="162" y="197"/>
      <point x="282" y="497"/>
      <point x="350" y="675" type="curve"/>
      <point x="362" y="675" type="line"/>
      <point x="466" y="397"/>
      <point x="558" y="169"/>
      <point x="631" y="-5" type="curve"/>
      <point x="708" y="19" type="line"/>
      <point x="586" y="298"/>
      <point x="476" y="557"/>
      <point x="417" y="711" type="curve"/>
      <point x="297" y="715" type="line"/>
      <point x="212" y="501"/>
      <point x="91" y="215"/>
      <point x="5" y="19" type="curve"/>
    </contour>
    <contour>
      <point x="397" y="0" type="line"/>
      <point x="389" y="231"/>
      <point x="388" y="463"/>
      <point x="394" y="687" type="curve"/>
      <point x="322" y="690" type="line"/>
      <point x="315" y="432"/>
      <point x="314" y="183"/>
      <point x="320" y="0" type="curve"/>
    </contour>
    <contour>
      <point x="578" y="290" type="line"/>
      <point x="495" y="294"/>
      <point x="441" y="295"/>
      <point x="389" y="295" type="curve" smooth="yes"/>
      <point x="330" y="295"/>
      <point x="272" y="293"/>
      <point x="152" y="288" type="curve"/>
      <point x="152" y="220" type="line"/>
      <point x="222" y="224"/>
      <point x="280" y="226"/>
      <point x="335" y="226" type="curve" smooth="yes"/>
      <point x="405" y="226"/>
      <point x="476" y="224"/>
      <point x="578" y="218" type="curve"/>
    </contour>
  </outline>
</glyph>
<glyph name="sixteen-medf" format="2">
	<unicode hex="16E90"/>
	<advance width="695"/>
	<outline>
		<contour>
			<point x="460" y="-11" type="curve" smooth="yes"/>
			<point x="565" y="-11"/>
			<point x="627" y="54"/>
			<point x="627" y="163" type="curve" smooth="yes"/>
			<point x="627" y="226"/>
			<point x="602" y="285"/>
			<point x="535" y="379" type="curve" smooth="yes"/>
			<point x="463" y="480"/>
			<point x="442" y="526"/>
			<point x="442" y="580" type="curve" smooth="yes"/>
			<point x="442" y="624"/>
			<point x="470" y="656"/>
			<point x="508" y="656" type="curve" smooth="yes"/>
			<point x="543" y="656"/>
			<point x="567" y="632"/>
			<point x="567" y="595" type="curve" smooth="yes"/>
			<point x="567" y="541"/>
			<point x="529" y="508"/>
			<point x="412" y="462" type="curve" smooth="yes"/>
			<point x="243" y="395"/>
			<point x="188" y="353"/>
			<point x="167" y="276" type="curve"/>
			<point x="181" y="276" type="line"/>
			<point x="181" y="443"/>
			<point x="183" y="601"/>
			<point x="187" y="713" type="curve"/>
			<point x="102" y="713" type="line"/>
			<point x="96" y="516"/>
			<point x="96" y="369"/>
			<point x="106" y="0" type="curve"/>
			<point x="182" y="0" type="line"/>
			<point x="182" y="141" type="line" smooth="yes"/>
			<point x="182" y="263"/>
			<point x="245" y="329"/>
			<point x="436" y="405" type="curve" smooth="yes"/>
			<point x="598" y="469"/>
			<point x="645" y="512"/>
			<point x="645" y="594" type="curve" smooth="yes"/>
			<point x="645" y="672"/>
			<point x="591" y="724"/>
			<point x="511" y="724" type="curve" smooth="yes"/>
			<point x="424" y="724"/>
			<point x="364" y="666"/>
			<point x="364" y="582" type="curve" smooth="yes"/>
			<point x="364" y="514"/>
			<point x="388" y="460"/>
			<point x="471" y="345" type="curve" smooth="yes"/>
			<point x="524" y="271"/>
			<point x="545" y="220"/>
			<point x="545" y="164" type="curve" smooth="yes"/>
			<point x="545" y="100"/>
			<point x="514" y="63"/>
			<point x="459" y="63" type="curve" smooth="yes"/>
			<point x="450" y="63"/>
			<point x="440" y="64"/>
			<point x="431" y="66" type="curve"/>
			<point x="424" y="-8" type="line"/>
			<point x="437" y="-10"/>
			<point x="448" y="-11"/>
		</contour>
	</outline>
</glyph>
<glyph name="seventeen-medf" format="2">
	<unicode hex="16E91"/>
	<advance width="585"/>
	<outline>
		<contour>
			<point x="20" y="329" type="line"/>
			<point x="110" y="334"/>
			<point x="210" y="337"/>
			<point x="310" y="337" type="curve" smooth="yes"/>
			<point x="382" y="337"/>
			<point x="454" y="335"/>
			<point x="522" y="331" type="curve"/>
			<point x="522" y="399" type="line"/>
			<point x="431" y="403"/>
			<point x="335" y="406"/>
			<point x="242" y="406" type="curve" smooth="yes"/>
			<point x="166" y="406"/>
			<point x="90" y="404"/>
			<point x="20" y="401" type="curve"/>
		</contour>
		<contour>
			<point x="69" y="-5" type="line"/>
			<point x="119" y="34"/>
			<point x="183" y="46"/>
			<point x="242" y="46" type="curve" smooth="yes"/>
			<point x="312" y="46"/>
			<point x="377" y="24"/>
			<point x="407" y="-5" type="curve"/>
			<point x="461" y="38" type="line"/>
			<point x="449" y="153"/>
			<point x="405" y="241"/>
			<point x="367" y="323" type="curve" smooth="yes"/>
			<point x="333" y="397"/>
			<point x="303" y="466"/>
			<point x="303" y="550" type="curve" smooth="yes"/>
			<point x="303" y="615"/>
			<point x="333" y="651"/>
			<point x="388" y="651" type="curve" smooth="yes"/>
			<point x="432" y="651"/>
			<point x="454" y="625"/>
			<point x="454" y="590" type="curve" smooth="yes"/>
			<point x="454" y="583"/>
			<point x="452" y="569"/>
			<point x="450" y="562" type="curve"/>
			<point x="529" y="550" type="line"/>
			<point x="533" y="563"/>
			<point x="535" y="581"/>
			<point x="535" y="593" type="curve" smooth="yes"/>
			<point x="535" y="665"/>
			<point x="486" y="724"/>
			<point x="388" y="724" type="curve" smooth="yes"/>
			<point x="291" y="724"/>
			<point x="220" y="663"/>
			<point x="220" y="550" type="curve" smooth="yes"/>
			<point x="220" y="460"/>
			<point x="257" y="379"/>
			<point x="295" y="297" type="curve" smooth="yes"/>
			<point x="331" y="220"/>
			<point x="369" y="140"/>
			<point x="379" y="51" type="curve"/>
			<point x="438" y="49" type="line"/>
			<point x="410" y="80"/>
			<point x="321" y="120"/>
			<point x="222" y="120" type="curve" smooth="yes"/>
			<point x="155" y="120"/>
			<point x="85" y="106"/>
			<point x="25" y="55" type="curve"/>
		</contour>
	</outline>
</glyph>
<glyph name="eighteen-medf" format="2">
	<unicode hex="16E92"/>
	<advance width="543"/>
	<outline>
		<contour>
			<point x="441" y="449" type="line"/>
			<point x="376" y="454"/>
			<point x="300" y="455"/>
			<point x="248" y="455" type="curve" smooth="yes"/>
			<point x="200" y="455"/>
			<point x="154" y="455"/>
			<point x="89" y="451" type="curve"/>
			<point x="89" y="384" type="line"/>
			<point x="127" y="387"/>
			<point x="192" y="389"/>
			<point x="241" y="389" type="curve" smooth="yes"/>
			<point x="296" y="389"/>
			<point x="395" y="386"/>
			<point x="441" y="381" type="curve"/>
		</contour>
		<contour>
			<point x="431" y="321" type="line"/>
			<point x="366" y="326"/>
			<point x="290" y="327"/>
			<point x="238" y="327" type="curve" smooth="yes"/>
			<point x="190" y="327"/>
			<point x="144" y="327"/>
			<point x="79" y="323" type="curve"/>
			<point x="79" y="256" type="line"/>
			<point x="117" y="259"/>
			<point x="182" y="261"/>
			<point x="231" y="261" type="curve" smooth="yes"/>
			<point x="286" y="261"/>
			<point x="385" y="258"/>
			<point x="431" y="253" type="curve"/>
		</contour>
		<contour>
			<point x="133" y="-11" type="curve" smooth="yes"/>
			<point x="230" y="-11"/>
			<point x="288" y="42"/>
			<point x="302" y="154" type="curve" smooth="yes"/>
			<point x="318" y="286"/>
			<point x="308" y="455"/>
			<point x="319" y="547" type="curve" smooth="yes"/>
			<point x="327" y="612"/>
			<point x="343" y="651"/>
			<point x="393" y="651" type="curve" smooth="yes"/>
			<point x="433" y="651"/>
			<point x="457" y="627"/>
			<point x="457" y="592" type="curve" smooth="yes"/>
			<point x="457" y="583"/>
			<point x="456" y="575"/>
			<point x="453" y="565" type="curve"/>
			<point x="532" y="553" type="line"/>
			<point x="536" y="568"/>
			<point x="538" y="583"/>
			<point x="538" y="597" type="curve" smooth="yes"/>
			<point x="538" y="668"/>
			<point x="487" y="724"/>
			<point x="393" y="724" type="curve" smooth="yes"/>
			<point x="293" y="724"/>
			<point x="248" y="659"/>
			<point x="238" y="558" type="curve" smooth="yes"/>
			<point x="227" y="449"/>
			<point x="236" y="309"/>
			<point x="218" y="166" type="curve" smooth="yes"/>
			<point x="210" y="102"/>
			<point x="186" y="62"/>
			<point x="134" y="62" type="curve" smooth="yes"/>
			<point x="104" y="62"/>
			<point x="82" y="77"/>
			<point x="73" y="95" type="curve"/>
			<point x="5" y="54" type="line"/>
			<point x="24" y="14"/>
			<point x="66" y="-11"/>
		</contour>
	</outline>
</glyph>
<glyph name="nineteen-medf" format="2">
  <advance width="580"/>
  <unicode hex="16E93"/>
  <outline>
    <contour>
      <point x="320" y="-11" type="curve" smooth="yes"/>
      <point x="420" y="-11"/>
      <point x="507" y="38"/>
      <point x="534" y="143" type="curve"/>
      <point x="454" y="157" type="line"/>
      <point x="432" y="93"/>
      <point x="383" y="62"/>
      <point x="320" y="62" type="curve" smooth="yes"/>
      <point x="183" y="62"/>
      <point x="127" y="190"/>
      <point x="127" y="338" type="curve" smooth="yes"/>
      <point x="127" y="527"/>
      <point x="226" y="651"/>
      <point x="363" y="651" type="curve" smooth="yes"/>
      <point x="416" y="651"/>
      <point x="457" y="627"/>
      <point x="457" y="582" type="curve" smooth="yes"/>
      <point x="457" y="562"/>
      <point x="451" y="542"/>
      <point x="439" y="524" type="curve"/>
      <point x="515" y="493" type="line"/>
      <point x="535" y="515"/>
      <point x="545" y="546"/>
      <point x="545" y="580" type="curve" smooth="yes"/>
      <point x="545" y="670"/>
      <point x="474" y="724"/>
      <point x="363" y="724" type="curve" smooth="yes"/>
      <point x="178" y="724"/>
      <point x="45" y="570"/>
      <point x="45" y="338" type="curve" smooth="yes"/>
      <point x="45" y="147"/>
      <point x="124" y="-11"/>
    </contour>
    <contour>
      <point x="233" y="202" type="curve" smooth="yes"/>
      <point x="363" y="202"/>
      <point x="420" y="262"/>
      <point x="420" y="341" type="curve" smooth="yes"/>
      <point x="420" y="420"/>
      <point x="363" y="480"/>
      <point x="233" y="480" type="curve" smooth="yes"/>
      <point x="175" y="480"/>
      <point x="121" y="465"/>
      <point x="88" y="451" type="curve"/>
      <point x="83" y="395" type="line"/>
      <point x="111" y="407"/>
      <point x="178" y="417"/>
      <point x="220" y="417" type="curve" smooth="yes"/>
      <point x="300" y="417"/>
      <point x="336" y="386"/>
      <point x="336" y="341" type="curve" smooth="yes"/>
      <point x="336" y="296"/>
      <point x="300" y="265"/>
      <point x="220" y="265" type="curve" smooth="yes"/>
      <point x="178" y="265"/>
      <point x="111" y="275"/>
      <point x="83" y="287" type="curve"/>
      <point x="88" y="231" type="line"/>
      <point x="121" y="217"/>
      <point x="175" y="202"/>
    </contour>
  </outline>
</glyph>
<glyph name="one-medf.alt" format="2">
  <advance width="431"/>
  <unicode hex="16E94"/>
  <outline>
    <contour>
      <point x="179" y="0" type="line"/>
      <point x="245" y="108"/>
      <point x="322" y="216"/>
      <point x="406" y="320" type="curve"/>
      <point x="341" y="368" type="line"/>
      <point x="268" y="280"/>
      <point x="200" y="180"/>
      <point x="129" y="56" type="curve"/>
      <point x="178" y="42" type="line"/>
      <point x="189" y="288"/>
      <point x="189" y="508"/>
      <point x="178" y="713" type="curve"/>
      <point x="97" y="713" type="line"/>
      <point x="109" y="497"/>
      <point x="109" y="264"/>
      <point x="97" y="0" type="curve"/>
    </contour>
  </outline>
</glyph>
<glyph name="two-medf.alt" format="2">
	<unicode hex="16E95"/>
	<advance width="431"/>
	<outline>
		<contour>
			<point x="334" y="0" type="line"/>
			<point x="322" y="216"/>
			<point x="322" y="449"/>
			<point x="334" y="713" type="curve"/>
			<point x="252" y="713" type="line"/>
			<point x="186" y="605"/>
			<point x="109" y="498"/>
			<point x="25" y="394" type="curve"/>
			<point x="90" y="346" type="line"/>
			<point x="163" y="434"/>
			<point x="231" y="533"/>
			<point x="302" y="657" type="curve"/>
			<point x="253" y="671" type="line"/>
			<point x="242" y="425"/>
			<point x="242" y="205"/>
			<point x="253" y="0" type="curve"/>
		</contour>
	</outline>
</glyph>
<glyph name="three-medf.alt" format="2">
	<unicode hex="16E96"/>
	<advance width="431"/>
	<outline>
		<contour>
			<point x="178" y="0" type="line"/>
			<point x="189" y="205"/>
			<point x="189" y="425"/>
			<point x="178" y="671" type="curve"/>
			<point x="129" y="657" type="line"/>
			<point x="200" y="533"/>
			<point x="268" y="434"/>
			<point x="341" y="346" type="curve"/>
			<point x="406" y="394" type="line"/>
			<point x="322" y="498"/>
			<point x="245" y="605"/>
			<point x="179" y="713" type="curve"/>
			<point x="97" y="713" type="line"/>
			<point x="109" y="449"/>
			<point x="109" y="216"/>
			<point x="97" y="0" type="curve"/>
		</contour>
	</outline>
</glyph>
<glyph name="comma-medf" format="2">
  <advance width="199"/>
  <unicode hex="16E97"/>
  <outline>
    <contour>
      <point x="174" y="-62" type="line"/>
      <point x="139" y="1"/>
      <point x="94" y="74"/>
      <point x="56" y="129" type="curve"/>
      <point x="5" y="94" type="line"/>
      <point x="42" y="35"/>
      <point x="86" y="-36"/>
      <point x="117" y="-97" type="curve"/>
    </contour>
  </outline>
</glyph>
<glyph name="period-medf" format="2">
  <advance width="368"/>
  <unicode hex="16E98"/>
  <outline>
    <contour>
      <point x="174" y="-62" type="line"/>
      <point x="139" y="1"/>
      <point x="94" y="74"/>
      <point x="56" y="129" type="curve"/>
      <point x="5" y="94" type="line"/>
      <point x="42" y="35"/>
      <point x="86" y="-36"/>
      <point x="117" y="-97" type="curve"/>
    </contour>
    <contour>
      <point x="343" y="-58" type="line"/>
      <point x="308" y="5"/>
      <point x="263" y="78"/>
      <point x="225" y="133" type="curve"/>
      <point x="174" y="98" type="line"/>
      <point x="211" y="39"/>
      <point x="255" y="-32"/>
      <point x="286" y="-93" type="curve"/>
    </contour>
  </outline>
</glyph>
<glyph name="or-medf" format="2">
  <advance width="1052"/>
  <unicode hex="16E99"/>
  <outline>
    <contour>
      <point x="220" y="-10" type="curve" smooth="yes"/>
      <point x="377" y="-10"/>
      <point x="575" y="228"/>
      <point x="575" y="417" type="curve" smooth="yes"/>
      <point x="575" y="485"/>
      <point x="536" y="528"/>
      <point x="473" y="528" type="curve" smooth="yes"/>
      <point x="385" y="528"/>
      <point x="328" y="433"/>
      <point x="328" y="288" type="curve" smooth="yes"/>
      <point x="328" y="96"/>
      <point x="402" y="-10"/>
      <point x="537" y="-10" type="curve" smooth="yes"/>
      <point x="696" y="-10"/>
      <point x="893" y="226"/>
      <point x="893" y="417" type="curve" smooth="yes"/>
      <point x="893" y="486"/>
      <point x="855" y="528"/>
      <point x="793" y="528" type="curve" smooth="yes"/>
      <point x="707" y="528"/>
      <point x="650" y="436"/>
      <point x="650" y="297" type="curve" smooth="yes"/>
      <point x="650" y="126"/>
      <point x="742" y="11"/>
      <point x="880" y="11" type="curve" smooth="yes"/>
      <point x="926" y="11"/>
      <point x="976" y="25"/>
      <point x="1017" y="49" type="curve"/>
      <point x="990" y="113" type="line"/>
      <point x="950" y="92"/>
      <point x="916" y="83"/>
      <point x="881" y="83" type="curve" smooth="yes"/>
      <point x="779" y="83"/>
      <point x="717" y="164"/>
      <point x="717" y="298" type="curve" smooth="yes"/>
      <point x="717" y="393"/>
      <point x="748" y="466"/>
      <point x="788" y="466" type="curve" smooth="yes"/>
      <point x="810" y="466"/>
      <point x="822" y="448"/>
      <point x="822" y="416" type="curve" smooth="yes"/>
      <point x="822" y="257"/>
      <point x="664" y="60"/>
      <point x="537" y="60" type="curve" smooth="yes"/>
      <point x="441" y="60"/>
      <point x="397" y="131"/>
      <point x="397" y="287" type="curve" smooth="yes"/>
      <point x="397" y="390"/>
      <point x="427" y="464"/>
      <point x="469" y="464" type="curve" smooth="yes"/>
      <point x="490" y="464"/>
      <point x="502" y="446"/>
      <point x="502" y="415" type="curve" smooth="yes"/>
      <point x="502" y="260"/>
      <point x="343" y="60"/>
      <point x="220" y="60" type="curve" smooth="yes"/>
      <point x="163" y="60"/>
      <point x="140" y="102"/>
      <point x="140" y="203" type="curve" smooth="yes"/>
      <point x="140" y="280"/>
      <point x="157" y="375"/>
      <point x="199" y="531" type="curve"/>
      <point x="118" y="541" type="line"/>
      <point x="82" y="417"/>
      <point x="60" y="287"/>
      <point x="60" y="202" type="curve" smooth="yes"/>
      <point x="60" y="55"/>
      <point x="109" y="-10"/>
    </contour>
  </outline>
</glyph>
<glyph name="exclam-medf" format="2">
	<unicode hex="16E9A"/>
	<advance width="374"/>
	<outline>
		<contour>
			<point x="71" y="247" type="curve"/>
			<point x="113" y="249"/>
			<point x="153" y="250"/>
			<point x="193" y="250" type="curve" smooth="yes"/>
			<point x="239" y="250"/>
			<point x="284" y="249"/>
			<point x="329" y="247" type="curve"/>
			<point x="329" y="325" type="line"/>
			<point x="305" y="326"/>
			<point x="283" y="326"/>
			<point x="262" y="326" type="curve" smooth="yes"/>
			<point x="197" y="326"/>
			<point x="143" y="323"/>
			<point x="97" y="320" type="curve"/>
			<point x="156" y="281" type="line"/>
			<point x="162" y="401"/>
			<point x="160" y="579"/>
			<point x="155" y="707" type="curve"/>
			<point x="65" y="707" type="line"/>
			<point x="73" y="570"/>
			<point x="75" y="399"/>
		</contour>
		<contour>
			<point x="211" y="-14" type="curve" smooth="yes"/>
			<point x="246" y="-14"/>
			<point x="273" y="6"/>
			<point x="273" y="54" type="curve" smooth="yes"/>
			<point x="273" y="105"/>
			<point x="246" y="122"/>
			<point x="211" y="122" type="curve" smooth="yes"/>
			<point x="176" y="122"/>
			<point x="149" y="105"/>
			<point x="149" y="54" type="curve" smooth="yes"/>
			<point x="149" y="6"/>
			<point x="176" y="-14"/>
		</contour>
	</outline>
</glyph>
<glyph name=".notdef" format="2">
	<advance width="490"/>
	<outline>
		<contour>
			<point x="45" y="0" type="line"/>
			<point x="445" y="0" type="line"/>
			<point x="445" y="714" type="line"/>
			<point x="45" y="714" type="line"/>
		</contour>
		<contour>
			<point x="93" y="48" type="line"/>
			<point x="93" y="666" type="line"/>
			<point x="397" y="666" type="line"/>
			<point x="397" y="48" type="line"/>
		</contour>
	</outline>
</glyph>
